<?xml version="1.0" encoding="UTF-8" standalone="no"?>
<!-- Created with Inkscape (http://www.inkscape.org/) -->

<svg
   width="5.2552133cm"
   height="0.59033233cm"
   viewBox="0 0 52.552133 5.9033231"
   version="1.1"
   id="svg1"
   inkscape:export-filename="title.svg"
   inkscape:export-xdpi="96"
   inkscape:export-ydpi="96"
   xmlns:inkscape="http://www.inkscape.org/namespaces/inkscape"
   xmlns:sodipodi="http://sodipodi.sourceforge.net/DTD/sodipodi-0.dtd"
   xmlns:xlink="http://www.w3.org/1999/xlink"
   xmlns="http://www.w3.org/2000/svg"
   xmlns:svg="http://www.w3.org/2000/svg">
  <sodipodi:namedview
     id="namedview1"
     pagecolor="#444444"
     bordercolor="#000000"
     borderopacity="0.25"
     inkscape:showpageshadow="2"
     inkscape:pageopacity="0.0"
     inkscape:pagecheckerboard="0"
     inkscape:deskcolor="#d1d1d1"
     inkscape:document-units="mm"
     showguides="true" />
  <defs
     id="defs1">
    <linearGradient
       id="linearGradient2"
       inkscape:collect="always">
      <stop
         style="stop-color:#000000;stop-opacity:1;"
         offset="0.3010101"
         id="stop2" />
      <stop
         style="stop-color:#c80000;stop-opacity:1;"
         offset="0.3010101"
         id="stop5" />
      <stop
         style="stop-color:#c80000;stop-opacity:1;"
         offset="0.70303029"
         id="stop3" />
      <stop
         style="stop-color:#febf00;stop-opacity:1;"
         offset="0.70303029"
         id="stop4" />
    </linearGradient>
    <linearGradient
       inkscape:collect="always"
       xlink:href="#linearGradient2"
       id="linearGradient3"
       x1="73.850891"
       y1="46.117413"
       x2="126.55341"
       y2="46.117413"
       gradientUnits="userSpaceOnUse"
       gradientTransform="matrix(0.99685268,0,0,0.6771844,2.288175,19.3214)"
       spreadMethod="pad" />
  </defs>
  <g
     inkscape:label="Ebene 1"
     inkscape:groupmode="layer"
     id="layer1"
     transform="translate(-78.999246,-47.317006)">
    <path
       id="rect2"
       style="fill:url(#linearGradient3);stroke-width:0.348317"
       inkscape:label="rect2"
       transform="matrix(1,0,0.06133563,0.9981172,0,0)"
       d="m 75.973137,50.421478 h 52.403643 c 0.0369,0 0.0665,0.02966 0.0665,0.06651 v 0.126823 c 0,0.03684 -0.0297,0.06651 -0.0665,0.06651 H 75.973137 c -0.03684,0 -0.06651,-0.02966 -0.06651,-0.06651 v -0.126823 c 0,-0.03684 0.02966,-0.06651 0.06651,-0.06651 z" />
    <path
       d="m 81.809146,49.529971 q 0,0.06032 -0.08572,0.09525 l -0.18415,0.0762 q -0.04762,0.04762 -0.14605,0.117475 l -0.09525,0.09525 -0.02223,0.0095 q -0.0762,0 -0.3302,-0.104775 -0.155575,-0.0635 -0.377825,-0.0762 l -0.130175,-0.02858 q -0.1143,-0.0254 -0.36195,-0.0254 -0.254,0 -0.377825,0.03175 -0.08572,0.02222 -0.23495,0.10795 -0.168275,0.168275 -0.219075,0.168275 -0.02223,0 -0.04762,-0.01905 -0.02223,-0.01905 -0.02223,-0.04127 0,-0.04445 0.3175,-0.282575 0.07303,-0.06667 0.212725,-0.231775 0,-0.0032 -0.0032,-0.0063 -0.127,0.06667 -0.1905,0.1143 -0.28575,0.161925 -0.454025,0.161925 h -0.0381 l -0.01905,-0.04445 q 0,-0.02222 0.0381,-0.0508 0.212725,-0.01588 0.365125,-0.136525 0.17145,-0.13335 0.17145,-0.339725 0,-0.130175 -0.07938,-0.2286 -0.07937,-0.1016 -0.206375,-0.1016 -0.0095,0 -0.05397,0.0063 h -0.02223 q -0.06668,0 -0.06668,-0.04127 0.104775,-0.130175 0.225425,-0.320675 0.0095,-0.03493 0.04445,-0.03493 0.0254,0 0.09525,0.07303 0.06985,0.06985 0.09207,0.06985 0.0254,0 0.13335,-0.31115 0.02222,-0.06032 0.123825,-0.1016 0.08572,-0.0254 0.168275,-0.0508 0.07938,-0.04127 0.130175,-0.05715 v -0.01905 q -0.682625,-0.1016 -0.682625,-0.2032 v -0.168275 q -0.08255,-0.13335 -0.09525,-0.2032 0,-0.01587 0.0095,-0.02857 0.09525,0 0.250825,0.06667 0.1651,0.04128 0.4445,0.0508 0.10795,0.0032 0.889,0.0032 0.0889,0.02222 0.22225,0.07303 0.22225,0.155575 0.257175,0.18415 0.08572,0.06667 0.123825,0.13335 0.123825,0.130175 0.155575,0.17145 0.0762,0.1016 0.0762,0.17145 0,0.09842 -0.0381,0.212725 -0.01905,0.123825 -0.01905,0.371475 0,0.02222 0.0063,0.06668 0.0063,0.04127 0.0063,0.0635 -0.01587,0.0254 -0.01587,0.111125 0,0.09525 0.02222,0.276225 0,0.02223 0.01905,0.08573 0.01905,0.06032 0.01905,0.0889 z m -0.5461,-0.758825 q 0,-0.346075 -0.09843,-0.5207 -0.127,-0.2286 -0.441325,-0.2286 -0.161925,0 -0.250825,0.1905 -0.07303,0.149225 -0.07303,0.3302 0,0.434975 -0.123825,0.625475 -0.04445,0.06667 -0.04445,0.08255 0,0.0127 0.104775,0.0127 0.24765,0 0.2413,-0.0032 l 0.200025,0.02858 q 0.111125,0 0.117475,-0.0032 h -0.0063 q 0.06985,0.0063 0.104775,0.03493 0.149225,0.02857 0.180975,0.02857 0.0889,0 0.0889,-0.57785 z m -0.815975,-0.727075 -0.01587,-0.01588 q -0.08255,-0.0254 -0.111125,-0.0254 -0.05397,0 -0.1016,0.12065 -0.03175,0.08255 -0.0508,0.149225 -0.05397,0.193675 -0.05397,0.676275 -0.01588,0.0508 -0.390525,0.42545 v 0.0095 q 0.0064,0.01905 0.02223,0.01905 0.238125,0 0.38735,-0.219075 0.130175,-0.193675 0.130175,-0.441325 0,-0.3048 0.0063,-0.358775 0.0095,-0.0889 0.05715,-0.15875 z m 2.295523,-0.441325 q 0,0.03492 -0.04762,0.127 -0.05397,0.104775 -0.06985,0.1397 -0.0254,0.06667 -0.04127,0.155575 -0.0095,0.0635 -0.04445,0.0635 -0.0381,0 -0.1397,-0.05715 -0.09207,-0.01905 -0.09842,-0.02222 -0.0508,-0.01905 -0.0508,-0.05715 0.0032,-0.0095 0.0381,-0.07937 0.03493,-0.07303 0.08573,-0.219075 0.0508,-0.14605 0.08255,-0.2159 0.06667,0.0254 0.13335,0.04762 0.1524,0.06985 0.1524,0.117475 z m -0.01587,0.866775 -0.0032,0.05398 -0.01905,0.02857 q -0.0254,0.1524 -0.0254,0.18415 v 0.89535 q 0,0.02857 0.01905,0.104775 0.01905,0.0762 0.01905,0.10795 v 0.0381 l -0.0127,0.02222 h -0.04445 q -0.0508,0 -0.155575,-0.0095 -0.104775,-0.0095 -0.155575,-0.0095 -0.02223,0 -0.06668,0.0095 -0.04127,0.0095 -0.0635,0.0095 h -0.03175 q -0.02858,-0.0254 -0.02858,-0.05398 0,-0.0381 0.01905,-0.12065 0.01905,-0.08255 0.01905,-0.12065 0,-0.104775 0.0095,-0.31115 0.0095,-0.20955 0.0095,-0.314325 0,0.01588 0.0032,-0.13335 v -0.09525 q 0,-0.08573 -0.02857,-0.1143 -0.0254,-0.03175 -0.1143,-0.06032 -0.12065,-0.04127 -0.12065,-0.09842 0,-0.02223 0.05397,-0.0889 0.06668,-0.08255 0.09525,-0.13335 0.0762,-0.142875 0.1143,-0.142875 0.06033,0 0.180975,0.12065 0.1016,0.0381 0.206375,0.07937 0.127,0.0635 0.12065,0.1524 z m 1.419222,0.142875 q 0,0.0889 -0.1016,0.1524 -0.104775,0.111125 -0.381,0.390525 l -0.1397,0.136525 -0.0095,0.04763 q 0.155575,0.0762 0.200025,0.0889 0.05715,0.01588 0.06985,0.02222 0.142875,0.01588 0.193675,0.02858 0.08572,0.02222 0.08572,0.06985 0,0.06032 -0.09525,0.18415 -0.05715,0.07303 -0.13335,0.168275 -0.02222,0.0127 -0.05397,0.0127 -0.0381,0 -0.0889,-0.02858 -0.225425,-0.130175 -0.5842,-0.187325 -0.12065,-0.03492 -0.12065,-0.1143 v -0.0032 q 0.07303,-0.174625 0.07303,-0.62865 0,-0.136525 -0.0095,-0.263525 -0.0032,-0.03175 -0.01905,-0.1016 -0.01587,-0.07303 -0.01587,-0.111125 0,-0.0635 0.155575,-0.127 0.104775,-0.04128 0.212725,-0.07938 0.18415,-0.08255 0.307975,-0.180975 l 0.0127,-0.0032 q 0.06032,0 0.123825,0.1016 0.02223,0.04445 0.0635,0.130175 0.0127,0.02222 0.1524,0.123825 0.1016,0.07303 0.1016,0.17145 z m -0.333375,0.231775 q -0.02223,-0.06033 -0.123825,-0.174625 -0.1016,-0.117475 -0.155575,-0.136525 h -0.0095 q 0,0.05398 -0.0063,0.1651 -0.0032,0.111125 -0.0032,0.1651 v 0.1905 q 0,0.0381 0.0095,0.07302 0.0508,0 0.15875,-0.111125 0.10795,-0.1143 0.130175,-0.17145 z m 4.375151,0.6858 q 0,0.06032 -0.08573,0.09525 l -0.18415,0.0762 q -0.04762,0.04762 -0.14605,0.117475 l -0.09525,0.09525 -0.02222,0.0095 q -0.0762,0 -0.3302,-0.104775 -0.155575,-0.0635 -0.377825,-0.0762 l -0.130175,-0.02858 q -0.1143,-0.0254 -0.36195,-0.0254 -0.254,0 -0.377825,0.03175 -0.08572,0.02222 -0.23495,0.10795 -0.168275,0.168275 -0.219075,0.168275 -0.02222,0 -0.04762,-0.01905 -0.02223,-0.01905 -0.02223,-0.04127 0,-0.04445 0.3175,-0.282575 0.07303,-0.06667 0.212725,-0.231775 0,-0.0032 -0.0032,-0.0063 -0.127,0.06667 -0.1905,0.1143 -0.28575,0.161925 -0.454025,0.161925 h -0.0381 l -0.01905,-0.04445 q 0,-0.02222 0.0381,-0.0508 0.212725,-0.01588 0.365125,-0.136525 0.17145,-0.13335 0.17145,-0.339725 0,-0.130175 -0.07937,-0.2286 -0.07937,-0.1016 -0.206375,-0.1016 -0.0095,0 -0.05397,0.0063 h -0.02223 q -0.06667,0 -0.06667,-0.04127 0.104775,-0.130175 0.225425,-0.320675 0.0095,-0.03493 0.04445,-0.03493 0.0254,0 0.09525,0.07303 0.06985,0.06985 0.09208,0.06985 0.0254,0 0.13335,-0.31115 0.02223,-0.06032 0.123825,-0.1016 0.08573,-0.0254 0.168275,-0.0508 0.07937,-0.04127 0.130175,-0.05715 v -0.01905 q -0.682625,-0.1016 -0.682625,-0.2032 v -0.168275 q -0.08255,-0.13335 -0.09525,-0.2032 0,-0.01587 0.0095,-0.02857 0.09525,0 0.250825,0.06667 0.1651,0.04128 0.4445,0.0508 0.10795,0.0032 0.889,0.0032 0.0889,0.02222 0.22225,0.07303 0.22225,0.155575 0.257175,0.18415 0.08572,0.06667 0.123825,0.13335 0.123825,0.130175 0.155575,0.17145 0.0762,0.1016 0.0762,0.17145 0,0.09842 -0.0381,0.212725 -0.01905,0.123825 -0.01905,0.371475 0,0.02222 0.0063,0.06668 0.0063,0.04127 0.0063,0.0635 -0.01587,0.0254 -0.01587,0.111125 0,0.09525 0.02223,0.276225 0,0.02223 0.01905,0.08573 0.01905,0.06032 0.01905,0.0889 z m -0.5461,-0.758825 q 0,-0.346075 -0.09842,-0.5207 -0.127,-0.2286 -0.441325,-0.2286 -0.161925,0 -0.250825,0.1905 -0.07303,0.149225 -0.07303,0.3302 0,0.434975 -0.123825,0.625475 -0.04445,0.06667 -0.04445,0.08255 0,0.0127 0.104775,0.0127 0.24765,0 0.2413,-0.0032 l 0.200025,0.02858 q 0.111125,0 0.117475,-0.0032 h -0.0064 q 0.06985,0.0063 0.104775,0.03493 0.149225,0.02857 0.180975,0.02857 0.0889,0 0.0889,-0.57785 z m -0.815975,-0.727075 -0.01588,-0.01588 q -0.08255,-0.0254 -0.111125,-0.0254 -0.05398,0 -0.1016,0.12065 -0.03175,0.08255 -0.0508,0.149225 -0.05398,0.193675 -0.05398,0.676275 -0.01587,0.0508 -0.390525,0.42545 v 0.0095 q 0.0063,0.01905 0.02222,0.01905 0.238125,0 0.38735,-0.219075 0.130175,-0.193675 0.130175,-0.441325 0,-0.3048 0.0063,-0.358775 0.0095,-0.0889 0.05715,-0.15875 z m 2.701923,0.568325 q 0,0.0889 -0.1016,0.1524 -0.104775,0.111125 -0.381,0.390525 l -0.1397,0.136525 -0.0095,0.04763 q 0.155575,0.0762 0.200025,0.0889 0.05715,0.01588 0.06985,0.02222 0.142875,0.01588 0.193675,0.02858 0.08572,0.02222 0.08572,0.06985 0,0.06032 -0.09525,0.18415 -0.05715,0.07303 -0.13335,0.168275 -0.02222,0.0127 -0.05397,0.0127 -0.0381,0 -0.0889,-0.02858 -0.225425,-0.130175 -0.5842,-0.187325 -0.12065,-0.03492 -0.12065,-0.1143 v -0.0032 q 0.07303,-0.174625 0.07303,-0.62865 0,-0.136525 -0.0095,-0.263525 -0.0032,-0.03175 -0.01905,-0.1016 -0.01587,-0.07303 -0.01587,-0.111125 0,-0.0635 0.155575,-0.127 0.104775,-0.04128 0.212725,-0.07938 0.18415,-0.08255 0.307975,-0.180975 l 0.0127,-0.0032 q 0.06032,0 0.123825,0.1016 0.02223,0.04445 0.0635,0.130175 0.0127,0.02222 0.1524,0.123825 0.1016,0.07303 0.1016,0.17145 z m -0.333375,0.231775 q -0.02223,-0.06033 -0.123825,-0.174625 -0.1016,-0.117475 -0.155575,-0.136525 h -0.0095 q 0,0.05398 -0.0063,0.1651 -0.0032,0.111125 -0.0032,0.1651 v 0.1905 q 0,0.0381 0.0095,0.07302 0.0508,0 0.15875,-0.111125 0.10795,-0.1143 0.130175,-0.17145 z m 2.359024,0.70485 q 0,0.04445 -0.1524,0.231775 -0.03493,0.111125 -0.07303,0.1397 -0.0762,0 -0.13335,-0.04127 -0.111125,-0.07937 -0.1651,-0.104775 -0.1143,-0.0508 -0.15875,-0.123825 -0.0127,-0.01905 -0.05397,-0.136525 -0.0063,-0.01588 -0.0127,-0.02222 l -0.04763,0.04127 q -0.0063,0.0063 -0.149225,0.1905 l -0.14605,0.187325 q -0.0095,0.0095 -0.02858,0.0095 -0.06033,0 -0.2159,-0.111125 -0.06985,-0.03493 -0.327025,-0.12065 -0.02858,-0.0254 -0.02858,-0.0762 0,-0.03493 0.0381,-0.127 0.0381,-0.09525 0.0381,-0.130175 v -0.7239 q 0,-0.0381 -0.123825,-0.09525 -0.12065,-0.05715 -0.12065,-0.0889 0,-0.02858 0.01905,-0.05715 0.04762,-0.06985 0.1397,-0.212725 0.07937,-0.12065 0.10795,-0.12065 0.05715,0 0.15875,0.06985 l 0.1524,0.104775 q 0.0381,0.0254 0.142875,0.06985 0.0635,0.0254 0.0635,0.06032 0,0.04127 -0.01905,0.161925 l -0.01905,0.117475 q -0.02858,0.2413 -0.02858,0.384175 0,0.263525 0.0063,0.295275 0.02858,0.1016 0.1778,0.18415 h 0.03493 q 0.09843,-0.09842 0.180975,-0.22225 0.0254,-0.0508 0.0254,-0.3683 v -0.219075 q 0,-0.206375 -0.02857,-0.3683 0,-0.0032 -0.03175,-0.0762 -0.02223,-0.0508 -0.02223,-0.07302 0,-0.0254 0.01905,-0.0381 0.0508,0 0.1524,0.01905 0.1016,0.01905 0.1524,0.01905 0.09842,0 0.193675,-0.0095 0.04445,-0.02857 0.09525,-0.02857 l 0.01905,0.0095 v 0.0381 q 0,0.04763 -0.05715,0.231775 -0.0381,0.23495 -0.0381,0.8255 0,0.09842 0.0508,0.149225 0.03493,0.03493 0.142875,0.08255 0.06985,0.03175 0.06985,0.07303 z m 1.085848,-1.09855 q 0,0.04762 -0.06032,0.04762 -0.02223,0 -0.06668,-0.0063 -0.04445,-0.0063 -0.06668,-0.0063 h -0.05715 q -0.03175,0.04127 -0.03175,0.09842 0,0.04762 0.0063,0.142875 0.0063,0.09208 0.0063,0.1397 0,0.04445 -0.0032,0.250825 l -0.0063,0.250825 q 0.0127,0.02222 0.127,0.0762 0.117475,0.05398 0.13335,0.07937 0,0.04127 -0.09525,0.219075 -0.09207,0.174625 -0.117475,0.174625 -0.04445,0 -0.123825,-0.05398 -0.123825,-0.08572 -0.19685,-0.12065 -0.08255,-0.0381 -0.168275,-0.0762 -0.142875,-0.06985 -0.142875,-0.104775 0,-0.0127 0.02857,-0.1016 0.03175,-0.0889 0.0381,-0.09208 0.0381,-0.07303 0.0381,-0.193675 v -0.669925 l -0.01905,-0.01905 q -0.08255,0 -0.08572,0.0032 h 0.0032 q -0.05715,-0.0032 -0.06668,-0.06985 0.0032,0.0127 0.0032,-0.111125 0,-0.09207 0.0254,-0.10795 l 0.02858,-0.0032 q 0.0127,0 0.03492,0.0063 0.0254,0.0063 0.03493,0.0063 0.03175,0 0.04127,-0.0762 -0.0063,-0.02222 -0.0095,-0.03493 0,-0.06032 -0.0254,-0.168275 -0.02223,-0.10795 -0.02223,-0.136525 0,-0.04763 0.09207,-0.04763 h 0.231775 q 0.03493,0 0.1016,-0.0127 0.06668,-0.01587 0.1016,-0.01587 0.06667,0 0.06667,0.07302 0,0.04763 -0.0254,0.149225 -0.02223,0.1016 -0.02223,0.149225 0,0.06667 0.01905,0.12065 h 0.15875 q 0.0254,-0.01588 0.04445,-0.01905 0.03493,0.0032 0.04762,0.02858 z m 1.70815,0.42545 q 0,0.04445 -0.01587,0.130175 -0.01588,0.08573 -0.01588,0.127 v 0.231775 q 0,0.04445 0.0127,0.130175 0.01587,0.08572 0.01587,0.130175 0,0.0381 -0.06985,0.0635 -0.0508,0.01905 -0.07937,0.01905 -0.07937,0.0254 -0.225425,0.12065 -0.14605,0.09525 -0.22225,0.12065 h -0.0254 q -0.0381,0 -0.168275,-0.0381 -0.1524,-0.04445 -0.18415,-0.0508 -0.13335,-0.02222 -0.19685,-0.02222 -0.155575,0 -0.276225,0.04762 -0.07303,0 -0.07303,-0.04445 0,-0.0127 0.123825,-0.1778 0.127,-0.168275 0.149225,-0.180975 0.0254,-0.0127 0.20955,-0.0254 0.03493,-0.02858 0.111125,-0.14605 0.07937,-0.12065 0.09207,-0.1651 -0.0095,0 -0.04127,-0.0032 h -0.161925 q -0.2794,0 -0.333375,0.02858 h -0.0063 q -0.02858,-0.0064 -0.04127,-0.02858 0,-0.02857 0.0127,-0.08572 0.01588,-0.05715 0.01588,-0.08255 0.0095,-0.04762 0.0095,-0.27305 0,-0.04762 -0.01588,-0.14605 -0.0127,-0.09842 -0.0127,-0.14605 v -0.0381 q 0.0381,-0.0254 0.07937,-0.04445 l 0.441325,-0.19685 q 0.05715,-0.03175 0.08255,-0.05398 l 0.0508,-0.0032 q 0.05398,-0.0032 0.238125,0.06032 0.187325,0.0635 0.244475,0.0635 0.02222,0 0.0762,-0.0635 0.05715,-0.06667 0.08255,-0.06667 0.0381,0 0.04127,0.0095 v 0.0127 q 0,0.05398 -0.06668,0.168275 l -0.07303,0.123825 q -0.03175,0.0381 -0.142875,0.212725 -0.10795,0.174625 -0.10795,0.19685 v 0.0095 q 0.07937,0.01588 0.14605,0.01905 0.01905,0 0.1651,-0.0063 l 0.142875,-0.0032 0.0127,0.04762 z m -0.47625,-0.288925 -0.0095,-0.01905 q -0.0762,-0.02857 -0.2286,-0.08572 l -0.2286,-0.08573 q 0,0.04445 0.0095,0.136525 0.0127,0.09208 0.0127,0.136525 0,0.0032 -0.0063,0.05715 v 0.01905 q 0,0.02223 0.0032,0.03493 0.0254,0.02858 0.187325,0.02858 h 0.1016 q 0.09843,-0.06032 0.15875,-0.22225 z m -0.0095,0.587375 v -0.0032 q -0.0032,-0.01588 -0.01905,-0.02858 h -0.1651 q -0.0381,0.01588 -0.117475,0.130175 -0.07937,0.1143 -0.07937,0.155575 v 0.02858 l 0.01905,0.0095 q 0.0381,0.0032 0.180975,0.04445 l 0.1397,0.04127 0.03175,-0.0127 q 0,-0.06032 0.0032,-0.180975 0.0063,-0.123825 0.0063,-0.18415 z m 1.816101,-0.771525 q 0,0.0381 -0.09842,0.18415 -0.09843,0.14605 -0.127,0.14605 -0.0254,0 -0.161925,-0.10795 -0.13335,-0.10795 -0.1397,-0.10795 l -0.01905,0.0127 -0.0032,0.0762 q 0,0.03175 0.0063,0.09208 0.0063,0.06032 0.0063,0.08572 0,0.04763 -0.0063,0.142875 -0.0063,0.09208 -0.0063,0.1397 0,0.17145 0.0063,0.2032 0.0095,0.0508 0.06668,0.06667 0.06032,0.01588 0.18415,0.04763 0.14605,0.0381 0.219075,0.09208 v 0.07303 q 0,0.0095 -0.02858,0.04445 -0.02857,0.03493 -0.02857,0.0381 -0.111125,0.288925 -0.18415,0.288925 -0.02223,0 -0.111125,-0.0635 -0.327025,-0.1905 -0.612775,-0.2413 l -0.0381,-0.0381 -0.0032,-0.06667 q -0.0032,-0.04763 0.0254,-0.15875 0.02858,-0.1143 0.02858,-0.1524 0,-0.07937 0.0127,-0.104775 v -0.32385 q 0,-0.04445 -0.0254,-0.155575 -0.0254,-0.1016 -0.02223,-0.15875 l 0.0032,-0.05715 q 0.0254,-0.04127 0.0635,-0.06667 0.2794,-0.0762 0.479425,-0.238125 0.0635,-0.0508 0.10795,-0.0508 0.0254,0 0.09843,0.07937 0.0254,0.02857 0.0762,0.0889 0.231775,0.149225 0.231775,0.1905 z m 1.657351,0.05398 q -0.07303,0.130175 -0.07303,0.66675 v 0.587375 q 0,0.03175 0.0095,0.09208 0.0095,0.06032 0.0095,0.09208 0,0.07937 -0.127,0.149225 -0.10795,0.06033 -0.2286,0.130175 -0.0762,0.0381 -0.339725,0.127 -0.2794,0.09525 -0.327025,0.09525 -0.0508,0 -0.0508,-0.06032 l 0.0032,-0.03175 q 0.327025,-0.13335 0.422275,-0.2032 0.161925,-0.12065 0.161925,-0.33655 0,0.06985 -0.0064,-0.1016 -0.0032,-0.174625 -0.0032,-0.212725 v -0.04445 q 0,-0.09208 0.01905,-0.276225 0.01905,-0.18415 0.01905,-0.2794 0,-0.14605 -0.0095,-0.18415 -0.0254,-0.09525 -0.12065,-0.117475 -0.06985,-0.02857 -0.08572,-0.02857 h -0.0254 q -0.174625,0.2032 -0.180975,0.219075 -0.0127,0.03175 -0.0127,0.327025 v 0.327025 q 0.01905,0.03175 0.0508,0.04763 0.01588,0.0032 0.03175,0.0095 0.0508,0.04445 0.06668,0.05398 0.02858,0.01588 0.08255,0.01905 l 0.0095,0.04445 q -0.13335,0.22225 -0.1524,0.250825 -0.07303,0.104775 -0.117475,0.104775 -0.04445,0 -0.212725,-0.1397 l -0.1905,-0.1016 q -0.07937,-0.04445 -0.07937,-0.06985 0,-0.07303 0.02857,-0.22225 0.02858,-0.149225 0.02858,-0.22225 v -1.41605 q 0,-0.03175 -0.01587,-0.1016 -0.01588,-0.06985 -0.01588,-0.1016 0,-0.05715 0.08572,-0.09525 0.03493,0.01905 0.161925,0.01905 0.04445,0 0.130175,-0.0095 0.08572,-0.0095 0.130175,-0.0095 l 0.03175,0.0127 0.0095,0.03175 q 0,0.06985 -0.02858,0.20955 -0.0254,0.1397 -0.0254,0.20955 v 0.593725 q 0,0.02858 0.0127,0.03175 0.36195,-0.447675 0.3937,-0.447675 0.0254,0 0.08572,0.0381 0.20955,0.09208 0.4445,0.212725 z m 1.37795,0.155575 q 0,0.0889 -0.1016,0.1524 -0.104775,0.111125 -0.381,0.390525 l -0.1397,0.136525 -0.0095,0.04763 q 0.155575,0.0762 0.200025,0.0889 0.05715,0.01588 0.06985,0.02222 0.142875,0.01588 0.193675,0.02858 0.08573,0.02222 0.08573,0.06985 0,0.06032 -0.09525,0.18415 -0.05715,0.07303 -0.13335,0.168275 -0.02223,0.0127 -0.05398,0.0127 -0.0381,0 -0.0889,-0.02858 -0.225425,-0.130175 -0.5842,-0.187325 -0.12065,-0.03492 -0.12065,-0.1143 v -0.0032 q 0.07303,-0.174625 0.07303,-0.62865 0,-0.136525 -0.0095,-0.263525 -0.0032,-0.03175 -0.01905,-0.1016 -0.01588,-0.07303 -0.01588,-0.111125 0,-0.0635 0.155575,-0.127 0.104775,-0.04128 0.212725,-0.07938 0.18415,-0.08255 0.307975,-0.180975 l 0.0127,-0.0032 q 0.06033,0 0.123825,0.1016 0.02222,0.04445 0.0635,0.130175 0.0127,0.02222 0.1524,0.123825 0.1016,0.07303 0.1016,0.17145 z m -0.333375,0.231775 q -0.02222,-0.06033 -0.123825,-0.174625 -0.1016,-0.117475 -0.155575,-0.136525 h -0.0095 q 0,0.05398 -0.0064,0.1651 -0.0032,0.111125 -0.0032,0.1651 v 0.1905 q 0,0.0381 0.0095,0.07302 0.0508,0 0.15875,-0.111125 0.10795,-0.1143 0.130175,-0.17145 z m 4.076696,0.7366 q -0.0159,0.0381 -0.26035,0.13335 -0.2667,0.1905 -0.30162,0.1905 -0.0254,0 -0.30163,-0.09842 -0.27622,-0.09842 -0.42227,-0.09842 -0.0762,0 -0.0762,0.08255 0,0.0381 0.0159,0.13335 -0.01,0.0762 -0.01,0.15875 0,0.07303 0.0159,0.219075 0.0159,0.149225 0.0159,0.123825 0,0.05398 -0.0857,0.05398 -0.0476,0 -0.14287,-0.0095 -0.0921,-0.0095 -0.1397,-0.0095 h -0.0984 q -0.0476,0.01905 -0.0984,0.01905 -0.0508,0 -0.0508,-0.0508 0,-0.0127 0.01,-0.04128 0.01,-0.02857 0.01,-0.0381 0.0381,-0.269875 0.0381,-0.50165 v -0.0635 l -0.0254,-0.02858 q -0.0222,0 -0.0635,0.0095 -0.0413,0.0095 -0.0635,0.0095 -0.0127,0 -0.0476,-0.0127 -0.0318,-0.01588 -0.0445,-0.01588 -0.0286,0 -0.10795,0.02857 -0.0794,0.02858 -0.10477,0.02858 -0.0825,0 -0.0825,-0.0381 0,-0.02858 0.12065,-0.149225 0.1143,-0.10795 0.15875,-0.1397 l 0.15875,-0.08573 q 0.0762,-0.04445 0.0921,-0.08572 0,-0.250825 -0.0889,-0.4191 -0.11112,-0.2159 -0.33972,-0.2159 -0.0159,0 -0.0762,0.0095 l -0.0349,-0.0095 q -0.0159,-0.01587 -0.0159,-0.03175 0,-0.01905 0.13652,-0.1524 0.13653,-0.13335 0.14923,-0.161925 0.0413,-0.09842 0.0857,-0.09842 0.0762,0.07937 0.2032,0.1778 l 0.01,-0.02857 q 0,-0.327025 -0.13653,-0.4826 -0.13335,-0.155575 -0.457195,-0.168275 l -0.0095,-0.01588 q 0.0064,-0.06667 0.06985,-0.13335 0.0572,-0.0508 0.1143,-0.104775 0.16192,-0.1524 0.1905,-0.1524 0.4699,0.07302 0.6223,0.346075 0.073,0.130175 0.10795,0.155575 0.073,-0.03493 0.26987,-0.263525 0.18415,-0.212725 0.23495,-0.212725 0.019,0.0095 0.12065,0.0635 0.17463,0.09525 0.41593,0.17145 0.073,0.02222 0.22225,0.0635 0.0794,0.02222 0.0794,0.06985 v -0.0032 q -0.0159,0 -0.0572,0.250825 -0.0444,0.27305 -0.0444,0.46355 v 0.523875 q 0,0.06985 0.0254,0.20955 0.0254,0.1397 0.0254,0.12065 0,0.0381 0.0349,0.1397 0.0349,0.1016 0.0349,0.142875 z m -0.62865,-0.2794 q 0,-0.0508 -0.0191,-0.307975 l -0.019,-0.257175 q 0.0286,-0.180975 0.0286,-0.2921 v -0.377825 l -0.019,-0.04445 q -0.0444,-0.0508 -0.23178,-0.130175 -0.21907,-0.09208 -0.2286,-0.09208 -0.0318,0 -0.13017,0.09208 -0.0984,0.09207 -0.0984,0.123825 0,0.04763 0.006,0.149225 0.006,0.09842 0.006,0.14605 0,0.05397 -0.006,0.2921 l -0.006,0.295275 v 0.31115 q 0.019,0.01905 0.0444,0.0254 0.01,0 0.26353,0.0254 0.22225,0.02223 0.28575,0.02223 0.006,0 0.0476,0.01905 0.0413,0.01905 0.0571,0.01905 z m 2.11138,-0.790575 q 0,0.0508 -0.0318,0.07303 -0.17145,0.371475 -0.2159,0.371475 -0.0222,0 -0.0317,-0.0095 -0.0191,-0.02858 -0.0667,-0.174625 -0.0381,-0.111125 -0.1016,-0.149225 -0.12383,0.04127 -0.12383,0.36195 0,0.03493 0.0127,0.05715 -0.006,0.07937 -0.006,0.12065 v 0.04127 q 0,0.111125 0.0349,0.1905 0.17145,0.05398 0.40005,0.09843 0.073,0.01587 0.073,0.05715 -0.0381,0.07302 -0.11747,0.2159 -0.0984,0.1651 -0.1651,0.1651 -0.0699,-0.0254 -0.30798,-0.1143 -0.0921,-0.03493 -0.41275,-0.09525 -0.0635,-0.0127 -0.0635,-0.06033 0,-0.0381 0.0413,-0.1651 0.0445,-0.130175 0.0445,-0.1905 v -0.37465 q 0,-0.0635 -0.0191,-0.136525 -0.006,-0.06032 -0.01,-0.12065 -0.006,-0.04445 -0.0952,-0.1143 -0.0413,-0.0032 -0.11112,-0.0095 l -0.019,-0.0095 q 0,-0.136525 0.0635,-0.200025 0.019,-0.0381 0.10477,-0.1778 0.0444,-0.0762 0.073,-0.0889 l 0.0191,0.0032 q 0.12382,0.0889 0.25717,0.161925 0.0984,0.05398 0.12065,0.07937 0.0318,0.03493 0.0476,0.130175 0.019,0.09208 0.0476,0.12065 0.0349,-0.0254 0.14923,-0.269875 0.10477,-0.225425 0.1524,-0.225425 0.0476,0 0.10477,0.168275 0.0381,0.02857 0.0952,0.130175 0.0572,0.09842 0.0572,0.1397 z m 1.68275,-0.07937 q 0,0.04445 -0.0381,0.10795 -0.019,0.142875 -0.019,0.352425 v 0.320675 q 0,0.1651 0.01,0.20955 0,0.02222 0.0127,0.07303 0.0159,0.0508 0.0159,0.0762 l -0.0286,0.04445 q -0.18097,0.06032 -0.2286,0.08255 -0.0889,0.04128 -0.20002,0.111125 -0.18098,0.117475 -0.23813,0.142875 l -0.27305,-0.127 q -0.27305,-0.127 -0.35877,-0.127 -0.0699,0 -0.0984,-0.03492 -0.01,-0.05398 -0.01,-0.09525 0,-0.0254 0.019,-0.08573 0.0191,-0.06032 0.0191,-0.07937 0.01,-0.09525 0.01,-0.447675 0,-0.0508 -0.019,-0.149225 -0.0159,-0.1016 -0.0159,-0.1524 0,-0.0254 -0.0159,-0.07938 -0.0159,-0.05715 -0.0159,-0.07937 0,-0.1397 0.16827,-0.1397 0.30798,-0.12065 0.38418,-0.17145 0.0444,-0.03175 0.13652,-0.09525 0.0254,-0.0127 0.0381,-0.0127 0.0381,0 0.10478,0.04445 l 0.0762,0.0508 q 0.0413,0.01588 0.19367,0.07937 0.0889,0.0381 0.29528,0.0889 0.0762,0.01905 0.0762,0.09208 z m -0.51753,1.0922 v -0.0032 q 0,-0.403225 -0.0191,-0.86995 -0.019,-0.0254 -0.38417,-0.2032 h -0.0159 q -0.01,0.06032 -0.01,0.1143 v 0.257175 q 0,0.0508 0.006,0.2667 l 0.003,0.269875 q 0.0286,0.0381 0.0921,0.06033 0.0222,0.0063 0.16192,0.06985 0.12383,0.05715 0.1397,0.05715 z m 2.4257,0.4445 q 0,0.01905 -0.006,0.0381 -0.0825,0.09843 -0.24765,0.295275 -0.14605,0.168275 -0.2159,0.168275 -0.0286,0 -0.1524,-0.02222 -0.12065,-0.02223 -0.13652,-0.03175 -0.0381,0 -0.11748,-0.0063 -0.0794,-0.0032 -0.12065,-0.0032 -0.18732,0 -0.3937,0.03493 -0.0159,0 -0.0667,0.01905 -0.0476,0.01905 -0.073,0.01905 -0.0825,0 -0.0825,-0.04127 0,-0.0381 0.0825,-0.180975 0.073,-0.130175 0.11113,-0.1778 l 0.019,-0.0095 q 0.12382,-0.0127 0.14605,-0.04127 l 0.0953,-0.123825 q 0,-0.07303 -0.46038,-0.238125 -0.0127,-0.0127 -0.0127,-0.05398 0,-0.02858 0.0286,-0.09842 0.0286,-0.07303 0.0286,-0.104775 v -0.663575 q 0,-0.04445 -0.0254,-0.136525 -0.0254,-0.09525 -0.0254,-0.1397 0,-0.05398 0.19368,-0.13335 0.0794,-0.02858 0.23495,-0.09208 0.29527,-0.187325 0.33655,-0.187325 0.0381,0 0.14287,0.06985 0.11748,0.08255 0.15875,0.09525 0.0794,0.02857 0.10478,0.06032 h 0.073 q 0.003,-0.0032 0.0349,-0.111125 0.0349,-0.111125 0.0603,-0.12065 0.0254,0.0095 0.1143,0.07937 0.0921,0.06985 0.11748,0.09525 l 0.01,0.04763 q 0,0.02857 -0.12065,0.174625 -0.0476,0.111125 -0.0476,0.5334 0,0.09208 0.006,0.276225 0.01,0.18415 0.01,0.276225 0.0444,0.123825 0.0476,0.193675 0.0191,0.03493 0.0984,0.149225 0.0508,0.07303 0.0508,0.09207 z m -0.67627,-0.695325 v -0.555625 q 0,-0.07303 -0.17145,-0.1778 -0.0318,-0.01905 -0.24765,-0.127 l -0.0127,-0.0032 q -0.0222,0 -0.0222,0.02857 0,0.02222 0.01,0.0635 0.01,0.0381 0.01,0.05715 0.01,0.1905 0.01,0.365125 v 0.117475 q 0,0.05715 -0.006,0.1778 -0.006,0.117475 -0.006,0.174625 0,0.01905 0.22542,0.149225 0.0603,-0.01588 0.2032,-0.22225 z m 0.23177,0.8255 q -0.006,-0.0127 -0.1397,-0.2286 -0.0794,-0.127 -0.0825,-0.307975 l -0.0191,-0.0127 q -0.0127,0.0032 -0.0476,0.0032 -0.0667,0.06667 -0.20638,0.231775 -0.16192,0.1905 -0.17462,0.231775 l 0.01,0.01905 h 0.0508 l 0.48895,0.04445 0.0286,0.01905 z m 1.93357,-1.5875 q 0,0.0508 -0.0318,0.07303 -0.17145,0.371475 -0.2159,0.371475 -0.0222,0 -0.0318,-0.0095 -0.0191,-0.02858 -0.0667,-0.174625 -0.0381,-0.111125 -0.1016,-0.149225 -0.12383,0.04127 -0.12383,0.36195 0,0.03493 0.0127,0.05715 -0.006,0.07937 -0.006,0.12065 v 0.04127 q 0,0.111125 0.0349,0.1905 0.17145,0.05398 0.40005,0.09843 0.073,0.01587 0.073,0.05715 -0.0381,0.07302 -0.11747,0.2159 -0.0984,0.1651 -0.1651,0.1651 -0.0699,-0.0254 -0.30798,-0.1143 -0.0921,-0.03493 -0.41275,-0.09525 -0.0635,-0.0127 -0.0635,-0.06033 0,-0.0381 0.0413,-0.1651 0.0444,-0.130175 0.0444,-0.1905 v -0.37465 q 0,-0.0635 -0.0191,-0.136525 -0.006,-0.06032 -0.01,-0.12065 -0.006,-0.04445 -0.0952,-0.1143 -0.0413,-0.0032 -0.11112,-0.0095 l -0.0191,-0.0095 q 0,-0.136525 0.0635,-0.200025 0.019,-0.0381 0.10477,-0.1778 0.0444,-0.0762 0.073,-0.0889 l 0.019,0.0032 q 0.12382,0.0889 0.25717,0.161925 0.0984,0.05398 0.12065,0.07937 0.0318,0.03493 0.0476,0.130175 0.0191,0.09208 0.0476,0.12065 0.0349,-0.0254 0.14923,-0.269875 0.10477,-0.225425 0.1524,-0.225425 0.0476,0 0.10477,0.168275 0.0381,0.02857 0.0953,0.130175 0.0571,0.09842 0.0571,0.1397 z m 1.76848,1.057275 q 0,0.0254 -0.1143,0.187325 -0.11113,0.15875 -0.13335,0.15875 -0.0508,0 -0.2159,-0.10795 -0.16193,-0.10795 -0.19368,-0.155575 -0.0127,-0.01905 -0.0317,-0.0889 -0.0159,-0.05398 -0.0349,-0.05398 l -0.0159,0.0032 q -0.26987,0.26035 -0.381,0.40005 l -0.0444,0.0032 q -0.0571,0.0032 -0.21272,-0.12065 -0.15558,-0.123825 -0.18415,-0.187325 -0.0381,-0.06985 -0.0318,-0.219075 0.006,-0.15875 0.0127,-0.276225 0.006,-0.09843 0.006,-0.07938 0.0127,-0.04127 0.17145,-0.0762 0.16192,-0.03492 0.16192,-0.05715 0,-0.01905 -0.10477,-0.1397 -0.1143,-0.123825 -0.12383,-0.1524 l -0.003,-0.0127 q 0,-0.0254 0.23177,-0.238125 v -0.0063 q 0,-0.0095 0.0349,-0.03175 0.019,-0.0127 0.127,-0.123825 0.0857,-0.0889 0.127,-0.0889 0.0413,0 0.0794,0.01905 0.3556,0.18415 0.4318,0.20955 0.0254,0.0095 0.14288,0.01905 0.13335,0.02857 0.13335,0.0889 0,0.0508 -0.0349,0.168275 -0.0317,0.1143 -0.0317,0.1651 v 0.508 q 0.0222,0.0254 0.0222,0.0635 0.003,0.0381 0.0191,0.06032 0.0286,0.03493 0.11747,0.0762 0.073,0.03175 0.073,0.08573 z m -0.68263,-0.644525 -0.003,-0.17145 q 0,-0.06985 -0.2286,-0.168275 -0.20638,-0.09208 -0.29845,-0.09208 -0.0762,0 -0.0762,0.06668 0,0.0762 0.1016,0.1778 0.003,0.0063 0.20637,0.20955 0.0286,0.0063 0.12383,0.0762 0.0857,0.0635 0.13652,0.0635 l 0.0127,-0.0032 q 0.0254,-0.10795 0.0254,-0.15875 z m -0.0127,0.320675 q 0,-0.04763 -0.1016,-0.09525 -0.0762,-0.04128 -0.14922,-0.08255 -0.11748,-0.06667 -0.14923,-0.06667 -0.0444,0.01905 -0.0444,0.17145 v 0.06667 q 0,0.111125 0.0381,0.19685 0.0508,0.1143 0.14605,0.1143 0.0635,0 0.16193,-0.117475 0.0984,-0.12065 0.0984,-0.187325 z m 3.58458,0.37465 q 0,0.03493 -0.0222,0.06668 l -0.11748,0.15875 q -0.0984,0.13335 -0.12065,0.13335 -0.0254,0 -0.2032,-0.12065 -0.17462,-0.12065 -0.19367,-0.149225 -0.0572,-0.07937 -0.0572,-0.27305 0,-0.04763 0.006,-0.244475 l 0.003,-0.2413 q 0,-0.19685 -0.0159,-0.254 -0.0381,-0.127 -0.18415,-0.127 l -0.0317,0.0095 q -0.1524,0.200025 -0.16193,0.219075 -0.0159,0.0381 -0.0159,0.254 0,0.0381 0.003,0.117475 0.006,0.07937 0.006,0.117475 0,0.03175 -0.01,0.09525 -0.006,0.0635 -0.006,0.09525 0,0.0889 0.0159,0.231775 0,0.0127 0.0191,0.06985 0.019,0.05715 0.019,0.07937 0,0.05715 -0.0635,0.05715 -0.0508,0 -0.1524,-0.0064 -0.0984,-0.0063 -0.14922,-0.0063 h -0.15875 q -0.0317,0.0032 -0.0413,0.0032 l -0.01,-0.01588 q 0.0572,-0.40005 0.0572,-0.676275 v -0.381 q -0.006,-0.09525 -0.0635,-0.1778 -0.0572,-0.08573 -0.14923,-0.08573 -0.0318,0.0095 -0.1143,0.111125 -0.0825,0.09842 -0.0825,0.130175 v 0.4826 q 0,0.0127 -0.006,0.0381 -0.003,0.0254 -0.003,0.0381 0,0.2286 0.019,0.339725 0,0.01588 0.0191,0.06667 0.019,0.0508 0.019,0.0762 l -0.019,0.05398 h -0.0572 q -0.0476,0 -0.1397,-0.0095 -0.0889,-0.0095 -0.13653,-0.0095 -0.0286,0 -0.0889,0.01588 -0.0603,0.0127 -0.0889,0.0127 -0.0476,0 -0.0571,-0.04763 0.0667,-0.200025 0.0667,-0.6985 v -0.257175 q 0,-0.01588 -0.01,-0.04762 -0.006,-0.03175 -0.006,-0.04763 0,-0.10795 -0.0159,-0.142875 -0.0222,-0.0508 -0.0921,-0.07303 -0.127,-0.04127 -0.127,-0.09525 0,-0.0381 0.13018,-0.206375 l 0.0476,-0.104775 q 0.0286,-0.0635 0.0825,-0.0635 0.003,0 0.15875,0.08573 0.15558,0.08572 0.17463,0.1016 0.0921,0.08572 0.1143,0.1397 0,0.0064 0.01,0.08573 l 0.0349,0.01588 q 0.16192,-0.17145 0.22225,-0.26035 0.0349,-0.0508 0.12065,-0.1651 l 0.01,-0.0032 q 0.0127,0 0.18098,0.10795 0.17145,0.104775 0.19685,0.10795 l 0.0857,0.08255 q 0.0127,0.06985 0.0508,0.149225 h 0.003 q 0.0413,-0.01905 0.20955,-0.238125 0.0508,-0.06985 0.1524,-0.206375 l 0.0159,-0.0032 q 0.0159,0 0.0921,0.04445 0.17145,0.09843 0.35877,0.17145 0.12065,0.04445 0.12065,0.09208 0,0.03493 -0.0444,0.155575 -0.0413,0.12065 -0.0413,0.168275 v 0.5842 q 0,0.0889 0.0444,0.127 0.0191,0.01905 0.127,0.06985 0.0603,0.02858 0.0603,0.0762 z m 2.90195,0 q 0,0.03493 -0.0222,0.06668 l -0.11747,0.15875 q -0.0984,0.13335 -0.12065,0.13335 -0.0254,0 -0.2032,-0.12065 -0.17463,-0.12065 -0.19368,-0.149225 -0.0571,-0.07937 -0.0571,-0.27305 0,-0.04763 0.006,-0.244475 l 0.003,-0.2413 q 0,-0.19685 -0.0159,-0.254 -0.0381,-0.127 -0.18415,-0.127 l -0.0318,0.0095 q -0.1524,0.200025 -0.16192,0.219075 -0.0159,0.0381 -0.0159,0.254 0,0.0381 0.003,0.117475 0.006,0.07937 0.006,0.117475 0,0.03175 -0.01,0.09525 -0.006,0.0635 -0.006,0.09525 0,0.0889 0.0159,0.231775 0,0.0127 0.0191,0.06985 0.019,0.05715 0.019,0.07937 0,0.05715 -0.0635,0.05715 -0.0508,0 -0.1524,-0.0064 -0.0984,-0.0063 -0.14923,-0.0063 h -0.15875 q -0.0318,0.0032 -0.0413,0.0032 l -0.01,-0.01588 q 0.0572,-0.40005 0.0572,-0.676275 v -0.381 q -0.006,-0.09525 -0.0635,-0.1778 -0.0571,-0.08573 -0.14922,-0.08573 -0.0318,0.0095 -0.1143,0.111125 -0.0825,0.09842 -0.0825,0.130175 v 0.4826 q 0,0.0127 -0.006,0.0381 -0.003,0.0254 -0.003,0.0381 0,0.2286 0.019,0.339725 0,0.01588 0.0191,0.06667 0.019,0.0508 0.019,0.0762 l -0.019,0.05398 h -0.0572 q -0.0476,0 -0.1397,-0.0095 -0.0889,-0.0095 -0.13652,-0.0095 -0.0286,0 -0.0889,0.01588 -0.0603,0.0127 -0.0889,0.0127 -0.0476,0 -0.0571,-0.04763 0.0667,-0.200025 0.0667,-0.6985 v -0.257175 q 0,-0.01588 -0.01,-0.04762 -0.006,-0.03175 -0.006,-0.04763 0,-0.10795 -0.0159,-0.142875 -0.0222,-0.0508 -0.0921,-0.07303 -0.127,-0.04127 -0.127,-0.09525 0,-0.0381 0.13017,-0.206375 l 0.0476,-0.104775 q 0.0286,-0.0635 0.0825,-0.0635 0.003,0 0.15875,0.08573 0.15557,0.08572 0.17462,0.1016 0.0921,0.08572 0.1143,0.1397 0,0.0064 0.01,0.08573 l 0.0349,0.01588 q 0.16193,-0.17145 0.22225,-0.26035 0.0349,-0.0508 0.12065,-0.1651 l 0.01,-0.0032 q 0.0127,0 0.18097,0.10795 0.17145,0.104775 0.19685,0.10795 l 0.0857,0.08255 q 0.0127,0.06985 0.0508,0.149225 h 0.003 q 0.0413,-0.01905 0.20955,-0.238125 0.0508,-0.06985 0.1524,-0.206375 l 0.0159,-0.0032 q 0.0159,0 0.0921,0.04445 0.17145,0.09843 0.35878,0.17145 0.12065,0.04445 0.12065,0.09208 0,0.03493 -0.0444,0.155575 -0.0413,0.12065 -0.0413,0.168275 v 0.5842 q 0,0.0889 0.0444,0.127 0.0191,0.01905 0.127,0.06985 0.0603,0.02858 0.0603,0.0762 z m 0.93027,-2.016125 q 0,0.03492 -0.0476,0.127 -0.054,0.104775 -0.0698,0.1397 -0.0254,0.06667 -0.0413,0.155575 -0.01,0.0635 -0.0445,0.0635 -0.0381,0 -0.1397,-0.05715 -0.0921,-0.01905 -0.0984,-0.02222 -0.0508,-0.01905 -0.0508,-0.05715 0.003,-0.0095 0.0381,-0.07937 0.0349,-0.07303 0.0857,-0.219075 0.0508,-0.14605 0.0825,-0.2159 0.0667,0.0254 0.13335,0.04762 0.1524,0.06985 0.1524,0.117475 z m -0.0159,0.866775 -0.003,0.05398 -0.019,0.02857 q -0.0254,0.1524 -0.0254,0.18415 v 0.89535 q 0,0.02857 0.0191,0.104775 0.019,0.0762 0.019,0.10795 v 0.0381 l -0.0127,0.02222 h -0.0444 q -0.0508,0 -0.15557,-0.0095 -0.10478,-0.0095 -0.15558,-0.0095 -0.0222,0 -0.0667,0.0095 -0.0413,0.0095 -0.0635,0.0095 h -0.0318 q -0.0286,-0.0254 -0.0286,-0.05398 0,-0.0381 0.0191,-0.12065 0.019,-0.08255 0.019,-0.12065 0,-0.104775 0.01,-0.31115 0.01,-0.20955 0.01,-0.314325 0,0.01588 0.003,-0.13335 v -0.09525 q 0,-0.08573 -0.0286,-0.1143 -0.0254,-0.03175 -0.1143,-0.06032 -0.12065,-0.04127 -0.12065,-0.09842 0,-0.02223 0.054,-0.0889 0.0667,-0.08255 0.0953,-0.13335 0.0762,-0.142875 0.1143,-0.142875 0.0603,0 0.18097,0.12065 0.1016,0.0381 0.20638,0.07937 0.127,0.0635 0.12065,0.1524 z m 1.41922,0.142875 q 0,0.0889 -0.1016,0.1524 -0.10478,0.111125 -0.381,0.390525 l -0.1397,0.136525 -0.01,0.04763 q 0.15558,0.0762 0.20003,0.0889 0.0572,0.01588 0.0699,0.02222 0.14287,0.01588 0.19367,0.02858 0.0857,0.02222 0.0857,0.06985 0,0.06032 -0.0952,0.18415 -0.0572,0.07303 -0.13335,0.168275 -0.0222,0.0127 -0.054,0.0127 -0.0381,0 -0.0889,-0.02858 -0.22542,-0.130175 -0.5842,-0.187325 -0.12065,-0.03492 -0.12065,-0.1143 v -0.0032 q 0.073,-0.174625 0.073,-0.62865 0,-0.136525 -0.01,-0.263525 -0.003,-0.03175 -0.0191,-0.1016 -0.0159,-0.07303 -0.0159,-0.111125 0,-0.0635 0.15557,-0.127 0.10478,-0.04128 0.21273,-0.07938 0.18415,-0.08255 0.30797,-0.180975 l 0.0127,-0.0032 q 0.0603,0 0.12383,0.1016 0.0222,0.04445 0.0635,0.130175 0.0127,0.02222 0.1524,0.123825 0.1016,0.07303 0.1016,0.17145 z m -0.33338,0.231775 q -0.0222,-0.06033 -0.12382,-0.174625 -0.1016,-0.117475 -0.15558,-0.136525 h -0.01 q 0,0.05398 -0.006,0.1651 -0.003,0.111125 -0.003,0.1651 v 0.1905 q 0,0.0381 0.01,0.07302 0.0508,0 0.15875,-0.111125 0.10795,-0.1143 0.13017,-0.17145 z m 1.78118,-0.333375 q 0,0.0508 -0.0317,0.07303 -0.17145,0.371475 -0.2159,0.371475 -0.0222,0 -0.0318,-0.0095 -0.019,-0.02858 -0.0667,-0.174625 -0.0381,-0.111125 -0.1016,-0.149225 -0.12382,0.04127 -0.12382,0.36195 0,0.03493 0.0127,0.05715 -0.006,0.07937 -0.006,0.12065 v 0.04127 q 0,0.111125 0.0349,0.1905 0.17145,0.05398 0.40005,0.09843 0.073,0.01587 0.073,0.05715 -0.0381,0.07302 -0.11748,0.2159 -0.0984,0.1651 -0.1651,0.1651 -0.0699,-0.0254 -0.30797,-0.1143 -0.0921,-0.03493 -0.41275,-0.09525 -0.0635,-0.0127 -0.0635,-0.06033 0,-0.0381 0.0413,-0.1651 0.0444,-0.130175 0.0444,-0.1905 v -0.37465 q 0,-0.0635 -0.019,-0.136525 -0.006,-0.06032 -0.01,-0.12065 -0.006,-0.04445 -0.0953,-0.1143 -0.0413,-0.0032 -0.11113,-0.0095 l -0.019,-0.0095 q 0,-0.136525 0.0635,-0.200025 0.0191,-0.0381 0.10478,-0.1778 0.0444,-0.0762 0.073,-0.0889 l 0.0191,0.0032 q 0.12383,0.0889 0.25718,0.161925 0.0984,0.05398 0.12065,0.07937 0.0318,0.03493 0.0476,0.130175 0.019,0.09208 0.0476,0.12065 0.0349,-0.0254 0.14922,-0.269875 0.10478,-0.225425 0.1524,-0.225425 0.0476,0 0.10478,0.168275 0.0381,0.02857 0.0953,0.130175 0.0571,0.09842 0.0571,0.1397 z m 1.71767,0.365125 q 0,0.04445 -0.0159,0.130175 -0.0159,0.08573 -0.0159,0.127 v 0.231775 q 0,0.04445 0.0127,0.130175 0.0159,0.08572 0.0159,0.130175 0,0.0381 -0.0698,0.0635 -0.0508,0.01905 -0.0794,0.01905 -0.0794,0.0254 -0.22542,0.12065 -0.14605,0.09525 -0.22225,0.12065 h -0.0254 q -0.0381,0 -0.16828,-0.0381 -0.1524,-0.04445 -0.18415,-0.0508 -0.13335,-0.02222 -0.19685,-0.02222 -0.15557,0 -0.27622,0.04762 -0.073,0 -0.073,-0.04445 0,-0.0127 0.12383,-0.1778 0.127,-0.168275 0.14922,-0.180975 0.0254,-0.0127 0.20955,-0.0254 0.0349,-0.02858 0.11113,-0.14605 0.0794,-0.12065 0.0921,-0.1651 -0.01,0 -0.0413,-0.0032 h -0.16193 q -0.2794,0 -0.33337,0.02858 h -0.006 q -0.0286,-0.0064 -0.0413,-0.02858 0,-0.02857 0.0127,-0.08572 0.0159,-0.05715 0.0159,-0.08255 0.01,-0.04762 0.01,-0.27305 0,-0.04762 -0.0159,-0.14605 -0.0127,-0.09842 -0.0127,-0.14605 v -0.0381 q 0.0381,-0.0254 0.0794,-0.04445 l 0.44133,-0.19685 q 0.0572,-0.03175 0.0825,-0.05398 l 0.0508,-0.0032 q 0.054,-0.0032 0.23812,0.06032 0.18733,0.0635 0.24448,0.0635 0.0222,0 0.0762,-0.0635 0.0572,-0.06667 0.0825,-0.06667 0.0381,0 0.0413,0.0095 v 0.0127 q 0,0.05398 -0.0667,0.168275 l -0.073,0.123825 q -0.0318,0.0381 -0.14287,0.212725 -0.10795,0.174625 -0.10795,0.19685 v 0.0095 q 0.0794,0.01588 0.14605,0.01905 0.0191,0 0.1651,-0.0063 l 0.14287,-0.0032 0.0127,0.04762 z m -0.47625,-0.288925 -0.01,-0.01905 q -0.0762,-0.02857 -0.2286,-0.08572 l -0.2286,-0.08573 q 0,0.04445 0.01,0.136525 0.0127,0.09208 0.0127,0.136525 0,0.0032 -0.006,0.05715 v 0.01905 q 0,0.02223 0.003,0.03493 0.0254,0.02858 0.18732,0.02858 h 0.1016 q 0.0984,-0.06032 0.15875,-0.22225 z m -0.01,0.587375 v -0.0032 q -0.003,-0.01588 -0.0191,-0.02858 h -0.1651 q -0.0381,0.01588 -0.11748,0.130175 -0.0794,0.1143 -0.0794,0.155575 v 0.02858 l 0.019,0.0095 q 0.0381,0.0032 0.18097,0.04445 l 0.1397,0.04127 0.0318,-0.0127 q 0,-0.06032 0.003,-0.180975 0.006,-0.123825 0.006,-0.18415 z m 2.39395,-0.71755 q 0,0.2921 -0.0191,0.52705 l -0.0286,0.352425 q -0.003,0.03175 0.003,0.09208 0.01,0.06032 0.01,0.08573 0,0.0762 -0.0127,0.0889 -0.0127,0.0127 -0.23495,0.1397 -0.0984,0.06032 -0.3302,0.187325 h -0.006 q -0.019,0 -0.13335,-0.06985 -0.1143,-0.06985 -0.1397,-0.06985 l -0.0159,0.01905 v 0.10795 q 0,0.05398 0.01,0.15875 0.01,0.10795 0.01,0.161925 v 0.04445 q -0.0254,0.0063 -0.254,0.08255 -0.2286,0.0762 -0.23495,0.0762 -0.0508,0 -0.0508,-0.08255 0,-0.0889 0.0191,-0.2667 0.019,-0.1778 0.019,-0.2667 0,-0.10795 -0.006,-0.123825 -0.0159,-0.04128 -0.1016,-0.04128 -0.0127,0 -0.0413,0.0064 -0.0254,0.0063 -0.0381,0.0063 -0.073,0 -0.073,-0.09525 0,-0.04762 0.0508,-0.17145 0.054,-0.127 0.0889,-0.149225 h 0.1016 l 0.019,-0.02222 q -0.006,-0.04445 -0.006,-0.0635 0,-0.04445 0.0159,-0.0762 v -0.26035 q 0,-0.168275 -0.019,-0.20955 -0.0286,-0.06032 -0.14922,-0.09525 -0.0921,-0.02857 -0.0921,-0.0762 0,-0.02222 0.12383,-0.19685 0.127,-0.1778 0.14922,-0.18415 0.0508,0.01588 0.24448,0.142875 0.19367,0.127 0.19685,0.155575 0.006,0.05715 0.0127,0.117475 l 0.0127,0.0063 q 0.0159,0 0.1905,-0.20955 0.17462,-0.212725 0.18732,-0.212725 l 0.0318,0.0032 q 0.0254,0.0381 0.16828,0.09525 0.14605,0.05398 0.1651,0.07303 0.11112,0.0063 0.1397,0.05398 0.0191,0.03175 0.0191,0.15875 z m -0.4826,0.225425 q 0,-0.08255 -0.0699,-0.130175 -0.0699,-0.0508 -0.1524,-0.0508 -0.0508,0 -0.2032,0.2159 -0.01,0.0508 -0.01,0.104775 v 0.466725 q 0,0.0063 -0.003,0.01588 v 0.0127 q 0,0.02223 0.20637,0.111125 0.17463,0.0762 0.1905,0.0762 l 0.0222,-0.0095 q 0,-0.358775 0.01,-0.771525 0.01,-0.01905 0.01,-0.04127 z m 2.00342,-0.17145 q 0,0.0508 -0.0317,0.07303 -0.17145,0.371475 -0.2159,0.371475 -0.0222,0 -0.0318,-0.0095 -0.019,-0.02858 -0.0667,-0.174625 -0.0381,-0.111125 -0.1016,-0.149225 -0.12383,0.04127 -0.12383,0.36195 0,0.03493 0.0127,0.05715 -0.006,0.07937 -0.006,0.12065 v 0.04127 q 0,0.111125 0.0349,0.1905 0.17145,0.05398 0.40005,0.09843 0.073,0.01587 0.073,0.05715 -0.0381,0.07302 -0.11747,0.2159 -0.0984,0.1651 -0.1651,0.1651 -0.0698,-0.0254 -0.30798,-0.1143 -0.0921,-0.03493 -0.41275,-0.09525 -0.0635,-0.0127 -0.0635,-0.06033 0,-0.0381 0.0413,-0.1651 0.0444,-0.130175 0.0444,-0.1905 v -0.37465 q 0,-0.0635 -0.019,-0.136525 -0.006,-0.06032 -0.01,-0.12065 -0.006,-0.04445 -0.0953,-0.1143 -0.0413,-0.0032 -0.11112,-0.0095 l -0.0191,-0.0095 q 0,-0.136525 0.0635,-0.200025 0.0191,-0.0381 0.10477,-0.1778 0.0444,-0.0762 0.073,-0.0889 l 0.019,0.0032 q 0.12382,0.0889 0.25717,0.161925 0.0984,0.05398 0.12065,0.07937 0.0318,0.03493 0.0476,0.130175 0.0191,0.09208 0.0476,0.12065 0.0349,-0.0254 0.14923,-0.269875 0.10477,-0.225425 0.1524,-0.225425 0.0476,0 0.10477,0.168275 0.0381,0.02857 0.0953,0.130175 0.0571,0.09842 0.0571,0.1397 z m 1.76848,1.057275 q 0,0.0254 -0.1143,0.187325 -0.11113,0.15875 -0.13335,0.15875 -0.0508,0 -0.2159,-0.10795 -0.16193,-0.10795 -0.19368,-0.155575 -0.0127,-0.01905 -0.0318,-0.0889 -0.0159,-0.05398 -0.0349,-0.05398 l -0.0159,0.0032 q -0.26987,0.26035 -0.381,0.40005 l -0.0444,0.0032 q -0.0571,0.0032 -0.21272,-0.12065 -0.15558,-0.123825 -0.18415,-0.187325 -0.0381,-0.06985 -0.0318,-0.219075 0.006,-0.15875 0.0127,-0.276225 0.006,-0.09843 0.006,-0.07938 0.0127,-0.04127 0.17145,-0.0762 0.16192,-0.03492 0.16192,-0.05715 0,-0.01905 -0.10477,-0.1397 -0.1143,-0.123825 -0.12383,-0.1524 l -0.003,-0.0127 q 0,-0.0254 0.23177,-0.238125 v -0.0063 q 0,-0.0095 0.0349,-0.03175 0.0191,-0.0127 0.127,-0.123825 0.0857,-0.0889 0.127,-0.0889 0.0413,0 0.0794,0.01905 0.3556,0.18415 0.4318,0.20955 0.0254,0.0095 0.14288,0.01905 0.13335,0.02857 0.13335,0.0889 0,0.0508 -0.0349,0.168275 -0.0318,0.1143 -0.0318,0.1651 v 0.508 q 0.0222,0.0254 0.0222,0.0635 0.003,0.0381 0.0191,0.06032 0.0286,0.03493 0.11747,0.0762 0.073,0.03175 0.073,0.08573 z m -0.68263,-0.644525 -0.003,-0.17145 q 0,-0.06985 -0.2286,-0.168275 -0.20638,-0.09208 -0.29845,-0.09208 -0.0762,0 -0.0762,0.06668 0,0.0762 0.1016,0.1778 0.003,0.0063 0.20637,0.20955 0.0286,0.0063 0.12383,0.0762 0.0857,0.0635 0.13652,0.0635 l 0.0127,-0.0032 q 0.0254,-0.10795 0.0254,-0.15875 z m -0.0127,0.320675 q 0,-0.04763 -0.1016,-0.09525 -0.0762,-0.04128 -0.14922,-0.08255 -0.11748,-0.06667 -0.14923,-0.06667 -0.0444,0.01905 -0.0444,0.17145 v 0.06667 q 0,0.111125 0.0381,0.19685 0.0508,0.1143 0.14605,0.1143 0.0635,0 0.16193,-0.117475 0.0984,-0.12065 0.0984,-0.187325 z m 1.93676,-0.841375 q 0,0.0381 -0.0984,0.18415 -0.0984,0.14605 -0.127,0.14605 -0.0254,0 -0.16192,-0.10795 -0.13335,-0.10795 -0.1397,-0.10795 l -0.019,0.0127 -0.003,0.0762 q 0,0.03175 0.006,0.09208 0.006,0.06032 0.006,0.08572 0,0.04763 -0.006,0.142875 -0.006,0.09208 -0.006,0.1397 0,0.17145 0.006,0.2032 0.01,0.0508 0.0667,0.06667 0.0603,0.01588 0.18415,0.04763 0.14605,0.0381 0.21907,0.09208 v 0.07303 q 0,0.0095 -0.0286,0.04445 -0.0286,0.03493 -0.0286,0.0381 -0.11112,0.288925 -0.18415,0.288925 -0.0222,0 -0.11112,-0.0635 -0.32703,-0.1905 -0.61278,-0.2413 l -0.0381,-0.0381 -0.003,-0.06667 q -0.003,-0.04763 0.0254,-0.15875 0.0286,-0.1143 0.0286,-0.1524 0,-0.07937 0.0127,-0.104775 v -0.32385 q 0,-0.04445 -0.0254,-0.155575 -0.0254,-0.1016 -0.0222,-0.15875 l 0.003,-0.05715 q 0.0254,-0.04127 0.0635,-0.06667 0.2794,-0.0762 0.47943,-0.238125 0.0635,-0.0508 0.10795,-0.0508 0.0254,0 0.0984,0.07937 0.0254,0.02857 0.0762,0.0889 0.23178,0.149225 0.23178,0.1905 z m 1.65735,0.05398 q -0.073,0.130175 -0.073,0.66675 v 0.587375 q 0,0.03175 0.01,0.09208 0.01,0.06032 0.01,0.09208 0,0.07937 -0.127,0.149225 -0.10795,0.06033 -0.2286,0.130175 -0.0762,0.0381 -0.33973,0.127 -0.2794,0.09525 -0.32702,0.09525 -0.0508,0 -0.0508,-0.06032 l 0.003,-0.03175 q 0.32703,-0.13335 0.42228,-0.2032 0.16192,-0.12065 0.16192,-0.33655 0,0.06985 -0.006,-0.1016 -0.003,-0.174625 -0.003,-0.212725 v -0.04445 q 0,-0.09208 0.019,-0.276225 0.0191,-0.18415 0.0191,-0.2794 0,-0.14605 -0.01,-0.18415 -0.0254,-0.09525 -0.12065,-0.117475 -0.0699,-0.02857 -0.0857,-0.02857 h -0.0254 q -0.17463,0.2032 -0.18098,0.219075 -0.0127,0.03175 -0.0127,0.327025 v 0.327025 q 0.0191,0.03175 0.0508,0.04763 0.0159,0.0032 0.0317,0.0095 0.0508,0.04445 0.0667,0.05398 0.0286,0.01588 0.0825,0.01905 l 0.01,0.04445 q -0.13335,0.22225 -0.1524,0.250825 -0.073,0.104775 -0.11747,0.104775 -0.0444,0 -0.21273,-0.1397 l -0.1905,-0.1016 q -0.0794,-0.04445 -0.0794,-0.06985 0,-0.07303 0.0286,-0.22225 0.0286,-0.149225 0.0286,-0.22225 v -1.41605 q 0,-0.03175 -0.0159,-0.1016 -0.0159,-0.06985 -0.0159,-0.1016 0,-0.05715 0.0857,-0.09525 0.0349,0.01905 0.16193,0.01905 0.0444,0 0.13017,-0.0095 0.0857,-0.0095 0.13018,-0.0095 l 0.0318,0.0127 0.01,0.03175 q 0,0.06985 -0.0286,0.20955 -0.0254,0.1397 -0.0254,0.20955 v 0.593725 q 0,0.02858 0.0127,0.03175 0.36195,-0.447675 0.3937,-0.447675 0.0254,0 0.0857,0.0381 0.20955,0.09208 0.4445,0.212725 z m 1.37795,0.155575 q 0,0.0889 -0.1016,0.1524 -0.10478,0.111125 -0.381,0.390525 l -0.1397,0.136525 -0.01,0.04763 q 0.15558,0.0762 0.20003,0.0889 0.0572,0.01588 0.0699,0.02222 0.14287,0.01588 0.19367,0.02858 0.0857,0.02222 0.0857,0.06985 0,0.06032 -0.0953,0.18415 -0.0571,0.07303 -0.13335,0.168275 -0.0222,0.0127 -0.054,0.0127 -0.0381,0 -0.0889,-0.02858 -0.22542,-0.130175 -0.5842,-0.187325 -0.12065,-0.03492 -0.12065,-0.1143 v -0.0032 q 0.073,-0.174625 0.073,-0.62865 0,-0.136525 -0.01,-0.263525 -0.003,-0.03175 -0.019,-0.1016 -0.0159,-0.07303 -0.0159,-0.111125 0,-0.0635 0.15557,-0.127 0.10478,-0.04128 0.21273,-0.07938 0.18415,-0.08255 0.30797,-0.180975 l 0.0127,-0.0032 q 0.0603,0 0.12383,0.1016 0.0222,0.04445 0.0635,0.130175 0.0127,0.02222 0.1524,0.123825 0.1016,0.07303 0.1016,0.17145 z m -0.33338,0.231775 q -0.0222,-0.06033 -0.12382,-0.174625 -0.1016,-0.117475 -0.15558,-0.136525 h -0.01 q 0,0.05398 -0.006,0.1651 -0.003,0.111125 -0.003,0.1651 v 0.1905 q 0,0.0381 0.01,0.07302 0.0508,0 0.15875,-0.111125 0.10795,-0.1143 0.13017,-0.17145 z"
       id="text1"
       style="font-size:3.175px;font-family:'Fette Trump-Deutsch';-inkscape-font-specification:'Fette Trump-Deutsch, Normal';fill:#faebd7;stroke-width:0.264583"
       inkscape:label="text1"
       aria-label="Die Deutsche Programmiersprache" />
    <path
       d="m 97.966875,52.141659 q 0,0.04939 -0.03881,0.07056 -0.01058,0.0053 -0.05468,0.01764 -0.171097,0.07585 -0.287514,0.201084 l -0.02117,0.01058 q -0.02293,0 -0.112889,-0.04586 -0.199319,-0.04763 -0.324556,-0.04763 -0.132291,0 -0.160514,0.01588 -0.02822,0.01588 -0.102305,0.130528 -0.04939,0.07585 -0.06703,0.07585 -0.01587,0 -0.02999,-0.01411 -0.01235,-0.01411 -0.01235,-0.02999 v -0.0071 q 0.04939,-0.05997 0.09701,-0.107597 0.104069,-0.134056 0.216958,-0.269875 0.06703,-0.02117 0.245181,-0.02117 0.05115,0 0.151694,0.0088 0.102306,0.0088 0.151695,0.0088 0.02999,0 0.03528,-0.0018 l 0.0053,-0.0053 q 0,-0.155222 -0.03175,-0.231069 -0.04233,-0.09878 -0.164041,-0.155223 -0.06879,-0.03175 -0.116417,-0.03175 -0.04233,0 -0.111125,0.02117 -0.07761,0.02117 -0.09701,0.04586 -0.01764,0.02469 -0.01764,0.08467 0,0.0053 0.0035,0.01588 0.0035,0.0088 0.0035,0.01411 0,-0.01411 -0.01587,0.144639 -0.01411,0.02822 -0.283986,0.241653 -0.268111,0.213431 -0.306917,0.227542 -0.0388,0 -0.0388,-0.03175 0.01235,-0.01411 0.08643,-0.07585 0.248709,-0.208139 0.248709,-0.423334 v -0.03704 q -0.02469,-0.05292 -0.02646,-0.08114 -0.02117,-0.04763 -0.07408,-0.0829 -0.05115,-0.03704 -0.102306,-0.03704 -0.01235,0 -0.03528,0.0035 -0.02293,0.0018 -0.03528,0.0018 -0.01058,-0.0088 -0.01058,-0.02293 0,-0.01764 0.0635,-0.107597 0.0194,-0.03175 0.0388,-0.06526 0.03175,-0.04762 0.04939,-0.04762 l 0.01411,0.0018 q 0.04057,0.04586 0.118181,0.09701 h 0.0018 q 0.02999,0 0.02999,-0.08114 0,-0.03881 -0.02999,-0.139348 -0.02822,-0.100542 -0.02822,-0.135819 0.0071,-0.01235 0.01587,-0.0247 0.06879,-0.0035 0.229306,-0.05821 0.149931,-0.04939 0.224014,-0.08819 0.06703,-0.04586 0.09349,-0.04586 0.04057,0 0.04586,0.03704 0.09349,0.09172 0.192265,0.186972 0.04939,0.04762 0.107597,0.07761 0.0441,0.02293 0.05115,0.04057 -0.0053,0.01058 -0.125237,0.07937 -0.119944,0.06879 -0.121708,0.07232 v 0.0018 q 0.01587,0.01235 0.02646,0.01587 l 0.09701,0.01058 q 0.197556,0.06703 0.213431,0.0829 0.08114,0.04939 0.08114,0.134056 l 0.0053,0.01058 q -0.0018,0.02117 -0.0018,0.0635 0,0.107597 0.02469,0.21343 0.01764,0.07585 0.01764,0.08819 z m -0.546806,-0.654403 q -0.03351,-0.03351 -0.155222,-0.139348 -0.130528,-0.114653 -0.148167,-0.123472 h -0.0053 q -0.0053,0.02293 -0.0053,0.05115 0,0.250472 0.02469,0.428625 h 0.0088 q 0.03704,-0.02293 0.148166,-0.109361 0.112889,-0.08643 0.132292,-0.107597 z m 1.280583,0.236361 q 0,0.04939 -0.05644,0.08467 -0.05821,0.06174 -0.211667,0.216959 l -0.07761,0.07585 -0.0053,0.02646 q 0.08643,0.04233 0.111125,0.04939 0.03175,0.0088 0.03881,0.01235 0.07938,0.0088 0.107597,0.01588 0.04762,0.01235 0.04762,0.0388 0,0.03351 -0.05292,0.102306 -0.03175,0.04057 -0.07408,0.09349 -0.01235,0.0071 -0.02999,0.0071 -0.02117,0 -0.04939,-0.01588 -0.125236,-0.07232 -0.324556,-0.10407 -0.06703,-0.0194 -0.06703,-0.0635 v -0.0018 q 0.04057,-0.09701 0.04057,-0.34925 0,-0.07585 -0.0053,-0.146403 -0.0018,-0.01764 -0.01058,-0.05644 -0.0088,-0.04057 -0.0088,-0.06174 0,-0.03528 0.08643,-0.07055 0.05821,-0.02293 0.118181,-0.0441 0.102305,-0.04586 0.171097,-0.100542 l 0.0071,-0.0018 q 0.03351,0 0.06879,0.05645 0.01235,0.02469 0.03528,0.07232 0.0071,0.01235 0.08467,0.06879 0.05644,0.04057 0.05644,0.09525 z m -0.185208,0.128764 q -0.01235,-0.03351 -0.06879,-0.09701 -0.05644,-0.06526 -0.08643,-0.07585 h -0.0053 q 0,0.02999 -0.0035,0.09172 -0.0018,0.06174 -0.0018,0.09172 v 0.105833 q 0,0.02117 0.0053,0.04057 0.02822,0 0.08819,-0.06174 0.05997,-0.0635 0.07232,-0.09525 z m 1.130653,-0.276931 q 0,0.03351 -0.0194,0.109361 -0.0194,0.07585 -0.0194,0.107597 0,0.01411 0.0035,0.03528 -0.0053,0.02117 -0.0053,0.119945 0,0.09878 0.0247,0.194028 0.01058,0.04057 0.01058,0.06703 0,0.04763 -0.14993,0.104069 -0.19932,0.134056 -0.236362,0.134056 -0.01764,0 -0.04586,-0.01058 -0.02822,-0.01235 -0.03704,-0.02469 -0.03704,-0.0247 -0.234597,-0.07761 l -0.118181,-0.03175 q -0.01764,0 -0.01764,-0.02293 0,0.02469 0.04057,-0.144639 0.02646,-0.109361 0.02646,-0.252236 0,-0.01235 -0.01764,-0.137584 -0.01764,-0.127 -0.0194,-0.130527 0.102305,-0.04233 0.22225,-0.105834 -0.0053,-0.01235 -0.111125,-0.06879 -0.105834,-0.05821 -0.105834,-0.0635 0,-0.04233 0.02293,-0.127 0.02469,-0.08643 0.02469,-0.130528 0,-0.03175 0.0018,-0.03528 0.0035,-0.01764 0.0247,-0.01764 0.03351,0 0.08643,0.06879 0.04586,0.03351 0.09878,0.07761 0.04939,0.07761 0.395112,0.261055 0.128764,0.06879 0.155222,0.102306 z m -0.287514,0.596195 q -0.01235,-0.0194 -0.01235,-0.148167 0,-0.04762 0.0053,-0.142875 0.0071,-0.09525 0.0071,-0.142875 0,-0.04057 -0.08643,-0.109361 -0.08643,-0.06879 -0.128764,-0.06879 -0.02293,0 -0.02293,0.02646 v 0.319264 l 0.0053,0.01058 q 0,0.02293 -0.0053,0.07055 -0.0053,0.04586 -0.0053,0.06879 v 0.03528 l -0.0053,0.01588 q 0,0.03351 0.155223,0.07761 0.0035,0 0.02646,0.01411 0.02469,0.01235 0.03704,0.01235 0.02293,0 0.02999,-0.03881 z M 100.20349,51.1627 q 0,0.0194 -0.0265,0.07055 -0.03,0.05821 -0.0388,0.07761 -0.0141,0.03704 -0.0229,0.08643 -0.005,0.03528 -0.0247,0.03528 -0.0212,0 -0.0776,-0.03175 -0.05116,-0.01058 -0.05469,-0.01235 -0.02822,-0.01058 -0.02822,-0.03175 0.0018,-0.0053 0.02117,-0.0441 0.0194,-0.04057 0.04762,-0.121708 0.02823,-0.08114 0.04587,-0.119945 0.037,0.01411 0.0741,0.02646 0.0847,0.0388 0.0847,0.06526 z m -0.009,0.481542 -0.002,0.02999 -0.0106,0.01588 q -0.0141,0.08467 -0.0141,0.102305 v 0.497417 q 0,0.01588 0.0106,0.05821 0.0106,0.04233 0.0106,0.05997 v 0.02117 l -0.007,0.01235 h -0.0247 q -0.0282,0 -0.0864,-0.0053 -0.0582,-0.0053 -0.08643,-0.0053 -0.01235,0 -0.03704,0.0053 -0.02293,0.0053 -0.03528,0.0053 H 99.8945 q -0.01588,-0.01411 -0.01588,-0.02999 0,-0.02117 0.01058,-0.06703 0.01058,-0.04586 0.01058,-0.06703 0,-0.05821 0.0053,-0.172861 0.0053,-0.116417 0.0053,-0.174625 0,0.0088 0.0018,-0.07408 v -0.05292 q 0,-0.04763 -0.01587,-0.0635 -0.01411,-0.01764 -0.0635,-0.03351 -0.06703,-0.02293 -0.06703,-0.05468 0,-0.01235 0.02999,-0.04939 0.03704,-0.04586 0.05292,-0.07408 0.04233,-0.07937 0.0635,-0.07937 0.03351,0 0.10055,0.06703 0.0564,0.02117 0.11465,0.0441 0.0705,0.03528 0.067,0.08467 z m 0.78845,0.07937 q 0,0.04939 -0.0564,0.08467 -0.0582,0.06174 -0.21167,0.216959 l -0.0776,0.07585 -0.005,0.02646 q 0.0864,0.04233 0.11112,0.04939 0.0318,0.0088 0.0388,0.01235 0.0794,0.0088 0.1076,0.01588 0.0476,0.01235 0.0476,0.0388 0,0.03351 -0.0529,0.102306 -0.0318,0.04057 -0.0741,0.09349 -0.0123,0.0071 -0.03,0.0071 -0.0212,0 -0.0494,-0.01588 -0.12524,-0.07232 -0.32456,-0.10407 -0.067,-0.0194 -0.067,-0.0635 v -0.0018 q 0.0406,-0.09701 0.0406,-0.34925 0,-0.07585 -0.005,-0.146403 -0.002,-0.01764 -0.0106,-0.05644 -0.009,-0.04057 -0.009,-0.06174 0,-0.03528 0.0864,-0.07055 0.0582,-0.02293 0.11818,-0.0441 0.10231,-0.04586 0.1711,-0.100542 l 0.007,-0.0018 q 0.0335,0 0.0688,0.05645 0.0123,0.02469 0.0353,0.07232 0.007,0.01235 0.0847,0.06879 0.0564,0.04057 0.0564,0.09525 z m -0.1852,0.128764 q -0.0123,-0.03351 -0.0688,-0.09701 -0.0564,-0.06526 -0.0864,-0.07585 h -0.005 q 0,0.02999 -0.004,0.09172 -0.002,0.06174 -0.002,0.09172 v 0.105833 q 0,0.02117 0.005,0.04057 0.0282,0 0.0882,-0.06174 0.06,-0.0635 0.0723,-0.09525 z m 1.27705,0.446264 q 0,0.0194 -0.0582,0.09701 -0.0564,0.07761 -0.0758,0.08996 -0.0141,0 -0.0935,-0.05644 -0.0794,-0.04762 -0.10936,-0.07761 -0.0494,-0.04939 -0.0494,-0.121709 0,-0.05115 0.005,-0.153458 0.005,-0.10407 0.005,-0.155223 0,-0.02469 -0.004,-0.07585 -0.002,-0.05115 -0.002,-0.07585 -0.007,-0.0194 -0.0494,-0.0441 -0.0406,-0.0247 -0.0617,-0.0247 -0.0212,0 -0.067,0.05645 -0.0459,0.05644 -0.0547,0.08467 0,0.01588 -0.004,0.04586 -0.002,0.02999 -0.002,0.04586 v 0.329847 q 0.007,0.01235 0.0159,0.07585 0.0106,0.0635 0.0106,0.08467 0,0.02117 -0.007,0.02646 -0.005,0.0053 -0.0265,0.0053 -0.0176,0 -0.0547,-0.0053 -0.0353,-0.0053 -0.0529,-0.0053 0.0229,0 -0.0335,0.0018 -0.0564,0.0035 -0.0688,0.0035 h -0.0176 q -0.0335,0 -0.0441,-0.01058 v -0.0194 q 0,-0.01411 0.0106,-0.07937 0.0106,-0.06526 0.0106,-0.07761 0.005,-0.03881 0.005,-0.139347 v -0.236361 q 0,-0.07761 -0.0106,-0.102306 -0.0159,-0.03175 -0.0776,-0.0635 -0.0406,-0.02117 -0.0406,-0.04939 0,-0.04233 0.0723,-0.125236 0.009,-0.02999 0.0159,-0.04762 0.0159,-0.04057 0.0441,-0.04057 0.0194,0 0.0794,0.05292 0.0776,0.03351 0.1076,0.05821 0.0441,0.03704 0.0547,0.09878 0.005,0.03351 0.0176,0.03881 0.0123,0 0.1076,-0.121709 0.0953,-0.121708 0.10054,-0.121708 0.0247,0 0.0829,0.03528 0.0459,0.02822 0.0494,0.03175 0.0529,0.02293 0.15522,0.05115 0.0212,0.01764 0.0212,0.04057 0,0.03881 -0.0194,0.116417 -0.0176,0.07585 -0.0176,0.114653 0,0.0088 0.005,0.01764 -0.005,0.121708 -0.005,0.156986 0,0.09349 0.007,0.121708 0.0141,0.05821 0.0723,0.08467 0.0494,0.02293 0.0494,0.0635 z m 1.12889,-0.05468 q 0,0.0247 -0.0847,0.128764 -0.0194,0.06174 -0.0406,0.07761 -0.0423,0 -0.0741,-0.02293 -0.0617,-0.0441 -0.0917,-0.05821 -0.0635,-0.02822 -0.0882,-0.06879 -0.007,-0.01058 -0.03,-0.07585 -0.004,-0.0088 -0.007,-0.01235 l -0.0265,0.02293 q -0.004,0.0035 -0.0829,0.105833 l -0.0811,0.10407 q -0.005,0.0053 -0.0159,0.0053 -0.0335,0 -0.11995,-0.06174 -0.0388,-0.0194 -0.18168,-0.06703 -0.0159,-0.01411 -0.0159,-0.04233 0,-0.0194 0.0212,-0.07056 0.0212,-0.05292 0.0212,-0.07232 V 51.7342 q 0,-0.02117 -0.0688,-0.05292 -0.067,-0.03175 -0.067,-0.04939 0,-0.01588 0.0106,-0.03175 0.0265,-0.03881 0.0776,-0.11818 0.0441,-0.06703 0.06,-0.06703 0.0318,0 0.0882,0.03881 l 0.0847,0.05821 q 0.0212,0.01411 0.0794,0.03881 0.0353,0.01411 0.0353,0.03351 0,0.02293 -0.0106,0.08996 l -0.0106,0.06526 q -0.0159,0.134055 -0.0159,0.21343 0,0.146403 0.004,0.164042 0.0159,0.05644 0.0988,0.102306 h 0.0194 q 0.0547,-0.05468 0.10054,-0.123472 0.0141,-0.02822 0.0141,-0.204612 v -0.121708 q 0,-0.114653 -0.0159,-0.204611 0,-0.0018 -0.0176,-0.04233 -0.0123,-0.02822 -0.0123,-0.04057 0,-0.01411 0.0106,-0.02117 0.0282,0 0.0847,0.01058 0.0565,0.01058 0.0847,0.01058 0.0547,0 0.1076,-0.0053 0.0247,-0.01588 0.0529,-0.01588 l 0.0106,0.0053 v 0.02117 q 0,0.02646 -0.0318,0.128763 -0.0212,0.130528 -0.0212,0.458612 0,0.05468 0.0282,0.0829 0.0194,0.0194 0.0794,0.04586 0.0388,0.01764 0.0388,0.04057 z m 1.09538,0.05468 q 0,0.0194 -0.0582,0.09701 -0.0564,0.07761 -0.0758,0.08996 -0.0141,0 -0.0935,-0.05644 -0.0794,-0.04762 -0.10936,-0.07761 -0.0494,-0.04939 -0.0494,-0.121709 0,-0.05115 0.005,-0.153458 0.005,-0.10407 0.005,-0.155223 0,-0.02469 -0.004,-0.07585 -0.002,-0.05115 -0.002,-0.07585 -0.007,-0.0194 -0.0494,-0.0441 -0.0406,-0.0247 -0.0617,-0.0247 -0.0212,0 -0.067,0.05645 -0.0459,0.05644 -0.0547,0.08467 0,0.01588 -0.004,0.04586 -0.002,0.02999 -0.002,0.04586 v 0.329847 q 0.007,0.01235 0.0159,0.07585 0.0106,0.0635 0.0106,0.08467 0,0.02117 -0.007,0.02646 -0.005,0.0053 -0.0264,0.0053 -0.0176,0 -0.0547,-0.0053 -0.0353,-0.0053 -0.0529,-0.0053 0.0229,0 -0.0335,0.0018 -0.0564,0.0035 -0.0688,0.0035 h -0.0176 q -0.0335,0 -0.0441,-0.01058 v -0.0194 q 0,-0.01411 0.0106,-0.07937 0.0106,-0.06526 0.0106,-0.07761 0.005,-0.03881 0.005,-0.139347 v -0.236361 q 0,-0.07761 -0.0106,-0.102306 -0.0159,-0.03175 -0.0776,-0.0635 -0.0406,-0.02117 -0.0406,-0.04939 0,-0.04233 0.0723,-0.125236 0.009,-0.02999 0.0159,-0.04762 0.0159,-0.04057 0.0441,-0.04057 0.0194,0 0.0794,0.05292 0.0776,0.03351 0.10759,0.05821 0.0441,0.03704 0.0547,0.09878 0.005,0.03351 0.0176,0.03881 0.0123,0 0.1076,-0.121709 0.0953,-0.121708 0.10054,-0.121708 0.0247,0 0.0829,0.03528 0.0459,0.02822 0.0494,0.03175 0.0529,0.02293 0.15523,0.05115 0.0212,0.01764 0.0212,0.04057 0,0.03881 -0.0194,0.116417 -0.0176,0.07585 -0.0176,0.114653 0,0.0088 0.005,0.01764 -0.005,0.121708 -0.005,0.156986 0,0.09349 0.007,0.121708 0.0141,0.05821 0.0723,0.08467 0.0494,0.02293 0.0494,0.0635 z m 1.02305,0.178153 q 0,0.01058 -0.004,0.02117 -0.0459,0.05468 -0.13759,0.164042 -0.0811,0.09349 -0.11994,0.09349 -0.0159,0 -0.0847,-0.01235 -0.067,-0.01235 -0.0758,-0.01764 -0.0212,0 -0.0653,-0.0035 -0.0441,-0.0018 -0.067,-0.0018 -0.10407,0 -0.21872,0.0194 -0.009,0 -0.037,0.01058 -0.0265,0.01058 -0.0406,0.01058 -0.0459,0 -0.0459,-0.02293 0,-0.02117 0.0459,-0.100542 0.0406,-0.07232 0.0617,-0.09878 l 0.0106,-0.0053 q 0.0688,-0.0071 0.0811,-0.02293 l 0.0529,-0.06879 q 0,-0.04057 -0.25576,-0.132292 -0.007,-0.0071 -0.007,-0.02999 0,-0.01588 0.0159,-0.05468 0.0159,-0.04057 0.0159,-0.05821 V 51.7977 q 0,-0.02469 -0.0141,-0.07585 -0.0141,-0.05292 -0.0141,-0.07761 0,-0.02999 0.1076,-0.07408 0.0441,-0.01588 0.13053,-0.05115 0.16404,-0.10407 0.18697,-0.10407 0.0212,0 0.0794,0.03881 0.0653,0.04586 0.0882,0.05292 0.0441,0.01588 0.0582,0.03351 h 0.0406 q 0.002,-0.0018 0.0194,-0.06174 0.0194,-0.06174 0.0335,-0.06703 0.0141,0.0053 0.0635,0.0441 0.0512,0.03881 0.0653,0.05292 l 0.005,0.02646 q 0,0.01588 -0.067,0.09701 -0.0265,0.06174 -0.0265,0.296334 0,0.05115 0.004,0.153458 0.005,0.102306 0.005,0.153459 0.0247,0.06879 0.0265,0.107597 0.0106,0.0194 0.0547,0.0829 0.0282,0.04057 0.0282,0.05115 z M 104.9464,52.090501 V 51.78182 q 0,-0.04057 -0.0952,-0.09878 -0.0176,-0.01058 -0.13758,-0.07055 l -0.007,-0.0018 q -0.0123,0 -0.0123,0.01588 0,0.01235 0.005,0.03528 0.005,0.02117 0.005,0.03175 0.005,0.105833 0.005,0.202847 v 0.06526 q 0,0.03175 -0.004,0.09878 -0.004,0.06526 -0.004,0.09701 0,0.01058 0.12523,0.0829 0.0335,-0.0088 0.11289,-0.123473 z m 0.12877,0.458611 q -0.004,-0.0071 -0.0776,-0.127 -0.0441,-0.07055 -0.0459,-0.171097 l -0.0106,-0.0071 q -0.007,0.0018 -0.0265,0.0018 -0.037,0.03704 -0.11465,0.128764 -0.09,0.105834 -0.097,0.128764 l 0.005,0.01058 h 0.0282 l 0.27164,0.0247 0.0159,0.01058 z m 1.21885,-0.679097 q 0,0.02469 -0.009,0.07232 -0.009,0.04763 -0.009,0.07056 v 0.128764 q 0,0.02469 0.007,0.07232 0.009,0.04763 0.009,0.07232 0,0.02117 -0.0388,0.03528 -0.0282,0.01058 -0.0441,0.01058 -0.0441,0.01411 -0.12524,0.06703 -0.0811,0.05292 -0.12347,0.06703 h -0.0141 q -0.0212,0 -0.0935,-0.02117 -0.0847,-0.0247 -0.1023,-0.02822 -0.0741,-0.01235 -0.10936,-0.01235 -0.0864,0 -0.15346,0.02646 -0.0406,0 -0.0406,-0.0247 0,-0.0071 0.0688,-0.09878 0.0706,-0.09349 0.0829,-0.100541 0.0141,-0.0071 0.11642,-0.01411 0.0194,-0.01588 0.0617,-0.08114 0.0441,-0.06703 0.0512,-0.09172 -0.005,0 -0.0229,-0.0018 h -0.09 q -0.15522,0 -0.18521,0.01588 h -0.004 q -0.0159,-0.0035 -0.0229,-0.01588 0,-0.01588 0.007,-0.04763 0.009,-0.03175 0.009,-0.04586 0.005,-0.02646 0.005,-0.151694 0,-0.02646 -0.009,-0.08114 -0.007,-0.05468 -0.007,-0.08114 v -0.02117 q 0.0212,-0.01411 0.0441,-0.02469 l 0.24518,-0.109362 q 0.0318,-0.01764 0.0459,-0.02999 l 0.0282,-0.0018 q 0.03,-0.0018 0.13229,0.03351 0.10407,0.03528 0.13582,0.03528 0.0123,0 0.0423,-0.03528 0.0318,-0.03704 0.0459,-0.03704 0.0212,0 0.0229,0.0053 v 0.0071 q 0,0.02999 -0.037,0.09349 l -0.0406,0.06879 q -0.0176,0.02117 -0.0794,0.11818 -0.06,0.09701 -0.06,0.109362 v 0.0053 q 0.0441,0.0088 0.0811,0.01058 0.0106,0 0.0917,-0.0035 l 0.0794,-0.0018 0.007,0.02646 z m -0.26459,-0.160514 -0.005,-0.01058 q -0.0423,-0.01588 -0.127,-0.04763 l -0.127,-0.04762 q 0,0.02469 0.005,0.07585 0.007,0.05115 0.007,0.07585 0,0.0018 -0.004,0.03175 v 0.01058 q 0,0.01235 0.002,0.0194 0.0141,0.01587 0.10407,0.01587 h 0.0564 q 0.0547,-0.03351 0.0882,-0.123472 z m -0.005,0.326319 v -0.0018 q -0.002,-0.0088 -0.0106,-0.01588 h -0.0917 q -0.0212,0.0088 -0.0653,0.07232 -0.0441,0.0635 -0.0441,0.08643 v 0.01588 l 0.0106,0.0053 q 0.0212,0.0018 0.10054,0.02469 l 0.0776,0.02293 0.0176,-0.0071 q 0,-0.03351 0.002,-0.100542 0.004,-0.06879 0.004,-0.102306 z m 1.29646,0.218723 q 0,0.01411 -0.0635,0.104069 -0.0617,0.08819 -0.0741,0.08819 -0.0282,0 -0.11995,-0.05997 -0.09,-0.05997 -0.1076,-0.08643 -0.007,-0.01058 -0.0176,-0.04939 -0.009,-0.02999 -0.0194,-0.02999 l -0.009,0.0018 q -0.14993,0.144639 -0.21166,0.22225 l -0.0247,0.0018 q -0.0318,0.0018 -0.11818,-0.06703 -0.0864,-0.06879 -0.1023,-0.10407 -0.0212,-0.03881 -0.0176,-0.121708 0.004,-0.0882 0.007,-0.153459 0.004,-0.05468 0.004,-0.0441 0.007,-0.02293 0.0952,-0.04233 0.09,-0.0194 0.09,-0.03175 0,-0.01058 -0.0582,-0.07761 -0.0635,-0.06879 -0.0688,-0.08467 l -0.002,-0.0071 q 0,-0.01411 0.12877,-0.132291 v -0.0035 q 0,-0.0053 0.0194,-0.01764 0.0106,-0.0071 0.0706,-0.06879 0.0476,-0.04939 0.0706,-0.04939 0.0229,0 0.0441,0.01058 0.19756,0.102305 0.23989,0.116416 0.0141,0.0053 0.0794,0.01058 0.0741,0.01588 0.0741,0.04939 0,0.02822 -0.0194,0.09349 -0.0176,0.0635 -0.0176,0.09172 v 0.282223 q 0.0123,0.01411 0.0123,0.03528 0.002,0.02117 0.0106,0.03351 0.0159,0.0194 0.0653,0.04233 0.0406,0.01764 0.0406,0.04762 z m -0.37924,-0.35807 -0.002,-0.09525 q 0,-0.03881 -0.127,-0.09349 -0.11465,-0.05115 -0.16581,-0.05115 -0.0423,0 -0.0423,0.03704 0,0.04233 0.0564,0.09878 0.002,0.0035 0.11466,0.116417 0.0159,0.0035 0.0688,0.04233 0.0476,0.03528 0.0758,0.03528 l 0.007,-0.0018 q 0.0141,-0.05997 0.0141,-0.08819 z m -0.007,0.178153 q 0,-0.02646 -0.0564,-0.05292 -0.0423,-0.02293 -0.0829,-0.04586 -0.0653,-0.03704 -0.0829,-0.03704 -0.0247,0.01058 -0.0247,0.09525 v 0.03704 q 0,0.06174 0.0212,0.109361 0.0282,0.0635 0.0811,0.0635 0.0353,0 0.09,-0.06526 0.0547,-0.06703 0.0547,-0.104069 z m 1.47814,0.224014 q 0,0.0194 -0.0582,0.09701 -0.0564,0.07761 -0.0759,0.08996 -0.0141,0 -0.0935,-0.05644 -0.0794,-0.04762 -0.10936,-0.07761 -0.0494,-0.04939 -0.0494,-0.121709 0,-0.05115 0.005,-0.153458 0.005,-0.10407 0.005,-0.155223 0,-0.02469 -0.004,-0.07585 -0.002,-0.05115 -0.002,-0.07585 -0.007,-0.0194 -0.0494,-0.0441 -0.0406,-0.0247 -0.0617,-0.0247 -0.0212,0 -0.067,0.05645 -0.0459,0.05644 -0.0547,0.08467 0,0.01588 -0.004,0.04586 -0.002,0.02999 -0.002,0.04586 v 0.329847 q 0.007,0.01235 0.0159,0.07585 0.0106,0.0635 0.0106,0.08467 0,0.02117 -0.007,0.02646 -0.005,0.0053 -0.0265,0.0053 -0.0176,0 -0.0547,-0.0053 -0.0353,-0.0053 -0.0529,-0.0053 0.0229,0 -0.0335,0.0018 -0.0564,0.0035 -0.0688,0.0035 h -0.0176 q -0.0335,0 -0.0441,-0.01058 v -0.0194 q 0,-0.01411 0.0106,-0.07937 0.0106,-0.06526 0.0106,-0.07761 0.005,-0.03881 0.005,-0.139347 v -0.236361 q 0,-0.07761 -0.0106,-0.102306 -0.0159,-0.03175 -0.0776,-0.0635 -0.0406,-0.02117 -0.0406,-0.04939 0,-0.04233 0.0723,-0.125236 0.009,-0.02999 0.0159,-0.04762 0.0159,-0.04057 0.0441,-0.04057 0.0194,0 0.0794,0.05292 0.0776,0.03351 0.1076,0.05821 0.0441,0.03704 0.0547,0.09878 0.005,0.03351 0.0176,0.03881 0.0123,0 0.10759,-0.121709 0.0952,-0.121708 0.10055,-0.121708 0.0247,0 0.0829,0.03528 0.0459,0.02822 0.0494,0.03175 0.0529,0.02293 0.15522,0.05115 0.0212,0.01764 0.0212,0.04057 0,0.03881 -0.0194,0.116417 -0.0176,0.07585 -0.0176,0.114653 0,0.0088 0.005,0.01764 -0.005,0.121708 -0.005,0.156986 0,0.09349 0.007,0.121708 0.0141,0.05821 0.0723,0.08467 0.0494,0.02293 0.0494,0.0635 z m 0.50271,-0.03175 q 0,0.04233 -0.0353,0.116417 -0.037,0.08467 -0.0723,0.08467 -0.0547,-0.03528 -0.14111,-0.09349 l -0.0935,-0.04586 q -0.0176,-0.0053 -0.0353,-0.01058 -0.0106,-0.0071 -0.0106,-0.02999 0,-0.03351 0.0159,-0.05644 0.0159,-0.104069 0.0159,-0.229306 0,-0.02822 -0.004,-0.08467 -0.004,-0.05821 -0.004,-0.08643 0,-0.03175 0.005,-0.09349 0.005,-0.0635 0.005,-0.09525 v -0.433917 q 0,-0.01764 -0.0123,-0.05292 -0.0123,-0.03528 -0.0123,-0.05115 0,-0.02293 0.0106,-0.03351 h 0.0229 q 0.0176,0 0.0511,0.0053 0.0335,0.0053 0.0512,0.0053 0.009,0 0.0423,-0.0053 0.0141,0.0035 0.0247,0.0053 0.0141,0 0.0406,-0.0053 0.0265,-0.0053 0.0406,-0.0053 h 0.0194 q 0.005,0.0018 0.0159,0.01235 v 0.02646 q 0,0.0194 -0.0123,0.08467 l -0.0141,0.06703 -0.004,0.742597 q 0,0.01411 -0.004,0.0441 -0.004,0.02999 -0.004,0.0441 0,0.05821 0.0476,0.09878 0.0476,0.0388 0.0476,0.07585 z m 0.75671,-0.543278 q 0,0.04939 -0.0564,0.08467 -0.0582,0.06174 -0.21166,0.216959 l -0.0776,0.07585 -0.005,0.02646 q 0.0864,0.04233 0.11113,0.04939 0.0318,0.0088 0.0388,0.01235 0.0794,0.0088 0.1076,0.01588 0.0476,0.01235 0.0476,0.0388 0,0.03351 -0.0529,0.102306 -0.0317,0.04057 -0.0741,0.09349 -0.0123,0.0071 -0.03,0.0071 -0.0212,0 -0.0494,-0.01588 -0.12524,-0.07232 -0.32455,-0.10407 -0.067,-0.0194 -0.067,-0.0635 v -0.0018 q 0.0406,-0.09701 0.0406,-0.34925 0,-0.07585 -0.005,-0.146403 -0.002,-0.01764 -0.0106,-0.05644 -0.009,-0.04057 -0.009,-0.06174 0,-0.03528 0.0864,-0.07055 0.0582,-0.02293 0.11818,-0.0441 0.10231,-0.04586 0.1711,-0.100542 l 0.007,-0.0018 q 0.0335,0 0.0688,0.05645 0.0123,0.02469 0.0353,0.07232 0.007,0.01235 0.0847,0.06879 0.0564,0.04057 0.0564,0.09525 z m -0.18521,0.128764 q -0.0123,-0.03351 -0.0688,-0.09701 -0.0564,-0.06526 -0.0864,-0.07585 h -0.005 q 0,0.02999 -0.004,0.09172 -0.002,0.06174 -0.002,0.09172 v 0.105833 q 0,0.02117 0.005,0.04057 0.0282,0 0.0882,-0.06174 0.06,-0.0635 0.0723,-0.09525 z m 0.69497,-0.689681 q 0,0.0194 -0.0265,0.07055 -0.03,0.05821 -0.0388,0.07761 -0.0141,0.03704 -0.0229,0.08643 -0.005,0.03528 -0.0247,0.03528 -0.0212,0 -0.0776,-0.03175 -0.0511,-0.01058 -0.0547,-0.01235 -0.0282,-0.01058 -0.0282,-0.03175 0.002,-0.0053 0.0212,-0.0441 0.0194,-0.04057 0.0476,-0.121708 0.0282,-0.08114 0.0459,-0.119945 0.037,0.01411 0.0741,0.02646 0.0847,0.0388 0.0847,0.06526 z m -0.009,0.481542 -0.002,0.02999 -0.0106,0.01588 q -0.0141,0.08467 -0.0141,0.102305 v 0.497417 q 0,0.01588 0.0106,0.05821 0.0106,0.04233 0.0106,0.05997 v 0.02117 l -0.007,0.01235 h -0.0247 q -0.0282,0 -0.0864,-0.0053 -0.0582,-0.0053 -0.0864,-0.0053 -0.0123,0 -0.037,0.0053 -0.0229,0.0053 -0.0353,0.0053 h -0.0176 q -0.0159,-0.01411 -0.0159,-0.02999 0,-0.02117 0.0106,-0.06703 0.0106,-0.04586 0.0106,-0.06703 0,-0.05821 0.005,-0.172861 0.005,-0.116417 0.005,-0.174625 0,0.0088 0.002,-0.07408 v -0.05292 q 0,-0.04763 -0.0159,-0.0635 -0.0141,-0.01764 -0.0635,-0.03351 -0.067,-0.02293 -0.067,-0.05468 0,-0.01235 0.03,-0.04939 0.037,-0.04586 0.0529,-0.07408 0.0423,-0.07937 0.0635,-0.07937 0.0335,0 0.10054,0.06703 0.0564,0.02117 0.11465,0.0441 0.0706,0.03528 0.067,0.08467 z m 0.65264,-0.01058 q 0,0.02646 -0.0335,0.02646 -0.0123,0 -0.037,-0.0035 -0.0247,-0.0035 -0.037,-0.0035 h -0.0318 q -0.0176,0.02293 -0.0176,0.05468 0,0.02646 0.004,0.07937 0.004,0.05115 0.004,0.07761 0,0.02469 -0.002,0.139347 l -0.004,0.139348 q 0.007,0.01235 0.0705,0.04233 0.0653,0.02999 0.0741,0.0441 0,0.02293 -0.0529,0.121709 -0.0511,0.09701 -0.0653,0.09701 -0.0247,0 -0.0688,-0.02999 -0.0688,-0.04762 -0.10936,-0.06703 -0.0459,-0.02117 -0.0935,-0.04233 -0.0794,-0.0388 -0.0794,-0.05821 0,-0.0071 0.0159,-0.05644 0.0176,-0.04939 0.0212,-0.05115 0.0212,-0.04057 0.0212,-0.107598 v -0.37218 l -0.0106,-0.01058 q -0.0459,0 -0.0476,0.0018 h 0.002 q -0.0318,-0.0018 -0.0371,-0.03881 0.002,0.0071 0.002,-0.06174 0,-0.05115 0.0141,-0.05997 l 0.0159,-0.0018 q 0.007,0 0.0194,0.0035 0.0141,0.0035 0.0194,0.0035 0.0176,0 0.0229,-0.04233 -0.004,-0.01235 -0.005,-0.0194 0,-0.03351 -0.0141,-0.09349 -0.0123,-0.05997 -0.0123,-0.07585 0,-0.02646 0.0512,-0.02646 h 0.12877 q 0.0194,0 0.0564,-0.0071 0.037,-0.0088 0.0564,-0.0088 0.037,0 0.037,0.04057 0,0.02646 -0.0141,0.0829 -0.0123,0.05645 -0.0123,0.0829 0,0.03704 0.0106,0.06703 h 0.0882 q 0.0141,-0.0088 0.0247,-0.01058 0.0194,0.0018 0.0265,0.01588 z m 1.12536,0.610306 q 0,0.0247 -0.0847,0.128764 -0.0194,0.06174 -0.0406,0.07761 -0.0423,0 -0.0741,-0.02293 -0.0617,-0.0441 -0.0917,-0.05821 -0.0635,-0.02822 -0.0882,-0.06879 -0.007,-0.01058 -0.03,-0.07585 -0.004,-0.0088 -0.007,-0.01235 l -0.0264,0.02293 q -0.004,0.0035 -0.0829,0.105833 l -0.0811,0.10407 q -0.005,0.0053 -0.0159,0.0053 -0.0335,0 -0.11995,-0.06174 -0.0388,-0.0194 -0.18168,-0.06703 -0.0159,-0.01411 -0.0159,-0.04233 0,-0.0194 0.0212,-0.07056 0.0212,-0.05292 0.0212,-0.07232 V 51.7342 q 0,-0.02117 -0.0688,-0.05292 -0.067,-0.03175 -0.067,-0.04939 0,-0.01588 0.0106,-0.03175 0.0264,-0.03881 0.0776,-0.11818 0.0441,-0.06703 0.06,-0.06703 0.0317,0 0.0882,0.03881 l 0.0847,0.05821 q 0.0212,0.01411 0.0794,0.03881 0.0353,0.01411 0.0353,0.03351 0,0.02293 -0.0106,0.08996 l -0.0106,0.06526 q -0.0159,0.134055 -0.0159,0.21343 0,0.146403 0.004,0.164042 0.0159,0.05644 0.0988,0.102306 h 0.0194 q 0.0547,-0.05468 0.10054,-0.123472 0.0141,-0.02822 0.0141,-0.204612 v -0.121708 q 0,-0.114653 -0.0159,-0.204611 0,-0.0018 -0.0176,-0.04233 -0.0123,-0.02822 -0.0123,-0.04057 0,-0.01411 0.0106,-0.02117 0.0282,0 0.0847,0.01058 0.0564,0.01058 0.0847,0.01058 0.0547,0 0.1076,-0.0053 0.0247,-0.01588 0.0529,-0.01588 l 0.0106,0.0053 v 0.02117 q 0,0.02646 -0.0318,0.128763 -0.0212,0.130528 -0.0212,0.458612 0,0.05468 0.0282,0.0829 0.0194,0.0194 0.0794,0.04586 0.0388,0.01764 0.0388,0.04057 z m 1.09538,0.05468 q 0,0.0194 -0.0582,0.09701 -0.0564,0.07761 -0.0758,0.08996 -0.0141,0 -0.0935,-0.05644 -0.0794,-0.04762 -0.10936,-0.07761 -0.0494,-0.04939 -0.0494,-0.121709 0,-0.05115 0.005,-0.153458 0.005,-0.10407 0.005,-0.155223 0,-0.02469 -0.004,-0.07585 -0.002,-0.05115 -0.002,-0.07585 -0.007,-0.0194 -0.0494,-0.0441 -0.0406,-0.0247 -0.0617,-0.0247 -0.0212,0 -0.067,0.05645 -0.0459,0.05644 -0.0547,0.08467 0,0.01588 -0.004,0.04586 -0.002,0.02999 -0.002,0.04586 v 0.329847 q 0.007,0.01235 0.0159,0.07585 0.0106,0.0635 0.0106,0.08467 0,0.02117 -0.007,0.02646 -0.005,0.0053 -0.0265,0.0053 -0.0176,0 -0.0547,-0.0053 -0.0353,-0.0053 -0.0529,-0.0053 0.0229,0 -0.0335,0.0018 -0.0564,0.0035 -0.0688,0.0035 h -0.0176 q -0.0335,0 -0.0441,-0.01058 v -0.0194 q 0,-0.01411 0.0106,-0.07937 0.0106,-0.06526 0.0106,-0.07761 0.005,-0.03881 0.005,-0.139347 v -0.236361 q 0,-0.07761 -0.0106,-0.102306 -0.0159,-0.03175 -0.0776,-0.0635 -0.0406,-0.02117 -0.0406,-0.04939 0,-0.04233 0.0723,-0.125236 0.009,-0.02999 0.0159,-0.04762 0.0159,-0.04057 0.0441,-0.04057 0.0194,0 0.0794,0.05292 0.0776,0.03351 0.10759,0.05821 0.0441,0.03704 0.0547,0.09878 0.005,0.03351 0.0176,0.03881 0.0123,0 0.1076,-0.121709 0.0953,-0.121708 0.10054,-0.121708 0.0247,0 0.0829,0.03528 0.0459,0.02822 0.0494,0.03175 0.0529,0.02293 0.15523,0.05115 0.0212,0.01764 0.0212,0.04057 0,0.03881 -0.0194,0.116417 -0.0176,0.07585 -0.0176,0.114653 0,0.0088 0.005,0.01764 -0.005,0.121708 -0.005,0.156986 0,0.09349 0.007,0.121708 0.0141,0.05821 0.0723,0.08467 0.0494,0.02293 0.0494,0.0635 z m 1.02305,0.178153 q 0,0.01058 -0.004,0.02117 -0.0459,0.05468 -0.13759,0.164042 -0.0811,0.09349 -0.11994,0.09349 -0.0159,0 -0.0847,-0.01235 -0.067,-0.01235 -0.0758,-0.01764 -0.0212,0 -0.0653,-0.0035 -0.0441,-0.0018 -0.067,-0.0018 -0.10407,0 -0.21872,0.0194 -0.009,0 -0.037,0.01058 -0.0265,0.01058 -0.0406,0.01058 -0.0459,0 -0.0459,-0.02293 0,-0.02117 0.0459,-0.100542 0.0406,-0.07232 0.0617,-0.09878 l 0.0106,-0.0053 q 0.0688,-0.0071 0.0811,-0.02293 l 0.0529,-0.06879 q 0,-0.04057 -0.25576,-0.132292 -0.007,-0.0071 -0.007,-0.02999 0,-0.01588 0.0159,-0.05468 0.0159,-0.04057 0.0159,-0.05821 V 51.7977 q 0,-0.02469 -0.0141,-0.07585 -0.0141,-0.05292 -0.0141,-0.07761 0,-0.02999 0.1076,-0.07408 0.0441,-0.01588 0.13053,-0.05115 0.16404,-0.10407 0.18697,-0.10407 0.0212,0 0.0794,0.03881 0.0653,0.04586 0.0882,0.05292 0.0441,0.01588 0.0582,0.03351 h 0.0406 q 0.002,-0.0018 0.0194,-0.06174 0.0194,-0.06174 0.0335,-0.06703 0.0141,0.0053 0.0635,0.0441 0.0512,0.03881 0.0653,0.05292 l 0.005,0.02646 q 0,0.01588 -0.067,0.09701 -0.0265,0.06174 -0.0265,0.296334 0,0.05115 0.004,0.153458 0.005,0.102306 0.005,0.153459 0.0247,0.06879 0.0265,0.107597 0.0106,0.0194 0.0547,0.0829 0.0282,0.04057 0.0282,0.05115 z m -0.37571,-0.386292 v -0.308681 q 0,-0.04057 -0.0952,-0.09878 -0.0176,-0.01058 -0.13758,-0.07055 l -0.007,-0.0018 q -0.0123,0 -0.0123,0.01588 0,0.01235 0.005,0.03528 0.005,0.02117 0.005,0.03175 0.005,0.105833 0.005,0.202847 v 0.06526 q 0,0.03175 -0.004,0.09878 -0.004,0.06526 -0.004,0.09701 0,0.01058 0.12523,0.0829 0.0335,-0.0088 0.11289,-0.123473 z m 0.12877,0.458611 q -0.004,-0.0071 -0.0776,-0.127 -0.0441,-0.07055 -0.0459,-0.171097 l -0.0106,-0.0071 q -0.007,0.0018 -0.0265,0.0018 -0.037,0.03704 -0.11465,0.128764 -0.09,0.105834 -0.097,0.128764 l 0.005,0.01058 h 0.0282 l 0.27164,0.0247 0.0159,0.01058 z"
       id="text5"
       style="font-size:1.76389px;font-family:'Fette Trump-Deutsch';-inkscape-font-specification:'Fette Trump-Deutsch, Normal';fill:#faebd7;stroke-width:0.264583"
       aria-label="Bedienungsanleitung" />
    <rect
       style="fill:#faebd7;fill-opacity:1;fill-rule:nonzero;stroke-width:0.072151"
       id="rect5"
       width="3.3714151"
       height="0.05211883"
       x="92.318703"
       y="51.855007"
       ry="0.01166389" />
    <use
       x="0"
       y="0"
       xlink:href="#rect5"
       id="use6"
       transform="translate(22.922287)" />
  </g>
</svg>
