<svg width="5.2552cm" height=".54438cm" version="1.1" viewBox="0 0 52.552 5.4438" xmlns="http://www.w3.org/2000/svg" xmlns:xlink="http://www.w3.org/1999/xlink">
 <g transform="translate(-78.999 -47.317)">
  <path d="m81.809 49.53q0 0.06032-0.08572 0.09525l-0.18415 0.0762q-0.04762 0.04762-0.14605 0.11748l-0.09525 0.09525-0.02223 0.0095q-0.0762 0-0.3302-0.10478-0.15558-0.0635-0.37782-0.0762l-0.13018-0.02858q-0.1143-0.0254-0.36195-0.0254-0.254 0-0.37782 0.03175-0.08572 0.02222-0.23495 0.10795-0.16828 0.16828-0.21908 0.16828-0.02223 0-0.04762-0.01905-0.02223-0.01905-0.02223-0.04127 0-0.04445 0.3175-0.28258 0.07303-0.06667 0.21272-0.23178 0-0.0032-0.0032-0.0063-0.127 0.06667-0.1905 0.1143-0.28575 0.16192-0.45402 0.16192h-0.0381l-0.01905-0.04445q0-0.02222 0.0381-0.0508 0.21272-0.01588 0.36512-0.13652 0.17145-0.13335 0.17145-0.33972 0-0.13018-0.07938-0.2286-0.07937-0.1016-0.20638-0.1016-0.0095 0-0.05397 0.0063h-0.02223q-0.06668 0-0.06668-0.04127 0.10478-0.13018 0.22542-0.32068 0.0095-0.03493 0.04445-0.03493 0.0254 0 0.09525 0.07303 0.06985 0.06985 0.09207 0.06985 0.0254 0 0.13335-0.31115 0.02222-0.06032 0.12382-0.1016 0.08572-0.0254 0.16828-0.0508 0.07938-0.04127 0.13018-0.05715v-0.01905q-0.68262-0.1016-0.68262-0.2032v-0.16828q-0.08255-0.13335-0.09525-0.2032 0-0.01587 0.0095-0.02857 0.09525 0 0.25082 0.06667 0.1651 0.04128 0.4445 0.0508 0.10795 0.0032 0.889 0.0032 0.0889 0.02222 0.22225 0.07303 0.22225 0.15558 0.25718 0.18415 0.08572 0.06667 0.12382 0.13335 0.12382 0.13018 0.15558 0.17145 0.0762 0.1016 0.0762 0.17145 0 0.09842-0.0381 0.21272-0.01905 0.12382-0.01905 0.37148 0 0.02222 0.0063 0.06668 0.0063 0.04127 0.0063 0.0635-0.01587 0.0254-0.01587 0.11112 0 0.09525 0.02222 0.27622 0 0.02223 0.01905 0.08573 0.01905 0.06032 0.01905 0.0889zm-0.5461-0.75882q0-0.34608-0.09843-0.5207-0.127-0.2286-0.44132-0.2286-0.16192 0-0.25082 0.1905-0.07303 0.14922-0.07303 0.3302 0 0.43498-0.12382 0.62548-0.04445 0.06667-0.04445 0.08255 0 0.0127 0.10478 0.0127 0.24765 0 0.2413-0.0032l0.20002 0.02858q0.11112 0 0.11748-0.0032h-0.0063q0.06985 0.0063 0.10478 0.03493 0.14922 0.02857 0.18098 0.02857 0.0889 0 0.0889-0.57785zm-0.81598-0.72708-0.01587-0.01588q-0.08255-0.0254-0.11112-0.0254-0.05397 0-0.1016 0.12065-0.03175 0.08255-0.0508 0.14922-0.05397 0.19368-0.05397 0.67628-0.01588 0.0508-0.39052 0.42545v0.0095q0.0064 0.01905 0.02223 0.01905 0.23812 0 0.38735-0.21908 0.13018-0.19368 0.13018-0.44132 0-0.3048 0.0063-0.35878 0.0095-0.0889 0.05715-0.15875zm2.2955-0.44132q0 0.03492-0.04762 0.127-0.05397 0.10478-0.06985 0.1397-0.0254 0.06667-0.04127 0.15558-0.0095 0.0635-0.04445 0.0635-0.0381 0-0.1397-0.05715-0.09207-0.01905-0.09842-0.02222-0.0508-0.01905-0.0508-0.05715 0.0032-0.0095 0.0381-0.07937 0.03493-0.07303 0.08573-0.21908 0.0508-0.14605 0.08255-0.2159 0.06667 0.0254 0.13335 0.04762 0.1524 0.06985 0.1524 0.11748zm-0.01587 0.86678-0.0032 0.05398-0.01905 0.02857q-0.0254 0.1524-0.0254 0.18415v0.89535q0 0.02857 0.01905 0.10478 0.01905 0.0762 0.01905 0.10795v0.0381l-0.0127 0.02222h-0.04445q-0.0508 0-0.15558-0.0095t-0.15558-0.0095q-0.02223 0-0.06668 0.0095-0.04127 0.0095-0.0635 0.0095h-0.03175q-0.02858-0.0254-0.02858-0.05398 0-0.0381 0.01905-0.12065t0.01905-0.12065q0-0.10478 0.0095-0.31115 0.0095-0.20955 0.0095-0.31432 0 0.01588 0.0032-0.13335v-0.09525q0-0.08573-0.02857-0.1143-0.0254-0.03175-0.1143-0.06032-0.12065-0.04127-0.12065-0.09842 0-0.02223 0.05397-0.0889 0.06668-0.08255 0.09525-0.13335 0.0762-0.14288 0.1143-0.14288 0.06033 0 0.18098 0.12065 0.1016 0.0381 0.20638 0.07937 0.127 0.0635 0.12065 0.1524zm1.4192 0.14288q0 0.0889-0.1016 0.1524-0.10478 0.11112-0.381 0.39052l-0.1397 0.13652-0.0095 0.04763q0.15558 0.0762 0.20002 0.0889 0.05715 0.01588 0.06985 0.02222 0.14288 0.01588 0.19368 0.02858 0.08572 0.02222 0.08572 0.06985 0 0.06032-0.09525 0.18415-0.05715 0.07303-0.13335 0.16828-0.02222 0.0127-0.05397 0.0127-0.0381 0-0.0889-0.02858-0.22542-0.13018-0.5842-0.18732-0.12065-0.03492-0.12065-0.1143v-0.0032q0.07303-0.17462 0.07303-0.62865 0-0.13652-0.0095-0.26352-0.0032-0.03175-0.01905-0.1016-0.01587-0.07303-0.01587-0.11112 0-0.0635 0.15558-0.127 0.10478-0.04128 0.21272-0.07938 0.18415-0.08255 0.30798-0.18098l0.0127-0.0032q0.06032 0 0.12382 0.1016 0.02223 0.04445 0.0635 0.13018 0.0127 0.02222 0.1524 0.12382 0.1016 0.07303 0.1016 0.17145zm-0.33338 0.23178q-0.02223-0.06033-0.12382-0.17462-0.1016-0.11748-0.15558-0.13652h-0.0095q0 0.05398-0.0063 0.1651-0.0032 0.11112-0.0032 0.1651v0.1905q0 0.0381 0.0095 0.07302 0.0508 0 0.15875-0.11112 0.10795-0.1143 0.13018-0.17145zm4.3752 0.6858q0 0.06032-0.08573 0.09525l-0.18415 0.0762q-0.04762 0.04762-0.14605 0.11748l-0.09525 0.09525-0.02222 0.0095q-0.0762 0-0.3302-0.10478-0.15558-0.0635-0.37782-0.0762l-0.13018-0.02858q-0.1143-0.0254-0.36195-0.0254-0.254 0-0.37782 0.03175-0.08572 0.02222-0.23495 0.10795-0.16828 0.16828-0.21908 0.16828-0.02222 0-0.04762-0.01905-0.02223-0.01905-0.02223-0.04127 0-0.04445 0.3175-0.28258 0.07303-0.06667 0.21272-0.23178 0-0.0032-0.0032-0.0063-0.127 0.06667-0.1905 0.1143-0.28575 0.16192-0.45402 0.16192h-0.0381l-0.01905-0.04445q0-0.02222 0.0381-0.0508 0.21272-0.01588 0.36512-0.13652 0.17145-0.13335 0.17145-0.33972 0-0.13018-0.07937-0.2286-0.07937-0.1016-0.20638-0.1016-0.0095 0-0.05397 0.0063h-0.02223q-0.06667 0-0.06667-0.04127 0.10478-0.13018 0.22542-0.32068 0.0095-0.03493 0.04445-0.03493 0.0254 0 0.09525 0.07303 0.06985 0.06985 0.09208 0.06985 0.0254 0 0.13335-0.31115 0.02223-0.06032 0.12382-0.1016 0.08573-0.0254 0.16828-0.0508 0.07937-0.04127 0.13018-0.05715v-0.01905q-0.68262-0.1016-0.68262-0.2032v-0.16828q-0.08255-0.13335-0.09525-0.2032 0-0.01587 0.0095-0.02857 0.09525 0 0.25082 0.06667 0.1651 0.04128 0.4445 0.0508 0.10795 0.0032 0.889 0.0032 0.0889 0.02222 0.22225 0.07303 0.22225 0.15558 0.25718 0.18415 0.08572 0.06667 0.12382 0.13335 0.12382 0.13018 0.15558 0.17145 0.0762 0.1016 0.0762 0.17145 0 0.09842-0.0381 0.21272-0.01905 0.12382-0.01905 0.37148 0 0.02222 0.0063 0.06668 0.0063 0.04127 0.0063 0.0635-0.01587 0.0254-0.01587 0.11112 0 0.09525 0.02223 0.27622 0 0.02223 0.01905 0.08573 0.01905 0.06032 0.01905 0.0889zm-0.5461-0.75882q0-0.34608-0.09842-0.5207-0.127-0.2286-0.44132-0.2286-0.16192 0-0.25082 0.1905-0.07303 0.14922-0.07303 0.3302 0 0.43498-0.12382 0.62548-0.04445 0.06667-0.04445 0.08255 0 0.0127 0.10478 0.0127 0.24765 0 0.2413-0.0032l0.20002 0.02858q0.11112 0 0.11748-0.0032h-0.0064q0.06985 0.0063 0.10478 0.03493 0.14922 0.02857 0.18098 0.02857 0.0889 0 0.0889-0.57785zm-0.81598-0.72708-0.01588-0.01588q-0.08255-0.0254-0.11112-0.0254-0.05398 0-0.1016 0.12065-0.03175 0.08255-0.0508 0.14922-0.05398 0.19368-0.05398 0.67628-0.01587 0.0508-0.39052 0.42545v0.0095q0.0063 0.01905 0.02222 0.01905 0.23812 0 0.38735-0.21908 0.13018-0.19368 0.13018-0.44132 0-0.3048 0.0063-0.35878 0.0095-0.0889 0.05715-0.15875zm2.7019 0.56832q0 0.0889-0.1016 0.1524-0.10478 0.11112-0.381 0.39052l-0.1397 0.13652-0.0095 0.04763q0.15558 0.0762 0.20002 0.0889 0.05715 0.01588 0.06985 0.02222 0.14288 0.01588 0.19368 0.02858 0.08572 0.02222 0.08572 0.06985 0 0.06032-0.09525 0.18415-0.05715 0.07303-0.13335 0.16828-0.02222 0.0127-0.05397 0.0127-0.0381 0-0.0889-0.02858-0.22542-0.13018-0.5842-0.18732-0.12065-0.03492-0.12065-0.1143v-0.0032q0.07303-0.17462 0.07303-0.62865 0-0.13652-0.0095-0.26352-0.0032-0.03175-0.01905-0.1016-0.01587-0.07303-0.01587-0.11112 0-0.0635 0.15558-0.127 0.10478-0.04128 0.21272-0.07938 0.18415-0.08255 0.30798-0.18098l0.0127-0.0032q0.06032 0 0.12382 0.1016 0.02223 0.04445 0.0635 0.13018 0.0127 0.02222 0.1524 0.12382 0.1016 0.07303 0.1016 0.17145zm-0.33338 0.23178q-0.02223-0.06033-0.12382-0.17462-0.1016-0.11748-0.15558-0.13652h-0.0095q0 0.05398-0.0063 0.1651-0.0032 0.11112-0.0032 0.1651v0.1905q0 0.0381 0.0095 0.07302 0.0508 0 0.15875-0.11112 0.10795-0.1143 0.13018-0.17145zm2.359 0.70485q0 0.04445-0.1524 0.23178-0.03493 0.11112-0.07303 0.1397-0.0762 0-0.13335-0.04127-0.11112-0.07937-0.1651-0.10478-0.1143-0.0508-0.15875-0.12382-0.0127-0.01905-0.05397-0.13652-0.0063-0.01588-0.0127-0.02222l-0.04763 0.04127q-0.0063 0.0063-0.14922 0.1905l-0.14605 0.18732q-0.0095 0.0095-0.02858 0.0095-0.06033 0-0.2159-0.11112-0.06985-0.03493-0.32702-0.12065-0.02858-0.0254-0.02858-0.0762 0-0.03493 0.0381-0.127 0.0381-0.09525 0.0381-0.13018v-0.7239q0-0.0381-0.12382-0.09525-0.12065-0.05715-0.12065-0.0889 0-0.02858 0.01905-0.05715 0.04762-0.06985 0.1397-0.21272 0.07937-0.12065 0.10795-0.12065 0.05715 0 0.15875 0.06985l0.1524 0.10478q0.0381 0.0254 0.14288 0.06985 0.0635 0.0254 0.0635 0.06032 0 0.04127-0.01905 0.16192l-0.01905 0.11748q-0.02858 0.2413-0.02858 0.38418 0 0.26352 0.0063 0.29528 0.02858 0.1016 0.1778 0.18415h0.03493q0.09843-0.09842 0.18098-0.22225 0.0254-0.0508 0.0254-0.3683v-0.21908q0-0.20638-0.02857-0.3683 0-0.0032-0.03175-0.0762-0.02223-0.0508-0.02223-0.07302 0-0.0254 0.01905-0.0381 0.0508 0 0.1524 0.01905t0.1524 0.01905q0.09842 0 0.19368-0.0095 0.04445-0.02857 0.09525-0.02857l0.01905 0.0095v0.0381q0 0.04763-0.05715 0.23178-0.0381 0.23495-0.0381 0.8255 0 0.09842 0.0508 0.14922 0.03493 0.03493 0.14288 0.08255 0.06985 0.03175 0.06985 0.07303zm1.0858-1.0986q0 0.04762-0.06032 0.04762-0.02223 0-0.06668-0.0063t-0.06668-0.0063h-0.05715q-0.03175 0.04127-0.03175 0.09842 0 0.04762 0.0063 0.14288 0.0063 0.09208 0.0063 0.1397 0 0.04445-0.0032 0.25082l-0.0063 0.25082q0.0127 0.02222 0.127 0.0762 0.11748 0.05398 0.13335 0.07937 0 0.04127-0.09525 0.21908-0.09207 0.17462-0.11748 0.17462-0.04445 0-0.12382-0.05398-0.12382-0.08572-0.19685-0.12065-0.08255-0.0381-0.16828-0.0762-0.14288-0.06985-0.14288-0.10478 0-0.0127 0.02857-0.1016 0.03175-0.0889 0.0381-0.09208 0.0381-0.07303 0.0381-0.19368v-0.66992l-0.01905-0.01905q-0.08255 0-0.08572 0.0032h0.0032q-0.05715-0.0032-0.06668-0.06985 0.0032 0.0127 0.0032-0.11112 0-0.09207 0.0254-0.10795l0.02858-0.0032q0.0127 0 0.03492 0.0063 0.0254 0.0063 0.03493 0.0063 0.03175 0 0.04127-0.0762-0.0063-0.02222-0.0095-0.03493 0-0.06032-0.0254-0.16828-0.02223-0.10795-0.02223-0.13652 0-0.04763 0.09207-0.04763h0.23178q0.03493 0 0.1016-0.0127 0.06668-0.01587 0.1016-0.01587 0.06667 0 0.06667 0.07302 0 0.04763-0.0254 0.14922-0.02223 0.1016-0.02223 0.14922 0 0.06667 0.01905 0.12065h0.15875q0.0254-0.01588 0.04445-0.01905 0.03493 0.0032 0.04762 0.02858zm1.7082 0.42545q0 0.04445-0.01587 0.13018-0.01588 0.08573-0.01588 0.127v0.23178q0 0.04445 0.0127 0.13018 0.01587 0.08572 0.01587 0.13018 0 0.0381-0.06985 0.0635-0.0508 0.01905-0.07937 0.01905-0.07937 0.0254-0.22542 0.12065-0.14605 0.09525-0.22225 0.12065h-0.0254q-0.0381 0-0.16828-0.0381-0.1524-0.04445-0.18415-0.0508-0.13335-0.02222-0.19685-0.02222-0.15558 0-0.27622 0.04762-0.07303 0-0.07303-0.04445 0-0.0127 0.12382-0.1778 0.127-0.16828 0.14922-0.18098 0.0254-0.0127 0.20955-0.0254 0.03493-0.02858 0.11112-0.14605 0.07937-0.12065 0.09207-0.1651-0.0095 0-0.04127-0.0032h-0.16192q-0.2794 0-0.33338 0.02858h-0.0063q-0.02858-0.0064-0.04127-0.02858 0-0.02857 0.0127-0.08572 0.01588-0.05715 0.01588-0.08255 0.0095-0.04762 0.0095-0.27305 0-0.04762-0.01588-0.14605-0.0127-0.09842-0.0127-0.14605v-0.0381q0.0381-0.0254 0.07937-0.04445l0.44132-0.19685q0.05715-0.03175 0.08255-0.05398l0.0508-0.0032q0.05398-0.0032 0.23812 0.06032 0.18732 0.0635 0.24448 0.0635 0.02222 0 0.0762-0.0635 0.05715-0.06667 0.08255-0.06667 0.0381 0 0.04127 0.0095v0.0127q0 0.05398-0.06668 0.16828l-0.07303 0.12382q-0.03175 0.0381-0.14288 0.21272-0.10795 0.17462-0.10795 0.19685v0.0095q0.07937 0.01588 0.14605 0.01905 0.01905 0 0.1651-0.0063l0.14288-0.0032 0.0127 0.04762zm-0.47625-0.28892-0.0095-0.01905q-0.0762-0.02857-0.2286-0.08572l-0.2286-0.08573q0 0.04445 0.0095 0.13652 0.0127 0.09208 0.0127 0.13652 0 0.0032-0.0063 0.05715v0.01905q0 0.02223 0.0032 0.03493 0.0254 0.02858 0.18732 0.02858h0.1016q0.09843-0.06032 0.15875-0.22225zm-0.0095 0.58738v-0.0032q-0.0032-0.01588-0.01905-0.02858h-0.1651q-0.0381 0.01588-0.11748 0.13018-0.07937 0.1143-0.07937 0.15558v0.02858l0.01905 0.0095q0.0381 0.0032 0.18098 0.04445l0.1397 0.04127 0.03175-0.0127q0-0.06032 0.0032-0.18098 0.0063-0.12382 0.0063-0.18415zm1.8161-0.77152q0 0.0381-0.09842 0.18415-0.09843 0.14605-0.127 0.14605-0.0254 0-0.16192-0.10795-0.13335-0.10795-0.1397-0.10795l-0.01905 0.0127-0.0032 0.0762q0 0.03175 0.0063 0.09208 0.0063 0.06032 0.0063 0.08572 0 0.04763-0.0063 0.14288-0.0063 0.09208-0.0063 0.1397 0 0.17145 0.0063 0.2032 0.0095 0.0508 0.06668 0.06667 0.06032 0.01588 0.18415 0.04763 0.14605 0.0381 0.21908 0.09208v0.07303q0 0.0095-0.02858 0.04445-0.02857 0.03493-0.02857 0.0381-0.11112 0.28892-0.18415 0.28892-0.02223 0-0.11112-0.0635-0.32702-0.1905-0.61278-0.2413l-0.0381-0.0381-0.0032-0.06667q-0.0032-0.04763 0.0254-0.15875 0.02858-0.1143 0.02858-0.1524 0-0.07937 0.0127-0.10478v-0.32385q0-0.04445-0.0254-0.15558-0.0254-0.1016-0.02223-0.15875l0.0032-0.05715q0.0254-0.04127 0.0635-0.06667 0.2794-0.0762 0.47942-0.23812 0.0635-0.0508 0.10795-0.0508 0.0254 0 0.09843 0.07937 0.0254 0.02857 0.0762 0.0889 0.23178 0.14922 0.23178 0.1905zm1.6574 0.05398q-0.07303 0.13018-0.07303 0.66675v0.58738q0 0.03175 0.0095 0.09208 0.0095 0.06032 0.0095 0.09208 0 0.07937-0.127 0.14922-0.10795 0.06033-0.2286 0.13018-0.0762 0.0381-0.33972 0.127-0.2794 0.09525-0.32702 0.09525-0.0508 0-0.0508-0.06032l0.0032-0.03175q0.32702-0.13335 0.42228-0.2032 0.16192-0.12065 0.16192-0.33655 0 0.06985-0.0064-0.1016-0.0032-0.17462-0.0032-0.21272v-0.04445q0-0.09208 0.01905-0.27622 0.01905-0.18415 0.01905-0.2794 0-0.14605-0.0095-0.18415-0.0254-0.09525-0.12065-0.11748-0.06985-0.02857-0.08572-0.02857h-0.0254q-0.17462 0.2032-0.18098 0.21908-0.0127 0.03175-0.0127 0.32702v0.32702q0.01905 0.03175 0.0508 0.04763 0.01588 0.0032 0.03175 0.0095 0.0508 0.04445 0.06668 0.05398 0.02858 0.01588 0.08255 0.01905l0.0095 0.04445q-0.13335 0.22225-0.1524 0.25082-0.07303 0.10478-0.11748 0.10478-0.04445 0-0.21272-0.1397l-0.1905-0.1016q-0.07937-0.04445-0.07937-0.06985 0-0.07303 0.02857-0.22225 0.02858-0.14922 0.02858-0.22225v-1.416q0-0.03175-0.01587-0.1016-0.01588-0.06985-0.01588-0.1016 0-0.05715 0.08572-0.09525 0.03493 0.01905 0.16192 0.01905 0.04445 0 0.13018-0.0095 0.08572-0.0095 0.13018-0.0095l0.03175 0.0127 0.0095 0.03175q0 0.06985-0.02858 0.20955-0.0254 0.1397-0.0254 0.20955v0.59372q0 0.02858 0.0127 0.03175 0.36195-0.44768 0.3937-0.44768 0.0254 0 0.08572 0.0381 0.20955 0.09208 0.4445 0.21272zm1.378 0.15558q0 0.0889-0.1016 0.1524-0.10478 0.11112-0.381 0.39052l-0.1397 0.13652-0.0095 0.04763q0.15558 0.0762 0.20002 0.0889 0.05715 0.01588 0.06985 0.02222 0.14288 0.01588 0.19368 0.02858 0.08573 0.02222 0.08573 0.06985 0 0.06032-0.09525 0.18415-0.05715 0.07303-0.13335 0.16828-0.02223 0.0127-0.05398 0.0127-0.0381 0-0.0889-0.02858-0.22542-0.13018-0.5842-0.18732-0.12065-0.03492-0.12065-0.1143v-0.0032q0.07303-0.17462 0.07303-0.62865 0-0.13652-0.0095-0.26352-0.0032-0.03175-0.01905-0.1016-0.01588-0.07303-0.01588-0.11112 0-0.0635 0.15558-0.127 0.10478-0.04128 0.21272-0.07938 0.18415-0.08255 0.30798-0.18098l0.0127-0.0032q0.06033 0 0.12382 0.1016 0.02222 0.04445 0.0635 0.13018 0.0127 0.02222 0.1524 0.12382 0.1016 0.07303 0.1016 0.17145zm-0.33338 0.23178q-0.02222-0.06033-0.12382-0.17462-0.1016-0.11748-0.15558-0.13652h-0.0095q0 0.05398-0.0064 0.1651-0.0032 0.11112-0.0032 0.1651v0.1905q0 0.0381 0.0095 0.07302 0.0508 0 0.15875-0.11112 0.10795-0.1143 0.13018-0.17145zm4.0767 0.7366q-0.0159 0.0381-0.26035 0.13335-0.2667 0.1905-0.30162 0.1905-0.0254 0-0.30163-0.09842-0.27622-0.09842-0.42227-0.09842-0.0762 0-0.0762 0.08255 0 0.0381 0.0159 0.13335-0.01 0.0762-0.01 0.15875 0 0.07303 0.0159 0.21908 0.0159 0.14922 0.0159 0.12382 0 0.05398-0.0857 0.05398-0.0476 0-0.14287-0.0095-0.0921-0.0095-0.1397-0.0095h-0.0984q-0.0476 0.01905-0.0984 0.01905t-0.0508-0.0508q0-0.0127 0.01-0.04128 0.01-0.02857 0.01-0.0381 0.0381-0.26988 0.0381-0.50165v-0.0635l-0.0254-0.02858q-0.0222 0-0.0635 0.0095t-0.0635 0.0095q-0.0127 0-0.0476-0.0127-0.0318-0.01588-0.0445-0.01588-0.0286 0-0.10795 0.02857-0.0794 0.02858-0.10477 0.02858-0.0825 0-0.0825-0.0381 0-0.02858 0.12065-0.14922 0.1143-0.10795 0.15875-0.1397l0.15875-0.08573q0.0762-0.04445 0.0921-0.08572 0-0.25082-0.0889-0.4191-0.11112-0.2159-0.33972-0.2159-0.0159 0-0.0762 0.0095l-0.0349-0.0095q-0.0159-0.01587-0.0159-0.03175 0-0.01905 0.13652-0.1524 0.13653-0.13335 0.14923-0.16192 0.0413-0.09842 0.0857-0.09842 0.0762 0.07937 0.2032 0.1778l0.01-0.02857q0-0.32702-0.13653-0.4826-0.13335-0.15558-0.4572-0.16828l-0.0095-0.01588q0.0064-0.06667 0.06985-0.13335 0.0572-0.0508 0.1143-0.10478 0.16192-0.1524 0.1905-0.1524 0.4699 0.07302 0.6223 0.34608 0.073 0.13018 0.10795 0.15558 0.073-0.03493 0.26987-0.26352 0.18415-0.21272 0.23495-0.21272 0.019 0.0095 0.12065 0.0635 0.17463 0.09525 0.41593 0.17145 0.073 0.02222 0.22225 0.0635 0.0794 0.02222 0.0794 0.06985v-0.0032q-0.0159 0-0.0572 0.25082-0.0444 0.27305-0.0444 0.46355v0.52388q0 0.06985 0.0254 0.20955t0.0254 0.12065q0 0.0381 0.0349 0.1397t0.0349 0.14288zm-0.62865-0.2794q0-0.0508-0.0191-0.30798l-0.019-0.25718q0.0286-0.18098 0.0286-0.2921v-0.37782l-0.019-0.04445q-0.0444-0.0508-0.23178-0.13018-0.21907-0.09208-0.2286-0.09208-0.0318 0-0.13017 0.09208-0.0984 0.09207-0.0984 0.12382 0 0.04763 6e-3 0.14922 6e-3 0.09842 6e-3 0.14605 0 0.05397-6e-3 0.2921l-6e-3 0.29528v0.31115q0.019 0.01905 0.0444 0.0254 0.01 0 0.26353 0.0254 0.22225 0.02223 0.28575 0.02223 6e-3 0 0.0476 0.01905 0.0413 0.01905 0.0571 0.01905zm2.1114-0.79058q0 0.0508-0.0318 0.07303-0.17145 0.37148-0.2159 0.37148-0.0222 0-0.0317-0.0095-0.0191-0.02858-0.0667-0.17462-0.0381-0.11112-0.1016-0.14922-0.12383 0.04127-0.12383 0.36195 0 0.03493 0.0127 0.05715-6e-3 0.07937-6e-3 0.12065v0.04127q0 0.11112 0.0349 0.1905 0.17145 0.05398 0.40005 0.09843 0.073 0.01587 0.073 0.05715-0.0381 0.07302-0.11747 0.2159-0.0984 0.1651-0.1651 0.1651-0.0699-0.0254-0.30798-0.1143-0.0921-0.03493-0.41275-0.09525-0.0635-0.0127-0.0635-0.06033 0-0.0381 0.0413-0.1651 0.0445-0.13018 0.0445-0.1905v-0.37465q0-0.0635-0.0191-0.13652-6e-3 -0.06032-0.01-0.12065-6e-3 -0.04445-0.0952-0.1143-0.0413-0.0032-0.11112-0.0095l-0.019-0.0095q0-0.13652 0.0635-0.20002 0.019-0.0381 0.10477-0.1778 0.0444-0.0762 0.073-0.0889l0.0191 0.0032q0.12382 0.0889 0.25717 0.16192 0.0984 0.05398 0.12065 0.07937 0.0318 0.03493 0.0476 0.13018 0.019 0.09208 0.0476 0.12065 0.0349-0.0254 0.14923-0.26988 0.10477-0.22542 0.1524-0.22542 0.0476 0 0.10477 0.16828 0.0381 0.02857 0.0952 0.13018 0.0572 0.09842 0.0572 0.1397zm1.6828-0.07937q0 0.04445-0.0381 0.10795-0.019 0.14288-0.019 0.35242v0.32068q0 0.1651 0.01 0.20955 0 0.02222 0.0127 0.07303 0.0159 0.0508 0.0159 0.0762l-0.0286 0.04445q-0.18097 0.06032-0.2286 0.08255-0.0889 0.04128-0.20002 0.11112-0.18098 0.11748-0.23813 0.14288l-0.27305-0.127q-0.27305-0.127-0.35877-0.127-0.0699 0-0.0984-0.03492-0.01-0.05398-0.01-0.09525 0-0.0254 0.019-0.08573 0.0191-0.06032 0.0191-0.07937 0.01-0.09525 0.01-0.44768 0-0.0508-0.019-0.14922-0.0159-0.1016-0.0159-0.1524 0-0.0254-0.0159-0.07938-0.0159-0.05715-0.0159-0.07937 0-0.1397 0.16827-0.1397 0.30798-0.12065 0.38418-0.17145 0.0444-0.03175 0.13652-0.09525 0.0254-0.0127 0.0381-0.0127 0.0381 0 0.10478 0.04445l0.0762 0.0508q0.0413 0.01588 0.19367 0.07937 0.0889 0.0381 0.29528 0.0889 0.0762 0.01905 0.0762 0.09208zm-0.51753 1.0922v-0.0032q0-0.40322-0.0191-0.86995-0.019-0.0254-0.38417-0.2032h-0.0159q-0.01 0.06032-0.01 0.1143v0.25718q0 0.0508 6e-3 0.2667l3e-3 0.26988q0.0286 0.0381 0.0921 0.06033 0.0222 0.0063 0.16192 0.06985 0.12383 0.05715 0.1397 0.05715zm2.4257 0.4445q0 0.01905-6e-3 0.0381-0.0825 0.09843-0.24765 0.29528-0.14605 0.16828-0.2159 0.16828-0.0286 0-0.1524-0.02222-0.12065-0.02223-0.13652-0.03175-0.0381 0-0.11748-0.0063-0.0794-0.0032-0.12065-0.0032-0.18732 0-0.3937 0.03493-0.0159 0-0.0667 0.01905-0.0476 0.01905-0.073 0.01905-0.0825 0-0.0825-0.04127 0-0.0381 0.0825-0.18098 0.073-0.13018 0.11113-0.1778l0.019-0.0095q0.12382-0.0127 0.14605-0.04127l0.0953-0.12382q0-0.07303-0.46038-0.23812-0.0127-0.0127-0.0127-0.05398 0-0.02858 0.0286-0.09842 0.0286-0.07303 0.0286-0.10478v-0.66358q0-0.04445-0.0254-0.13652-0.0254-0.09525-0.0254-0.1397 0-0.05398 0.19368-0.13335 0.0794-0.02858 0.23495-0.09208 0.29527-0.18732 0.33655-0.18732 0.0381 0 0.14287 0.06985 0.11748 0.08255 0.15875 0.09525 0.0794 0.02857 0.10478 0.06032h0.073q3e-3 -0.0032 0.0349-0.11112 0.0349-0.11112 0.0603-0.12065 0.0254 0.0095 0.1143 0.07937 0.0921 0.06985 0.11748 0.09525l0.01 0.04763q0 0.02857-0.12065 0.17462-0.0476 0.11112-0.0476 0.5334 0 0.09208 6e-3 0.27622 0.01 0.18415 0.01 0.27622 0.0444 0.12382 0.0476 0.19368 0.0191 0.03493 0.0984 0.14922 0.0508 0.07303 0.0508 0.09207zm-0.67627-0.69532v-0.55562q0-0.07303-0.17145-0.1778-0.0318-0.01905-0.24765-0.127l-0.0127-0.0032q-0.0222 0-0.0222 0.02857 0 0.02222 0.01 0.0635 0.01 0.0381 0.01 0.05715 0.01 0.1905 0.01 0.36512v0.11748q0 0.05715-6e-3 0.1778-6e-3 0.11748-6e-3 0.17462 0 0.01905 0.22542 0.14922 0.0603-0.01588 0.2032-0.22225zm0.23177 0.8255q-6e-3 -0.0127-0.1397-0.2286-0.0794-0.127-0.0825-0.30798l-0.0191-0.0127q-0.0127 0.0032-0.0476 0.0032-0.0667 0.06667-0.20638 0.23178-0.16192 0.1905-0.17462 0.23178l0.01 0.01905h0.0508l0.48895 0.04445 0.0286 0.01905zm1.9336-1.5875q0 0.0508-0.0318 0.07303-0.17145 0.37148-0.2159 0.37148-0.0222 0-0.0318-0.0095-0.0191-0.02858-0.0667-0.17462-0.0381-0.11112-0.1016-0.14922-0.12383 0.04127-0.12383 0.36195 0 0.03493 0.0127 0.05715-6e-3 0.07937-6e-3 0.12065v0.04127q0 0.11112 0.0349 0.1905 0.17145 0.05398 0.40005 0.09843 0.073 0.01587 0.073 0.05715-0.0381 0.07302-0.11747 0.2159-0.0984 0.1651-0.1651 0.1651-0.0699-0.0254-0.30798-0.1143-0.0921-0.03493-0.41275-0.09525-0.0635-0.0127-0.0635-0.06033 0-0.0381 0.0413-0.1651 0.0444-0.13018 0.0444-0.1905v-0.37465q0-0.0635-0.0191-0.13652-6e-3 -0.06032-0.01-0.12065-6e-3 -0.04445-0.0952-0.1143-0.0413-0.0032-0.11112-0.0095l-0.0191-0.0095q0-0.13652 0.0635-0.20002 0.019-0.0381 0.10477-0.1778 0.0444-0.0762 0.073-0.0889l0.019 0.0032q0.12382 0.0889 0.25717 0.16192 0.0984 0.05398 0.12065 0.07937 0.0318 0.03493 0.0476 0.13018 0.0191 0.09208 0.0476 0.12065 0.0349-0.0254 0.14923-0.26988 0.10477-0.22542 0.1524-0.22542 0.0476 0 0.10477 0.16828 0.0381 0.02857 0.0953 0.13018 0.0571 0.09842 0.0571 0.1397zm1.7685 1.0573q0 0.0254-0.1143 0.18732-0.11113 0.15875-0.13335 0.15875-0.0508 0-0.2159-0.10795-0.16193-0.10795-0.19368-0.15558-0.0127-0.01905-0.0317-0.0889-0.0159-0.05398-0.0349-0.05398l-0.0159 0.0032q-0.26987 0.26035-0.381 0.40005l-0.0444 0.0032q-0.0571 0.0032-0.21272-0.12065-0.15558-0.12382-0.18415-0.18732-0.0381-0.06985-0.0318-0.21908 6e-3 -0.15875 0.0127-0.27622 6e-3 -0.09843 6e-3 -0.07938 0.0127-0.04127 0.17145-0.0762 0.16192-0.03492 0.16192-0.05715 0-0.01905-0.10477-0.1397-0.1143-0.12382-0.12383-0.1524l-3e-3 -0.0127q0-0.0254 0.23177-0.23812v-0.0063q0-0.0095 0.0349-0.03175 0.019-0.0127 0.127-0.12382 0.0857-0.0889 0.127-0.0889t0.0794 0.01905q0.3556 0.18415 0.4318 0.20955 0.0254 0.0095 0.14288 0.01905 0.13335 0.02857 0.13335 0.0889 0 0.0508-0.0349 0.16828-0.0317 0.1143-0.0317 0.1651v0.508q0.0222 0.0254 0.0222 0.0635 3e-3 0.0381 0.0191 0.06032 0.0286 0.03493 0.11747 0.0762 0.073 0.03175 0.073 0.08573zm-0.68263-0.64452-3e-3 -0.17145q0-0.06985-0.2286-0.16828-0.20638-0.09208-0.29845-0.09208-0.0762 0-0.0762 0.06668 0 0.0762 0.1016 0.1778 3e-3 0.0063 0.20637 0.20955 0.0286 0.0063 0.12383 0.0762 0.0857 0.0635 0.13652 0.0635l0.0127-0.0032q0.0254-0.10795 0.0254-0.15875zm-0.0127 0.32068q0-0.04763-0.1016-0.09525-0.0762-0.04128-0.14922-0.08255-0.11748-0.06667-0.14923-0.06667-0.0444 0.01905-0.0444 0.17145v0.06667q0 0.11112 0.0381 0.19685 0.0508 0.1143 0.14605 0.1143 0.0635 0 0.16193-0.11748 0.0984-0.12065 0.0984-0.18732zm3.5846 0.37465q0 0.03493-0.0222 0.06668l-0.11748 0.15875q-0.0984 0.13335-0.12065 0.13335-0.0254 0-0.2032-0.12065-0.17462-0.12065-0.19367-0.14922-0.0572-0.07937-0.0572-0.27305 0-0.04763 6e-3 -0.24448l3e-3 -0.2413q0-0.19685-0.0159-0.254-0.0381-0.127-0.18415-0.127l-0.0317 0.0095q-0.1524 0.20002-0.16193 0.21908-0.0159 0.0381-0.0159 0.254 0 0.0381 3e-3 0.11748 6e-3 0.07937 6e-3 0.11748 0 0.03175-0.01 0.09525-6e-3 0.0635-6e-3 0.09525 0 0.0889 0.0159 0.23178 0 0.0127 0.0191 0.06985 0.019 0.05715 0.019 0.07937 0 0.05715-0.0635 0.05715-0.0508 0-0.1524-0.0064-0.0984-0.0063-0.14922-0.0063h-0.15875q-0.0317 0.0032-0.0413 0.0032l-0.01-0.01588q0.0572-0.40005 0.0572-0.67628v-0.381q-6e-3 -0.09525-0.0635-0.1778-0.0572-0.08573-0.14923-0.08573-0.0318 0.0095-0.1143 0.11112-0.0825 0.09842-0.0825 0.13018v0.4826q0 0.0127-6e-3 0.0381-3e-3 0.0254-3e-3 0.0381 0 0.2286 0.019 0.33972 0 0.01588 0.0191 0.06667 0.019 0.0508 0.019 0.0762l-0.019 0.05398h-0.0572q-0.0476 0-0.1397-0.0095-0.0889-0.0095-0.13653-0.0095-0.0286 0-0.0889 0.01588-0.0603 0.0127-0.0889 0.0127-0.0476 0-0.0571-0.04763 0.0667-0.20002 0.0667-0.6985v-0.25718q0-0.01588-0.01-0.04762-6e-3 -0.03175-6e-3 -0.04763 0-0.10795-0.0159-0.14288-0.0222-0.0508-0.0921-0.07303-0.127-0.04127-0.127-0.09525 0-0.0381 0.13018-0.20638l0.0476-0.10478q0.0286-0.0635 0.0825-0.0635 3e-3 0 0.15875 0.08573 0.15558 0.08572 0.17463 0.1016 0.0921 0.08572 0.1143 0.1397 0 0.0064 0.01 0.08573l0.0349 0.01588q0.16192-0.17145 0.22225-0.26035 0.0349-0.0508 0.12065-0.1651l0.01-0.0032q0.0127 0 0.18098 0.10795 0.17145 0.10478 0.19685 0.10795l0.0857 0.08255q0.0127 0.06985 0.0508 0.14922h3e-3q0.0413-0.01905 0.20955-0.23812 0.0508-0.06985 0.1524-0.20638l0.0159-0.0032q0.0159 0 0.0921 0.04445 0.17145 0.09843 0.35877 0.17145 0.12065 0.04445 0.12065 0.09208 0 0.03493-0.0444 0.15558-0.0413 0.12065-0.0413 0.16828v0.5842q0 0.0889 0.0444 0.127 0.0191 0.01905 0.127 0.06985 0.0603 0.02858 0.0603 0.0762zm2.902 0q0 0.03493-0.0222 0.06668l-0.11747 0.15875q-0.0984 0.13335-0.12065 0.13335-0.0254 0-0.2032-0.12065-0.17463-0.12065-0.19368-0.14922-0.0571-0.07937-0.0571-0.27305 0-0.04763 6e-3 -0.24448l3e-3 -0.2413q0-0.19685-0.0159-0.254-0.0381-0.127-0.18415-0.127l-0.0318 0.0095q-0.1524 0.20002-0.16192 0.21908-0.0159 0.0381-0.0159 0.254 0 0.0381 3e-3 0.11748 6e-3 0.07937 6e-3 0.11748 0 0.03175-0.01 0.09525-6e-3 0.0635-6e-3 0.09525 0 0.0889 0.0159 0.23178 0 0.0127 0.0191 0.06985 0.019 0.05715 0.019 0.07937 0 0.05715-0.0635 0.05715-0.0508 0-0.1524-0.0064-0.0984-0.0063-0.14923-0.0063h-0.15875q-0.0318 0.0032-0.0413 0.0032l-0.01-0.01588q0.0572-0.40005 0.0572-0.67628v-0.381q-6e-3 -0.09525-0.0635-0.1778-0.0571-0.08573-0.14922-0.08573-0.0318 0.0095-0.1143 0.11112-0.0825 0.09842-0.0825 0.13018v0.4826q0 0.0127-6e-3 0.0381-3e-3 0.0254-3e-3 0.0381 0 0.2286 0.019 0.33972 0 0.01588 0.0191 0.06667 0.019 0.0508 0.019 0.0762l-0.019 0.05398h-0.0572q-0.0476 0-0.1397-0.0095-0.0889-0.0095-0.13652-0.0095-0.0286 0-0.0889 0.01588-0.0603 0.0127-0.0889 0.0127-0.0476 0-0.0571-0.04763 0.0667-0.20002 0.0667-0.6985v-0.25718q0-0.01588-0.01-0.04762-6e-3 -0.03175-6e-3 -0.04763 0-0.10795-0.0159-0.14288-0.0222-0.0508-0.0921-0.07303-0.127-0.04127-0.127-0.09525 0-0.0381 0.13017-0.20638l0.0476-0.10478q0.0286-0.0635 0.0825-0.0635 3e-3 0 0.15875 0.08573 0.15557 0.08572 0.17462 0.1016 0.0921 0.08572 0.1143 0.1397 0 0.0064 0.01 0.08573l0.0349 0.01588q0.16193-0.17145 0.22225-0.26035 0.0349-0.0508 0.12065-0.1651l0.01-0.0032q0.0127 0 0.18097 0.10795 0.17145 0.10478 0.19685 0.10795l0.0857 0.08255q0.0127 0.06985 0.0508 0.14922h3e-3q0.0413-0.01905 0.20955-0.23812 0.0508-0.06985 0.1524-0.20638l0.0159-0.0032q0.0159 0 0.0921 0.04445 0.17145 0.09843 0.35878 0.17145 0.12065 0.04445 0.12065 0.09208 0 0.03493-0.0444 0.15558-0.0413 0.12065-0.0413 0.16828v0.5842q0 0.0889 0.0444 0.127 0.0191 0.01905 0.127 0.06985 0.0603 0.02858 0.0603 0.0762zm0.93027-2.0161q0 0.03492-0.0476 0.127-0.054 0.10478-0.0698 0.1397-0.0254 0.06667-0.0413 0.15558-0.01 0.0635-0.0445 0.0635-0.0381 0-0.1397-0.05715-0.0921-0.01905-0.0984-0.02222-0.0508-0.01905-0.0508-0.05715 3e-3 -0.0095 0.0381-0.07937 0.0349-0.07303 0.0857-0.21908 0.0508-0.14605 0.0825-0.2159 0.0667 0.0254 0.13335 0.04762 0.1524 0.06985 0.1524 0.11748zm-0.0159 0.86678-3e-3 0.05398-0.019 0.02857q-0.0254 0.1524-0.0254 0.18415v0.89535q0 0.02857 0.0191 0.10478 0.019 0.0762 0.019 0.10795v0.0381l-0.0127 0.02222h-0.0444q-0.0508 0-0.15557-0.0095-0.10478-0.0095-0.15558-0.0095-0.0222 0-0.0667 0.0095-0.0413 0.0095-0.0635 0.0095h-0.0318q-0.0286-0.0254-0.0286-0.05398 0-0.0381 0.0191-0.12065 0.019-0.08255 0.019-0.12065 0-0.10478 0.01-0.31115 0.01-0.20955 0.01-0.31432 0 0.01588 3e-3 -0.13335v-0.09525q0-0.08573-0.0286-0.1143-0.0254-0.03175-0.1143-0.06032-0.12065-0.04127-0.12065-0.09842 0-0.02223 0.054-0.0889 0.0667-0.08255 0.0953-0.13335 0.0762-0.14288 0.1143-0.14288 0.0603 0 0.18097 0.12065 0.1016 0.0381 0.20638 0.07937 0.127 0.0635 0.12065 0.1524zm1.4192 0.14288q0 0.0889-0.1016 0.1524-0.10478 0.11112-0.381 0.39052l-0.1397 0.13652-0.01 0.04763q0.15558 0.0762 0.20003 0.0889 0.0572 0.01588 0.0699 0.02222 0.14287 0.01588 0.19367 0.02858 0.0857 0.02222 0.0857 0.06985 0 0.06032-0.0952 0.18415-0.0572 0.07303-0.13335 0.16828-0.0222 0.0127-0.054 0.0127-0.0381 0-0.0889-0.02858-0.22542-0.13018-0.5842-0.18732-0.12065-0.03492-0.12065-0.1143v-0.0032q0.073-0.17462 0.073-0.62865 0-0.13652-0.01-0.26352-3e-3 -0.03175-0.0191-0.1016-0.0159-0.07303-0.0159-0.11112 0-0.0635 0.15557-0.127 0.10478-0.04128 0.21273-0.07938 0.18415-0.08255 0.30797-0.18098l0.0127-0.0032q0.0603 0 0.12383 0.1016 0.0222 0.04445 0.0635 0.13018 0.0127 0.02222 0.1524 0.12382 0.1016 0.07303 0.1016 0.17145zm-0.33338 0.23178q-0.0222-0.06033-0.12382-0.17462-0.1016-0.11748-0.15558-0.13652h-0.01q0 0.05398-6e-3 0.1651-3e-3 0.11112-3e-3 0.1651v0.1905q0 0.0381 0.01 0.07302 0.0508 0 0.15875-0.11112 0.10795-0.1143 0.13017-0.17145zm1.7812-0.33338q0 0.0508-0.0317 0.07303-0.17145 0.37148-0.2159 0.37148-0.0222 0-0.0318-0.0095-0.019-0.02858-0.0667-0.17462-0.0381-0.11112-0.1016-0.14922-0.12382 0.04127-0.12382 0.36195 0 0.03493 0.0127 0.05715-6e-3 0.07937-6e-3 0.12065v0.04127q0 0.11112 0.0349 0.1905 0.17145 0.05398 0.40005 0.09843 0.073 0.01587 0.073 0.05715-0.0381 0.07302-0.11748 0.2159-0.0984 0.1651-0.1651 0.1651-0.0699-0.0254-0.30797-0.1143-0.0921-0.03493-0.41275-0.09525-0.0635-0.0127-0.0635-0.06033 0-0.0381 0.0413-0.1651 0.0444-0.13018 0.0444-0.1905v-0.37465q0-0.0635-0.019-0.13652-6e-3 -0.06032-0.01-0.12065-6e-3 -0.04445-0.0953-0.1143-0.0413-0.0032-0.11113-0.0095l-0.019-0.0095q0-0.13652 0.0635-0.20002 0.0191-0.0381 0.10478-0.1778 0.0444-0.0762 0.073-0.0889l0.0191 0.0032q0.12383 0.0889 0.25718 0.16192 0.0984 0.05398 0.12065 0.07937 0.0318 0.03493 0.0476 0.13018 0.019 0.09208 0.0476 0.12065 0.0349-0.0254 0.14922-0.26988 0.10478-0.22542 0.1524-0.22542 0.0476 0 0.10478 0.16828 0.0381 0.02857 0.0953 0.13018 0.0571 0.09842 0.0571 0.1397zm1.7177 0.36512q0 0.04445-0.0159 0.13018-0.0159 0.08573-0.0159 0.127v0.23178q0 0.04445 0.0127 0.13018 0.0159 0.08572 0.0159 0.13018 0 0.0381-0.0698 0.0635-0.0508 0.01905-0.0794 0.01905-0.0794 0.0254-0.22542 0.12065-0.14605 0.09525-0.22225 0.12065h-0.0254q-0.0381 0-0.16828-0.0381-0.1524-0.04445-0.18415-0.0508-0.13335-0.02222-0.19685-0.02222-0.15557 0-0.27622 0.04762-0.073 0-0.073-0.04445 0-0.0127 0.12383-0.1778 0.127-0.16828 0.14922-0.18098 0.0254-0.0127 0.20955-0.0254 0.0349-0.02858 0.11113-0.14605 0.0794-0.12065 0.0921-0.1651-0.01 0-0.0413-0.0032h-0.16193q-0.2794 0-0.33337 0.02858h-6e-3q-0.0286-0.0064-0.0413-0.02858 0-0.02857 0.0127-0.08572 0.0159-0.05715 0.0159-0.08255 0.01-0.04762 0.01-0.27305 0-0.04762-0.0159-0.14605-0.0127-0.09842-0.0127-0.14605v-0.0381q0.0381-0.0254 0.0794-0.04445l0.44133-0.19685q0.0572-0.03175 0.0825-0.05398l0.0508-0.0032q0.054-0.0032 0.23812 0.06032 0.18733 0.0635 0.24448 0.0635 0.0222 0 0.0762-0.0635 0.0572-0.06667 0.0825-0.06667 0.0381 0 0.0413 0.0095v0.0127q0 0.05398-0.0667 0.16828l-0.073 0.12382q-0.0318 0.0381-0.14287 0.21272-0.10795 0.17462-0.10795 0.19685v0.0095q0.0794 0.01588 0.14605 0.01905 0.0191 0 0.1651-0.0063l0.14287-0.0032 0.0127 0.04762zm-0.47625-0.28892-0.01-0.01905q-0.0762-0.02857-0.2286-0.08572l-0.2286-0.08573q0 0.04445 0.01 0.13652 0.0127 0.09208 0.0127 0.13652 0 0.0032-6e-3 0.05715v0.01905q0 0.02223 3e-3 0.03493 0.0254 0.02858 0.18732 0.02858h0.1016q0.0984-0.06032 0.15875-0.22225zm-0.01 0.58738v-0.0032q-3e-3 -0.01588-0.0191-0.02858h-0.1651q-0.0381 0.01588-0.11748 0.13018-0.0794 0.1143-0.0794 0.15558v0.02858l0.019 0.0095q0.0381 0.0032 0.18097 0.04445l0.1397 0.04127 0.0318-0.0127q0-0.06032 3e-3 -0.18098 6e-3 -0.12382 6e-3 -0.18415zm2.394-0.71755q0 0.2921-0.0191 0.52705l-0.0286 0.35242q-3e-3 0.03175 3e-3 0.09208 0.01 0.06032 0.01 0.08573 0 0.0762-0.0127 0.0889t-0.23495 0.1397q-0.0984 0.06032-0.3302 0.18732h-6e-3q-0.019 0-0.13335-0.06985-0.1143-0.06985-0.1397-0.06985l-0.0159 0.01905v0.10795q0 0.05398 0.01 0.15875 0.01 0.10795 0.01 0.16192v0.04445q-0.0254 0.0063-0.254 0.08255-0.2286 0.0762-0.23495 0.0762-0.0508 0-0.0508-0.08255 0-0.0889 0.0191-0.2667 0.019-0.1778 0.019-0.2667 0-0.10795-6e-3 -0.12382-0.0159-0.04128-0.1016-0.04128-0.0127 0-0.0413 0.0064-0.0254 0.0063-0.0381 0.0063-0.073 0-0.073-0.09525 0-0.04762 0.0508-0.17145 0.054-0.127 0.0889-0.14922h0.1016l0.019-0.02222q-6e-3 -0.04445-6e-3 -0.0635 0-0.04445 0.0159-0.0762v-0.26035q0-0.16828-0.019-0.20955-0.0286-0.06032-0.14922-0.09525-0.0921-0.02857-0.0921-0.0762 0-0.02222 0.12383-0.19685 0.127-0.1778 0.14922-0.18415 0.0508 0.01588 0.24448 0.14288 0.19367 0.127 0.19685 0.15558 6e-3 0.05715 0.0127 0.11748l0.0127 0.0063q0.0159 0 0.1905-0.20955 0.17462-0.21272 0.18732-0.21272l0.0318 0.0032q0.0254 0.0381 0.16828 0.09525 0.14605 0.05398 0.1651 0.07303 0.11112 0.0063 0.1397 0.05398 0.0191 0.03175 0.0191 0.15875zm-0.4826 0.22542q0-0.08255-0.0699-0.13018-0.0699-0.0508-0.1524-0.0508-0.0508 0-0.2032 0.2159-0.01 0.0508-0.01 0.10478v0.46672q0 0.0063-3e-3 0.01588v0.0127q0 0.02223 0.20637 0.11112 0.17463 0.0762 0.1905 0.0762l0.0222-0.0095q0-0.35878 0.01-0.77152 0.01-0.01905 0.01-0.04127zm2.0034-0.17145q0 0.0508-0.0317 0.07303-0.17145 0.37148-0.2159 0.37148-0.0222 0-0.0318-0.0095-0.019-0.02858-0.0667-0.17462-0.0381-0.11112-0.1016-0.14922-0.12383 0.04127-0.12383 0.36195 0 0.03493 0.0127 0.05715-6e-3 0.07937-6e-3 0.12065v0.04127q0 0.11112 0.0349 0.1905 0.17145 0.05398 0.40005 0.09843 0.073 0.01587 0.073 0.05715-0.0381 0.07302-0.11747 0.2159-0.0984 0.1651-0.1651 0.1651-0.0698-0.0254-0.30798-0.1143-0.0921-0.03493-0.41275-0.09525-0.0635-0.0127-0.0635-0.06033 0-0.0381 0.0413-0.1651 0.0444-0.13018 0.0444-0.1905v-0.37465q0-0.0635-0.019-0.13652-6e-3 -0.06032-0.01-0.12065-6e-3 -0.04445-0.0953-0.1143-0.0413-0.0032-0.11112-0.0095l-0.0191-0.0095q0-0.13652 0.0635-0.20002 0.0191-0.0381 0.10477-0.1778 0.0444-0.0762 0.073-0.0889l0.019 0.0032q0.12382 0.0889 0.25717 0.16192 0.0984 0.05398 0.12065 0.07937 0.0318 0.03493 0.0476 0.13018 0.0191 0.09208 0.0476 0.12065 0.0349-0.0254 0.14923-0.26988 0.10477-0.22542 0.1524-0.22542 0.0476 0 0.10477 0.16828 0.0381 0.02857 0.0953 0.13018 0.0571 0.09842 0.0571 0.1397zm1.7685 1.0573q0 0.0254-0.1143 0.18732-0.11113 0.15875-0.13335 0.15875-0.0508 0-0.2159-0.10795-0.16193-0.10795-0.19368-0.15558-0.0127-0.01905-0.0318-0.0889-0.0159-0.05398-0.0349-0.05398l-0.0159 0.0032q-0.26987 0.26035-0.381 0.40005l-0.0444 0.0032q-0.0571 0.0032-0.21272-0.12065-0.15558-0.12382-0.18415-0.18732-0.0381-0.06985-0.0318-0.21908 6e-3 -0.15875 0.0127-0.27622 6e-3 -0.09843 6e-3 -0.07938 0.0127-0.04127 0.17145-0.0762 0.16192-0.03492 0.16192-0.05715 0-0.01905-0.10477-0.1397-0.1143-0.12382-0.12383-0.1524l-3e-3 -0.0127q0-0.0254 0.23177-0.23812v-0.0063q0-0.0095 0.0349-0.03175 0.0191-0.0127 0.127-0.12382 0.0857-0.0889 0.127-0.0889t0.0794 0.01905q0.3556 0.18415 0.4318 0.20955 0.0254 0.0095 0.14288 0.01905 0.13335 0.02857 0.13335 0.0889 0 0.0508-0.0349 0.16828-0.0318 0.1143-0.0318 0.1651v0.508q0.0222 0.0254 0.0222 0.0635 3e-3 0.0381 0.0191 0.06032 0.0286 0.03493 0.11747 0.0762 0.073 0.03175 0.073 0.08573zm-0.68263-0.64452-3e-3 -0.17145q0-0.06985-0.2286-0.16828-0.20638-0.09208-0.29845-0.09208-0.0762 0-0.0762 0.06668 0 0.0762 0.1016 0.1778 3e-3 0.0063 0.20637 0.20955 0.0286 0.0063 0.12383 0.0762 0.0857 0.0635 0.13652 0.0635l0.0127-0.0032q0.0254-0.10795 0.0254-0.15875zm-0.0127 0.32068q0-0.04763-0.1016-0.09525-0.0762-0.04128-0.14922-0.08255-0.11748-0.06667-0.14923-0.06667-0.0444 0.01905-0.0444 0.17145v0.06667q0 0.11112 0.0381 0.19685 0.0508 0.1143 0.14605 0.1143 0.0635 0 0.16193-0.11748 0.0984-0.12065 0.0984-0.18732zm1.9368-0.84138q0 0.0381-0.0984 0.18415t-0.127 0.14605q-0.0254 0-0.16192-0.10795-0.13335-0.10795-0.1397-0.10795l-0.019 0.0127-3e-3 0.0762q0 0.03175 6e-3 0.09208 6e-3 0.06032 6e-3 0.08572 0 0.04763-6e-3 0.14288-6e-3 0.09208-6e-3 0.1397 0 0.17145 6e-3 0.2032 0.01 0.0508 0.0667 0.06667 0.0603 0.01588 0.18415 0.04763 0.14605 0.0381 0.21907 0.09208v0.07303q0 0.0095-0.0286 0.04445-0.0286 0.03493-0.0286 0.0381-0.11112 0.28892-0.18415 0.28892-0.0222 0-0.11112-0.0635-0.32703-0.1905-0.61278-0.2413l-0.0381-0.0381-3e-3 -0.06667q-3e-3 -0.04763 0.0254-0.15875 0.0286-0.1143 0.0286-0.1524 0-0.07937 0.0127-0.10478v-0.32385q0-0.04445-0.0254-0.15558-0.0254-0.1016-0.0222-0.15875l3e-3 -0.05715q0.0254-0.04127 0.0635-0.06667 0.2794-0.0762 0.47943-0.23812 0.0635-0.0508 0.10795-0.0508 0.0254 0 0.0984 0.07937 0.0254 0.02857 0.0762 0.0889 0.23178 0.14922 0.23178 0.1905zm1.6574 0.05398q-0.073 0.13018-0.073 0.66675v0.58738q0 0.03175 0.01 0.09208 0.01 0.06032 0.01 0.09208 0 0.07937-0.127 0.14922-0.10795 0.06033-0.2286 0.13018-0.0762 0.0381-0.33973 0.127-0.2794 0.09525-0.32702 0.09525-0.0508 0-0.0508-0.06032l3e-3 -0.03175q0.32703-0.13335 0.42228-0.2032 0.16192-0.12065 0.16192-0.33655 0 0.06985-6e-3 -0.1016-3e-3 -0.17462-3e-3 -0.21272v-0.04445q0-0.09208 0.019-0.27622 0.0191-0.18415 0.0191-0.2794 0-0.14605-0.01-0.18415-0.0254-0.09525-0.12065-0.11748-0.0699-0.02857-0.0857-0.02857h-0.0254q-0.17463 0.2032-0.18098 0.21908-0.0127 0.03175-0.0127 0.32702v0.32702q0.0191 0.03175 0.0508 0.04763 0.0159 0.0032 0.0317 0.0095 0.0508 0.04445 0.0667 0.05398 0.0286 0.01588 0.0825 0.01905l0.01 0.04445q-0.13335 0.22225-0.1524 0.25082-0.073 0.10478-0.11747 0.10478-0.0444 0-0.21273-0.1397l-0.1905-0.1016q-0.0794-0.04445-0.0794-0.06985 0-0.07303 0.0286-0.22225 0.0286-0.14922 0.0286-0.22225v-1.416q0-0.03175-0.0159-0.1016t-0.0159-0.1016q0-0.05715 0.0857-0.09525 0.0349 0.01905 0.16193 0.01905 0.0444 0 0.13017-0.0095 0.0857-0.0095 0.13018-0.0095l0.0318 0.0127 0.01 0.03175q0 0.06985-0.0286 0.20955-0.0254 0.1397-0.0254 0.20955v0.59372q0 0.02858 0.0127 0.03175 0.36195-0.44768 0.3937-0.44768 0.0254 0 0.0857 0.0381 0.20955 0.09208 0.4445 0.21272zm1.378 0.15558q0 0.0889-0.1016 0.1524-0.10478 0.11112-0.381 0.39052l-0.1397 0.13652-0.01 0.04763q0.15558 0.0762 0.20003 0.0889 0.0572 0.01588 0.0699 0.02222 0.14287 0.01588 0.19367 0.02858 0.0857 0.02222 0.0857 0.06985 0 0.06032-0.0953 0.18415-0.0571 0.07303-0.13335 0.16828-0.0222 0.0127-0.054 0.0127-0.0381 0-0.0889-0.02858-0.22542-0.13018-0.5842-0.18732-0.12065-0.03492-0.12065-0.1143v-0.0032q0.073-0.17462 0.073-0.62865 0-0.13652-0.01-0.26352-3e-3 -0.03175-0.019-0.1016-0.0159-0.07303-0.0159-0.11112 0-0.0635 0.15557-0.127 0.10478-0.04128 0.21273-0.07938 0.18415-0.08255 0.30797-0.18098l0.0127-0.0032q0.0603 0 0.12383 0.1016 0.0222 0.04445 0.0635 0.13018 0.0127 0.02222 0.1524 0.12382 0.1016 0.07303 0.1016 0.17145zm-0.33338 0.23178q-0.0222-0.06033-0.12382-0.17462-0.1016-0.11748-0.15558-0.13652h-0.01q0 0.05398-6e-3 0.1651-3e-3 0.11112-3e-3 0.1651v0.1905q0 0.0381 0.01 0.07302 0.0508 0 0.15875-0.11112 0.10795-0.1143 0.13017-0.17145z" stroke-width=".26458" aria-label="Die Deutsche Programmiersprache"/>
  <path d="m97.967 52.142q0 0.04939-0.03881 0.07056-0.01058 0.0053-0.05468 0.01764-0.1711 0.07585-0.28751 0.20108l-0.02117 0.01058q-0.02293 0-0.11289-0.04586-0.19932-0.04763-0.32456-0.04763-0.13229 0-0.16051 0.01588-0.02822 0.01588-0.1023 0.13053-0.04939 0.07585-0.06703 0.07585-0.01587 0-0.02999-0.01411-0.01235-0.01411-0.01235-0.02999v-0.0071q0.04939-0.05997 0.09701-0.1076 0.10407-0.13406 0.21696-0.26988 0.06703-0.02117 0.24518-0.02117 0.05115 0 0.15169 0.0088 0.10231 0.0088 0.1517 0.0088 0.02999 0 0.03528-0.0018l0.0053-0.0053q0-0.15522-0.03175-0.23107-0.04233-0.09878-0.16404-0.15522-0.06879-0.03175-0.11642-0.03175-0.04233 0-0.11112 0.02117-0.07761 0.02117-0.09701 0.04586-0.01764 0.02469-0.01764 0.08467 0 0.0053 0.0035 0.01588 0.0035 0.0088 0.0035 0.01411 0-0.01411-0.01587 0.14464-0.01411 0.02822-0.28399 0.24165-0.26811 0.21343-0.30692 0.22754-0.0388 0-0.0388-0.03175 0.01235-0.01411 0.08643-0.07585 0.24871-0.20814 0.24871-0.42333v-0.03704q-0.02469-0.05292-0.02646-0.08114-0.02117-0.04763-0.07408-0.0829-0.05115-0.03704-0.10231-0.03704-0.01235 0-0.03528 0.0035-0.02293 0.0018-0.03528 0.0018-0.01058-0.0088-0.01058-0.02293 0-0.01764 0.0635-0.1076 0.0194-0.03175 0.0388-0.06526 0.03175-0.04762 0.04939-0.04762l0.01411 0.0018q0.04057 0.04586 0.11818 0.09701h0.0018q0.02999 0 0.02999-0.08114 0-0.03881-0.02999-0.13935-0.02822-0.10054-0.02822-0.13582 0.0071-0.01235 0.01587-0.0247 0.06879-0.0035 0.22931-0.05821 0.14993-0.04939 0.22401-0.08819 0.06703-0.04586 0.09349-0.04586 0.04057 0 0.04586 0.03704 0.09349 0.09172 0.19226 0.18697 0.04939 0.04762 0.1076 0.07761 0.0441 0.02293 0.05115 0.04057-0.0053 0.01058-0.12524 0.07937-0.11994 0.06879-0.12171 0.07232v0.0018q0.01587 0.01235 0.02646 0.01587l0.09701 0.01058q0.19756 0.06703 0.21343 0.0829 0.08114 0.04939 0.08114 0.13406l0.0053 0.01058q-0.0018 0.02117-0.0018 0.0635 0 0.1076 0.02469 0.21343 0.01764 0.07585 0.01764 0.08819zm-0.54681-0.6544q-0.03351-0.03351-0.15522-0.13935-0.13053-0.11465-0.14817-0.12347h-0.0053q-0.0053 0.02293-0.0053 0.05115 0 0.25047 0.02469 0.42862h0.0088q0.03704-0.02293 0.14817-0.10936 0.11289-0.08643 0.13229-0.1076zm1.2806 0.23636q0 0.04939-0.05644 0.08467-0.05821 0.06174-0.21167 0.21696l-0.07761 0.07585-0.0053 0.02646q0.08643 0.04233 0.11112 0.04939 0.03175 0.0088 0.03881 0.01235 0.07938 0.0088 0.1076 0.01588 0.04762 0.01235 0.04762 0.0388 0 0.03351-0.05292 0.10231-0.03175 0.04057-0.07408 0.09349-0.01235 0.0071-0.02999 0.0071-0.02117 0-0.04939-0.01588-0.12524-0.07232-0.32456-0.10407-0.06703-0.0194-0.06703-0.0635v-0.0018q0.04057-0.09701 0.04057-0.34925 0-0.07585-0.0053-0.1464-0.0018-0.01764-0.01058-0.05644-0.0088-0.04057-0.0088-0.06174 0-0.03528 0.08643-0.07055 0.05821-0.02293 0.11818-0.0441 0.1023-0.04586 0.1711-0.10054l0.0071-0.0018q0.03351 0 0.06879 0.05645 0.01235 0.02469 0.03528 0.07232 0.0071 0.01235 0.08467 0.06879 0.05644 0.04057 0.05644 0.09525zm-0.18521 0.12876q-0.01235-0.03351-0.06879-0.09701-0.05644-0.06526-0.08643-0.07585h-0.0053q0 0.02999-0.0035 0.09172-0.0018 0.06174-0.0018 0.09172v0.10583q0 0.02117 0.0053 0.04057 0.02822 0 0.08819-0.06174 0.05997-0.0635 0.07232-0.09525zm1.1307-0.27693q0 0.03351-0.0194 0.10936-0.0194 0.07585-0.0194 0.1076 0 0.01411 0.0035 0.03528-0.0053 0.02117-0.0053 0.11994 0 0.09878 0.0247 0.19403 0.01058 0.04057 0.01058 0.06703 0 0.04763-0.14993 0.10407-0.19932 0.13406-0.23636 0.13406-0.01764 0-0.04586-0.01058-0.02822-0.01235-0.03704-0.02469-0.03704-0.0247-0.2346-0.07761l-0.11818-0.03175q-0.01764 0-0.01764-0.02293 0 0.02469 0.04057-0.14464 0.02646-0.10936 0.02646-0.25224 0-0.01235-0.01764-0.13758-0.01764-0.127-0.0194-0.13053 0.1023-0.04233 0.22225-0.10583-0.0053-0.01235-0.11112-0.06879-0.10583-0.05821-0.10583-0.0635 0-0.04233 0.02293-0.127 0.02469-0.08643 0.02469-0.13053 0-0.03175 0.0018-0.03528 0.0035-0.01764 0.0247-0.01764 0.03351 0 0.08643 0.06879 0.04586 0.03351 0.09878 0.07761 0.04939 0.07761 0.39511 0.26106 0.12876 0.06879 0.15522 0.10231zm-0.28751 0.5962q-0.01235-0.0194-0.01235-0.14817 0-0.04762 0.0053-0.14288 0.0071-0.09525 0.0071-0.14288 0-0.04057-0.08643-0.10936-0.08643-0.06879-0.12876-0.06879-0.02293 0-0.02293 0.02646v0.31926l0.0053 0.01058q0 0.02293-0.0053 0.07055-0.0053 0.04586-0.0053 0.06879v0.03528l-0.0053 0.01588q0 0.03351 0.15522 0.07761 0.0035 0 0.02646 0.01411 0.02469 0.01235 0.03704 0.01235 0.02293 0 0.02999-0.03881zm0.84491-1.0089q0 0.0194-0.0265 0.07055-0.03 0.05821-0.0388 0.07761-0.0141 0.03704-0.0229 0.08643-5e-3 0.03528-0.0247 0.03528-0.0212 0-0.0776-0.03175-0.05116-0.01058-0.05469-0.01235-0.02822-0.01058-0.02822-0.03175 0.0018-0.0053 0.02117-0.0441 0.0194-0.04057 0.04762-0.12171 0.02823-0.08114 0.04587-0.11994 0.037 0.01411 0.0741 0.02646 0.0847 0.0388 0.0847 0.06526zm-9e-3 0.48154-2e-3 0.02999-0.0106 0.01588q-0.0141 0.08467-0.0141 0.1023v0.49742q0 0.01588 0.0106 0.05821t0.0106 0.05997v0.02117l-7e-3 0.01235h-0.0247q-0.0282 0-0.0864-0.0053t-0.08643-0.0053q-0.01235 0-0.03704 0.0053-0.02293 0.0053-0.03528 0.0053h-0.01764q-0.01588-0.01411-0.01588-0.02999 0-0.02117 0.01058-0.06703t0.01058-0.06703q0-0.05821 0.0053-0.17286 0.0053-0.11642 0.0053-0.17462 0 0.0088 0.0018-0.07408v-0.05292q0-0.04763-0.01587-0.0635-0.01411-0.01764-0.0635-0.03351-0.06703-0.02293-0.06703-0.05468 0-0.01235 0.02999-0.04939 0.03704-0.04586 0.05292-0.07408 0.04233-0.07937 0.0635-0.07937 0.03351 0 0.10055 0.06703 0.0564 0.02117 0.11465 0.0441 0.0705 0.03528 0.067 0.08467zm0.78845 0.07937q0 0.04939-0.0564 0.08467-0.0582 0.06174-0.21167 0.21696l-0.0776 0.07585-5e-3 0.02646q0.0864 0.04233 0.11112 0.04939 0.0318 0.0088 0.0388 0.01235 0.0794 0.0088 0.1076 0.01588 0.0476 0.01235 0.0476 0.0388 0 0.03351-0.0529 0.10231-0.0318 0.04057-0.0741 0.09349-0.0123 0.0071-0.03 0.0071-0.0212 0-0.0494-0.01588-0.12524-0.07232-0.32456-0.10407-0.067-0.0194-0.067-0.0635v-0.0018q0.0406-0.09701 0.0406-0.34925 0-0.07585-5e-3 -0.1464-2e-3 -0.01764-0.0106-0.05644-9e-3 -0.04057-9e-3 -0.06174 0-0.03528 0.0864-0.07055 0.0582-0.02293 0.11818-0.0441 0.10231-0.04586 0.1711-0.10054l7e-3 -0.0018q0.0335 0 0.0688 0.05645 0.0123 0.02469 0.0353 0.07232 7e-3 0.01235 0.0847 0.06879 0.0564 0.04057 0.0564 0.09525zm-0.1852 0.12876q-0.0123-0.03351-0.0688-0.09701-0.0564-0.06526-0.0864-0.07585h-5e-3q0 0.02999-4e-3 0.09172-2e-3 0.06174-2e-3 0.09172v0.10583q0 0.02117 5e-3 0.04057 0.0282 0 0.0882-0.06174 0.06-0.0635 0.0723-0.09525zm1.277 0.44626q0 0.0194-0.0582 0.09701-0.0564 0.07761-0.0758 0.08996-0.0141 0-0.0935-0.05644-0.0794-0.04762-0.10936-0.07761-0.0494-0.04939-0.0494-0.12171 0-0.05115 5e-3 -0.15346 5e-3 -0.10407 5e-3 -0.15522 0-0.02469-4e-3 -0.07585-2e-3 -0.05115-2e-3 -0.07585-7e-3 -0.0194-0.0494-0.0441-0.0406-0.0247-0.0617-0.0247-0.0212 0-0.067 0.05645-0.0459 0.05644-0.0547 0.08467 0 0.01588-4e-3 0.04586-2e-3 0.02999-2e-3 0.04586v0.32985q7e-3 0.01235 0.0159 0.07585 0.0106 0.0635 0.0106 0.08467t-7e-3 0.02646q-5e-3 0.0053-0.0265 0.0053-0.0176 0-0.0547-0.0053-0.0353-0.0053-0.0529-0.0053 0.0229 0-0.0335 0.0018-0.0564 0.0035-0.0688 0.0035h-0.0176q-0.0335 0-0.0441-0.01058v-0.0194q0-0.01411 0.0106-0.07937t0.0106-0.07761q5e-3 -0.03881 5e-3 -0.13935v-0.23636q0-0.07761-0.0106-0.10231-0.0159-0.03175-0.0776-0.0635-0.0406-0.02117-0.0406-0.04939 0-0.04233 0.0723-0.12524 9e-3 -0.02999 0.0159-0.04762 0.0159-0.04057 0.0441-0.04057 0.0194 0 0.0794 0.05292 0.0776 0.03351 0.1076 0.05821 0.0441 0.03704 0.0547 0.09878 5e-3 0.03351 0.0176 0.03881 0.0123 0 0.1076-0.12171 0.0953-0.12171 0.10054-0.12171 0.0247 0 0.0829 0.03528 0.0459 0.02822 0.0494 0.03175 0.0529 0.02293 0.15522 0.05115 0.0212 0.01764 0.0212 0.04057 0 0.03881-0.0194 0.11642-0.0176 0.07585-0.0176 0.11465 0 0.0088 5e-3 0.01764-5e-3 0.12171-5e-3 0.15699 0 0.09349 7e-3 0.12171 0.0141 0.05821 0.0723 0.08467 0.0494 0.02293 0.0494 0.0635zm1.1289-0.05468q0 0.0247-0.0847 0.12876-0.0194 0.06174-0.0406 0.07761-0.0423 0-0.0741-0.02293-0.0617-0.0441-0.0917-0.05821-0.0635-0.02822-0.0882-0.06879-7e-3 -0.01058-0.03-0.07585-4e-3 -0.0088-7e-3 -0.01235l-0.0265 0.02293q-4e-3 0.0035-0.0829 0.10583l-0.0811 0.10407q-5e-3 0.0053-0.0159 0.0053-0.0335 0-0.11995-0.06174-0.0388-0.0194-0.18168-0.06703-0.0159-0.01411-0.0159-0.04233 0-0.0194 0.0212-0.07056 0.0212-0.05292 0.0212-0.07232v-0.40216q0-0.02117-0.0688-0.05292-0.067-0.03175-0.067-0.04939 0-0.01588 0.0106-0.03175 0.0265-0.03881 0.0776-0.11818 0.0441-0.06703 0.06-0.06703 0.0318 0 0.0882 0.03881l0.0847 0.05821q0.0212 0.01411 0.0794 0.03881 0.0353 0.01411 0.0353 0.03351 0 0.02293-0.0106 0.08996l-0.0106 0.06526q-0.0159 0.13406-0.0159 0.21343 0 0.1464 4e-3 0.16404 0.0159 0.05644 0.0988 0.10231h0.0194q0.0547-0.05468 0.10054-0.12347 0.0141-0.02822 0.0141-0.20461v-0.12171q0-0.11465-0.0159-0.20461 0-0.0018-0.0176-0.04233-0.0123-0.02822-0.0123-0.04057 0-0.01411 0.0106-0.02117 0.0282 0 0.0847 0.01058t0.0847 0.01058q0.0547 0 0.1076-0.0053 0.0247-0.01588 0.0529-0.01588l0.0106 0.0053v0.02117q0 0.02646-0.0318 0.12876-0.0212 0.13053-0.0212 0.45861 0 0.05468 0.0282 0.0829 0.0194 0.0194 0.0794 0.04586 0.0388 0.01764 0.0388 0.04057zm1.0954 0.05468q0 0.0194-0.0582 0.09701-0.0564 0.07761-0.0758 0.08996-0.0141 0-0.0935-0.05644-0.0794-0.04762-0.10936-0.07761-0.0494-0.04939-0.0494-0.12171 0-0.05115 5e-3 -0.15346 5e-3 -0.10407 5e-3 -0.15522 0-0.02469-4e-3 -0.07585-2e-3 -0.05115-2e-3 -0.07585-7e-3 -0.0194-0.0494-0.0441-0.0406-0.0247-0.0617-0.0247-0.0212 0-0.067 0.05645-0.0459 0.05644-0.0547 0.08467 0 0.01588-4e-3 0.04586-2e-3 0.02999-2e-3 0.04586v0.32985q7e-3 0.01235 0.0159 0.07585 0.0106 0.0635 0.0106 0.08467t-7e-3 0.02646q-5e-3 0.0053-0.0264 0.0053-0.0176 0-0.0547-0.0053-0.0353-0.0053-0.0529-0.0053 0.0229 0-0.0335 0.0018-0.0564 0.0035-0.0688 0.0035h-0.0176q-0.0335 0-0.0441-0.01058v-0.0194q0-0.01411 0.0106-0.07937t0.0106-0.07761q5e-3 -0.03881 5e-3 -0.13935v-0.23636q0-0.07761-0.0106-0.10231-0.0159-0.03175-0.0776-0.0635-0.0406-0.02117-0.0406-0.04939 0-0.04233 0.0723-0.12524 9e-3 -0.02999 0.0159-0.04762 0.0159-0.04057 0.0441-0.04057 0.0194 0 0.0794 0.05292 0.0776 0.03351 0.10759 0.05821 0.0441 0.03704 0.0547 0.09878 5e-3 0.03351 0.0176 0.03881 0.0123 0 0.1076-0.12171 0.0953-0.12171 0.10054-0.12171 0.0247 0 0.0829 0.03528 0.0459 0.02822 0.0494 0.03175 0.0529 0.02293 0.15523 0.05115 0.0212 0.01764 0.0212 0.04057 0 0.03881-0.0194 0.11642-0.0176 0.07585-0.0176 0.11465 0 0.0088 5e-3 0.01764-5e-3 0.12171-5e-3 0.15699 0 0.09349 7e-3 0.12171 0.0141 0.05821 0.0723 0.08467 0.0494 0.02293 0.0494 0.0635zm1.023 0.17815q0 0.01058-4e-3 0.02117-0.0459 0.05468-0.13759 0.16404-0.0811 0.09349-0.11994 0.09349-0.0159 0-0.0847-0.01235-0.067-0.01235-0.0758-0.01764-0.0212 0-0.0653-0.0035-0.0441-0.0018-0.067-0.0018-0.10407 0-0.21872 0.0194-9e-3 0-0.037 0.01058-0.0265 0.01058-0.0406 0.01058-0.0459 0-0.0459-0.02293 0-0.02117 0.0459-0.10054 0.0406-0.07232 0.0617-0.09878l0.0106-0.0053q0.0688-0.0071 0.0811-0.02293l0.0529-0.06879q0-0.04057-0.25576-0.13229-7e-3 -0.0071-7e-3 -0.02999 0-0.01588 0.0159-0.05468 0.0159-0.04057 0.0159-0.05821v-0.36862q0-0.02469-0.0141-0.07585-0.0141-0.05292-0.0141-0.07761 0-0.02999 0.1076-0.07408 0.0441-0.01588 0.13053-0.05115 0.16404-0.10407 0.18697-0.10407 0.0212 0 0.0794 0.03881 0.0653 0.04586 0.0882 0.05292 0.0441 0.01588 0.0582 0.03351h0.0406q2e-3 -0.0018 0.0194-0.06174 0.0194-0.06174 0.0335-0.06703 0.0141 0.0053 0.0635 0.0441 0.0512 0.03881 0.0653 0.05292l5e-3 0.02646q0 0.01588-0.067 0.09701-0.0265 0.06174-0.0265 0.29633 0 0.05115 4e-3 0.15346 5e-3 0.10231 5e-3 0.15346 0.0247 0.06879 0.0265 0.1076 0.0106 0.0194 0.0547 0.0829 0.0282 0.04057 0.0282 0.05115zm-0.37571-0.38629v-0.30868q0-0.04057-0.0952-0.09878-0.0176-0.01058-0.13758-0.07055l-7e-3 -0.0018q-0.0123 0-0.0123 0.01588 0 0.01235 5e-3 0.03528 5e-3 0.02117 5e-3 0.03175 5e-3 0.10583 5e-3 0.20285v0.06526q0 0.03175-4e-3 0.09878-4e-3 0.06526-4e-3 0.09701 0 0.01058 0.12523 0.0829 0.0335-0.0088 0.11289-0.12347zm0.12877 0.45861q-4e-3 -0.0071-0.0776-0.127-0.0441-0.07055-0.0459-0.1711l-0.0106-0.0071q-7e-3 0.0018-0.0265 0.0018-0.037 0.03704-0.11465 0.12876-0.09 0.10583-0.097 0.12876l5e-3 0.01058h0.0282l0.27164 0.0247 0.0159 0.01058zm1.2188-0.6791q0 0.02469-9e-3 0.07232t-9e-3 0.07056v0.12876q0 0.02469 7e-3 0.07232 9e-3 0.04763 9e-3 0.07232 0 0.02117-0.0388 0.03528-0.0282 0.01058-0.0441 0.01058-0.0441 0.01411-0.12524 0.06703-0.0811 0.05292-0.12347 0.06703h-0.0141q-0.0212 0-0.0935-0.02117-0.0847-0.0247-0.1023-0.02822-0.0741-0.01235-0.10936-0.01235-0.0864 0-0.15346 0.02646-0.0406 0-0.0406-0.0247 0-0.0071 0.0688-0.09878 0.0706-0.09349 0.0829-0.10054 0.0141-0.0071 0.11642-0.01411 0.0194-0.01588 0.0617-0.08114 0.0441-0.06703 0.0512-0.09172-5e-3 0-0.0229-0.0018h-0.09q-0.15522 0-0.18521 0.01588h-4e-3q-0.0159-0.0035-0.0229-0.01588 0-0.01588 7e-3 -0.04763 9e-3 -0.03175 9e-3 -0.04586 5e-3 -0.02646 5e-3 -0.15169 0-0.02646-9e-3 -0.08114-7e-3 -0.05468-7e-3 -0.08114v-0.02117q0.0212-0.01411 0.0441-0.02469l0.24518-0.10936q0.0318-0.01764 0.0459-0.02999l0.0282-0.0018q0.03-0.0018 0.13229 0.03351 0.10407 0.03528 0.13582 0.03528 0.0123 0 0.0423-0.03528 0.0318-0.03704 0.0459-0.03704 0.0212 0 0.0229 0.0053v0.0071q0 0.02999-0.037 0.09349l-0.0406 0.06879q-0.0176 0.02117-0.0794 0.11818-0.06 0.09701-0.06 0.10936v0.0053q0.0441 0.0088 0.0811 0.01058 0.0106 0 0.0917-0.0035l0.0794-0.0018 7e-3 0.02646zm-0.26459-0.16051-5e-3 -0.01058q-0.0423-0.01588-0.127-0.04763l-0.127-0.04762q0 0.02469 5e-3 0.07585 7e-3 0.05115 7e-3 0.07585 0 0.0018-4e-3 0.03175v0.01058q0 0.01235 2e-3 0.0194 0.0141 0.01587 0.10407 0.01587h0.0564q0.0547-0.03351 0.0882-0.12347zm-5e-3 0.32632v-0.0018q-2e-3 -0.0088-0.0106-0.01588h-0.0917q-0.0212 0.0088-0.0653 0.07232-0.0441 0.0635-0.0441 0.08643v0.01588l0.0106 0.0053q0.0212 0.0018 0.10054 0.02469l0.0776 0.02293 0.0176-0.0071q0-0.03351 2e-3 -0.10054 4e-3 -0.06879 4e-3 -0.10231zm1.2965 0.21872q0 0.01411-0.0635 0.10407-0.0617 0.08819-0.0741 0.08819-0.0282 0-0.11995-0.05997-0.09-0.05997-0.1076-0.08643-7e-3 -0.01058-0.0176-0.04939-9e-3 -0.02999-0.0194-0.02999l-9e-3 0.0018q-0.14993 0.14464-0.21166 0.22225l-0.0247 0.0018q-0.0318 0.0018-0.11818-0.06703-0.0864-0.06879-0.1023-0.10407-0.0212-0.03881-0.0176-0.12171 4e-3 -0.0882 7e-3 -0.15346 4e-3 -0.05468 4e-3 -0.0441 7e-3 -0.02293 0.0952-0.04233 0.09-0.0194 0.09-0.03175 0-0.01058-0.0582-0.07761-0.0635-0.06879-0.0688-0.08467l-2e-3 -0.0071q0-0.01411 0.12877-0.13229v-0.0035q0-0.0053 0.0194-0.01764 0.0106-0.0071 0.0706-0.06879 0.0476-0.04939 0.0706-0.04939 0.0229 0 0.0441 0.01058 0.19756 0.1023 0.23989 0.11642 0.0141 0.0053 0.0794 0.01058 0.0741 0.01588 0.0741 0.04939 0 0.02822-0.0194 0.09349-0.0176 0.0635-0.0176 0.09172v0.28222q0.0123 0.01411 0.0123 0.03528 2e-3 0.02117 0.0106 0.03351 0.0159 0.0194 0.0653 0.04233 0.0406 0.01764 0.0406 0.04762zm-0.37924-0.35807-2e-3 -0.09525q0-0.03881-0.127-0.09349-0.11465-0.05115-0.16581-0.05115-0.0423 0-0.0423 0.03704 0 0.04233 0.0564 0.09878 2e-3 0.0035 0.11466 0.11642 0.0159 0.0035 0.0688 0.04233 0.0476 0.03528 0.0758 0.03528l7e-3 -0.0018q0.0141-0.05997 0.0141-0.08819zm-7e-3 0.17815q0-0.02646-0.0564-0.05292-0.0423-0.02293-0.0829-0.04586-0.0653-0.03704-0.0829-0.03704-0.0247 0.01058-0.0247 0.09525v0.03704q0 0.06174 0.0212 0.10936 0.0282 0.0635 0.0811 0.0635 0.0353 0 0.09-0.06526 0.0547-0.06703 0.0547-0.10407zm1.4781 0.22401q0 0.0194-0.0582 0.09701-0.0564 0.07761-0.0759 0.08996-0.0141 0-0.0935-0.05644-0.0794-0.04762-0.10936-0.07761-0.0494-0.04939-0.0494-0.12171 0-0.05115 5e-3 -0.15346 5e-3 -0.10407 5e-3 -0.15522 0-0.02469-4e-3 -0.07585-2e-3 -0.05115-2e-3 -0.07585-7e-3 -0.0194-0.0494-0.0441-0.0406-0.0247-0.0617-0.0247-0.0212 0-0.067 0.05645-0.0459 0.05644-0.0547 0.08467 0 0.01588-4e-3 0.04586-2e-3 0.02999-2e-3 0.04586v0.32985q7e-3 0.01235 0.0159 0.07585 0.0106 0.0635 0.0106 0.08467t-7e-3 0.02646q-5e-3 0.0053-0.0265 0.0053-0.0176 0-0.0547-0.0053-0.0353-0.0053-0.0529-0.0053 0.0229 0-0.0335 0.0018-0.0564 0.0035-0.0688 0.0035h-0.0176q-0.0335 0-0.0441-0.01058v-0.0194q0-0.01411 0.0106-0.07937t0.0106-0.07761q5e-3 -0.03881 5e-3 -0.13935v-0.23636q0-0.07761-0.0106-0.10231-0.0159-0.03175-0.0776-0.0635-0.0406-0.02117-0.0406-0.04939 0-0.04233 0.0723-0.12524 9e-3 -0.02999 0.0159-0.04762 0.0159-0.04057 0.0441-0.04057 0.0194 0 0.0794 0.05292 0.0776 0.03351 0.1076 0.05821 0.0441 0.03704 0.0547 0.09878 5e-3 0.03351 0.0176 0.03881 0.0123 0 0.10759-0.12171 0.0952-0.12171 0.10055-0.12171 0.0247 0 0.0829 0.03528 0.0459 0.02822 0.0494 0.03175 0.0529 0.02293 0.15522 0.05115 0.0212 0.01764 0.0212 0.04057 0 0.03881-0.0194 0.11642-0.0176 0.07585-0.0176 0.11465 0 0.0088 5e-3 0.01764-5e-3 0.12171-5e-3 0.15699 0 0.09349 7e-3 0.12171 0.0141 0.05821 0.0723 0.08467 0.0494 0.02293 0.0494 0.0635zm0.50271-0.03175q0 0.04233-0.0353 0.11642-0.037 0.08467-0.0723 0.08467-0.0547-0.03528-0.14111-0.09349l-0.0935-0.04586q-0.0176-0.0053-0.0353-0.01058-0.0106-0.0071-0.0106-0.02999 0-0.03351 0.0159-0.05644 0.0159-0.10407 0.0159-0.22931 0-0.02822-4e-3 -0.08467-4e-3 -0.05821-4e-3 -0.08643 0-0.03175 5e-3 -0.09349 5e-3 -0.0635 5e-3 -0.09525v-0.43392q0-0.01764-0.0123-0.05292t-0.0123-0.05115q0-0.02293 0.0106-0.03351h0.0229q0.0176 0 0.0511 0.0053t0.0512 0.0053q9e-3 0 0.0423-0.0053 0.0141 0.0035 0.0247 0.0053 0.0141 0 0.0406-0.0053t0.0406-0.0053h0.0194q5e-3 0.0018 0.0159 0.01235v0.02646q0 0.0194-0.0123 0.08467l-0.0141 0.06703-4e-3 0.7426q0 0.01411-4e-3 0.0441t-4e-3 0.0441q0 0.05821 0.0476 0.09878 0.0476 0.0388 0.0476 0.07585zm0.75671-0.54328q0 0.04939-0.0564 0.08467-0.0582 0.06174-0.21166 0.21696l-0.0776 0.07585-5e-3 0.02646q0.0864 0.04233 0.11113 0.04939 0.0318 0.0088 0.0388 0.01235 0.0794 0.0088 0.1076 0.01588 0.0476 0.01235 0.0476 0.0388 0 0.03351-0.0529 0.10231-0.0317 0.04057-0.0741 0.09349-0.0123 0.0071-0.03 0.0071-0.0212 0-0.0494-0.01588-0.12524-0.07232-0.32455-0.10407-0.067-0.0194-0.067-0.0635v-0.0018q0.0406-0.09701 0.0406-0.34925 0-0.07585-5e-3 -0.1464-2e-3 -0.01764-0.0106-0.05644-9e-3 -0.04057-9e-3 -0.06174 0-0.03528 0.0864-0.07055 0.0582-0.02293 0.11818-0.0441 0.10231-0.04586 0.1711-0.10054l7e-3 -0.0018q0.0335 0 0.0688 0.05645 0.0123 0.02469 0.0353 0.07232 7e-3 0.01235 0.0847 0.06879 0.0564 0.04057 0.0564 0.09525zm-0.18521 0.12876q-0.0123-0.03351-0.0688-0.09701-0.0564-0.06526-0.0864-0.07585h-5e-3q0 0.02999-4e-3 0.09172-2e-3 0.06174-2e-3 0.09172v0.10583q0 0.02117 5e-3 0.04057 0.0282 0 0.0882-0.06174 0.06-0.0635 0.0723-0.09525zm0.69497-0.68968q0 0.0194-0.0265 0.07055-0.03 0.05821-0.0388 0.07761-0.0141 0.03704-0.0229 0.08643-5e-3 0.03528-0.0247 0.03528-0.0212 0-0.0776-0.03175-0.0511-0.01058-0.0547-0.01235-0.0282-0.01058-0.0282-0.03175 2e-3 -0.0053 0.0212-0.0441 0.0194-0.04057 0.0476-0.12171 0.0282-0.08114 0.0459-0.11994 0.037 0.01411 0.0741 0.02646 0.0847 0.0388 0.0847 0.06526zm-9e-3 0.48154-2e-3 0.02999-0.0106 0.01588q-0.0141 0.08467-0.0141 0.1023v0.49742q0 0.01588 0.0106 0.05821t0.0106 0.05997v0.02117l-7e-3 0.01235h-0.0247q-0.0282 0-0.0864-0.0053t-0.0864-0.0053q-0.0123 0-0.037 0.0053-0.0229 0.0053-0.0353 0.0053h-0.0176q-0.0159-0.01411-0.0159-0.02999 0-0.02117 0.0106-0.06703t0.0106-0.06703q0-0.05821 5e-3 -0.17286 5e-3 -0.11642 5e-3 -0.17462 0 0.0088 2e-3 -0.07408v-0.05292q0-0.04763-0.0159-0.0635-0.0141-0.01764-0.0635-0.03351-0.067-0.02293-0.067-0.05468 0-0.01235 0.03-0.04939 0.037-0.04586 0.0529-0.07408 0.0423-0.07937 0.0635-0.07937 0.0335 0 0.10054 0.06703 0.0564 0.02117 0.11465 0.0441 0.0706 0.03528 0.067 0.08467zm0.65264-0.01058q0 0.02646-0.0335 0.02646-0.0123 0-0.037-0.0035t-0.037-0.0035h-0.0318q-0.0176 0.02293-0.0176 0.05468 0 0.02646 4e-3 0.07937 4e-3 0.05115 4e-3 0.07761 0 0.02469-2e-3 0.13935l-4e-3 0.13935q7e-3 0.01235 0.0705 0.04233 0.0653 0.02999 0.0741 0.0441 0 0.02293-0.0529 0.12171-0.0511 0.09701-0.0653 0.09701-0.0247 0-0.0688-0.02999-0.0688-0.04762-0.10936-0.06703-0.0459-0.02117-0.0935-0.04233-0.0794-0.0388-0.0794-0.05821 0-0.0071 0.0159-0.05644 0.0176-0.04939 0.0212-0.05115 0.0212-0.04057 0.0212-0.1076v-0.37218l-0.0106-0.01058q-0.0459 0-0.0476 0.0018h2e-3q-0.0318-0.0018-0.0371-0.03881 2e-3 0.0071 2e-3 -0.06174 0-0.05115 0.0141-0.05997l0.0159-0.0018q7e-3 0 0.0194 0.0035 0.0141 0.0035 0.0194 0.0035 0.0176 0 0.0229-0.04233-4e-3 -0.01235-5e-3 -0.0194 0-0.03351-0.0141-0.09349-0.0123-0.05997-0.0123-0.07585 0-0.02646 0.0512-0.02646h0.12877q0.0194 0 0.0564-0.0071 0.037-0.0088 0.0564-0.0088 0.037 0 0.037 0.04057 0 0.02646-0.0141 0.0829-0.0123 0.05645-0.0123 0.0829 0 0.03704 0.0106 0.06703h0.0882q0.0141-0.0088 0.0247-0.01058 0.0194 0.0018 0.0265 0.01588zm1.1254 0.61031q0 0.0247-0.0847 0.12876-0.0194 0.06174-0.0406 0.07761-0.0423 0-0.0741-0.02293-0.0617-0.0441-0.0917-0.05821-0.0635-0.02822-0.0882-0.06879-7e-3 -0.01058-0.03-0.07585-4e-3 -0.0088-7e-3 -0.01235l-0.0264 0.02293q-4e-3 0.0035-0.0829 0.10583l-0.0811 0.10407q-5e-3 0.0053-0.0159 0.0053-0.0335 0-0.11995-0.06174-0.0388-0.0194-0.18168-0.06703-0.0159-0.01411-0.0159-0.04233 0-0.0194 0.0212-0.07056 0.0212-0.05292 0.0212-0.07232v-0.40216q0-0.02117-0.0688-0.05292-0.067-0.03175-0.067-0.04939 0-0.01588 0.0106-0.03175 0.0264-0.03881 0.0776-0.11818 0.0441-0.06703 0.06-0.06703 0.0317 0 0.0882 0.03881l0.0847 0.05821q0.0212 0.01411 0.0794 0.03881 0.0353 0.01411 0.0353 0.03351 0 0.02293-0.0106 0.08996l-0.0106 0.06526q-0.0159 0.13406-0.0159 0.21343 0 0.1464 4e-3 0.16404 0.0159 0.05644 0.0988 0.10231h0.0194q0.0547-0.05468 0.10054-0.12347 0.0141-0.02822 0.0141-0.20461v-0.12171q0-0.11465-0.0159-0.20461 0-0.0018-0.0176-0.04233-0.0123-0.02822-0.0123-0.04057 0-0.01411 0.0106-0.02117 0.0282 0 0.0847 0.01058 0.0564 0.01058 0.0847 0.01058 0.0547 0 0.1076-0.0053 0.0247-0.01588 0.0529-0.01588l0.0106 0.0053v0.02117q0 0.02646-0.0318 0.12876-0.0212 0.13053-0.0212 0.45861 0 0.05468 0.0282 0.0829 0.0194 0.0194 0.0794 0.04586 0.0388 0.01764 0.0388 0.04057zm1.0954 0.05468q0 0.0194-0.0582 0.09701-0.0564 0.07761-0.0758 0.08996-0.0141 0-0.0935-0.05644-0.0794-0.04762-0.10936-0.07761-0.0494-0.04939-0.0494-0.12171 0-0.05115 5e-3 -0.15346 5e-3 -0.10407 5e-3 -0.15522 0-0.02469-4e-3 -0.07585-2e-3 -0.05115-2e-3 -0.07585-7e-3 -0.0194-0.0494-0.0441-0.0406-0.0247-0.0617-0.0247-0.0212 0-0.067 0.05645-0.0459 0.05644-0.0547 0.08467 0 0.01588-4e-3 0.04586-2e-3 0.02999-2e-3 0.04586v0.32985q7e-3 0.01235 0.0159 0.07585 0.0106 0.0635 0.0106 0.08467t-7e-3 0.02646q-5e-3 0.0053-0.0265 0.0053-0.0176 0-0.0547-0.0053-0.0353-0.0053-0.0529-0.0053 0.0229 0-0.0335 0.0018-0.0564 0.0035-0.0688 0.0035h-0.0176q-0.0335 0-0.0441-0.01058v-0.0194q0-0.01411 0.0106-0.07937t0.0106-0.07761q5e-3 -0.03881 5e-3 -0.13935v-0.23636q0-0.07761-0.0106-0.10231-0.0159-0.03175-0.0776-0.0635-0.0406-0.02117-0.0406-0.04939 0-0.04233 0.0723-0.12524 9e-3 -0.02999 0.0159-0.04762 0.0159-0.04057 0.0441-0.04057 0.0194 0 0.0794 0.05292 0.0776 0.03351 0.10759 0.05821 0.0441 0.03704 0.0547 0.09878 5e-3 0.03351 0.0176 0.03881 0.0123 0 0.1076-0.12171 0.0953-0.12171 0.10054-0.12171 0.0247 0 0.0829 0.03528 0.0459 0.02822 0.0494 0.03175 0.0529 0.02293 0.15523 0.05115 0.0212 0.01764 0.0212 0.04057 0 0.03881-0.0194 0.11642-0.0176 0.07585-0.0176 0.11465 0 0.0088 5e-3 0.01764-5e-3 0.12171-5e-3 0.15699 0 0.09349 7e-3 0.12171 0.0141 0.05821 0.0723 0.08467 0.0494 0.02293 0.0494 0.0635zm1.023 0.17815q0 0.01058-4e-3 0.02117-0.0459 0.05468-0.13759 0.16404-0.0811 0.09349-0.11994 0.09349-0.0159 0-0.0847-0.01235-0.067-0.01235-0.0758-0.01764-0.0212 0-0.0653-0.0035-0.0441-0.0018-0.067-0.0018-0.10407 0-0.21872 0.0194-9e-3 0-0.037 0.01058-0.0265 0.01058-0.0406 0.01058-0.0459 0-0.0459-0.02293 0-0.02117 0.0459-0.10054 0.0406-0.07232 0.0617-0.09878l0.0106-0.0053q0.0688-0.0071 0.0811-0.02293l0.0529-0.06879q0-0.04057-0.25576-0.13229-7e-3 -0.0071-7e-3 -0.02999 0-0.01588 0.0159-0.05468 0.0159-0.04057 0.0159-0.05821v-0.36862q0-0.02469-0.0141-0.07585-0.0141-0.05292-0.0141-0.07761 0-0.02999 0.1076-0.07408 0.0441-0.01588 0.13053-0.05115 0.16404-0.10407 0.18697-0.10407 0.0212 0 0.0794 0.03881 0.0653 0.04586 0.0882 0.05292 0.0441 0.01588 0.0582 0.03351h0.0406q2e-3 -0.0018 0.0194-0.06174 0.0194-0.06174 0.0335-0.06703 0.0141 0.0053 0.0635 0.0441 0.0512 0.03881 0.0653 0.05292l5e-3 0.02646q0 0.01588-0.067 0.09701-0.0265 0.06174-0.0265 0.29633 0 0.05115 4e-3 0.15346 5e-3 0.10231 5e-3 0.15346 0.0247 0.06879 0.0265 0.1076 0.0106 0.0194 0.0547 0.0829 0.0282 0.04057 0.0282 0.05115zm-0.37571-0.38629v-0.30868q0-0.04057-0.0952-0.09878-0.0176-0.01058-0.13758-0.07055l-7e-3 -0.0018q-0.0123 0-0.0123 0.01588 0 0.01235 5e-3 0.03528 5e-3 0.02117 5e-3 0.03175 5e-3 0.10583 5e-3 0.20285v0.06526q0 0.03175-4e-3 0.09878-4e-3 0.06526-4e-3 0.09701 0 0.01058 0.12523 0.0829 0.0335-0.0088 0.11289-0.12347zm0.12877 0.45861q-4e-3 -0.0071-0.0776-0.127-0.0441-0.07055-0.0459-0.1711l-0.0106-0.0071q-7e-3 0.0018-0.0265 0.0018-0.037 0.03704-0.11465 0.12876-0.09 0.10583-0.097 0.12876l5e-3 0.01058h0.0282l0.27164 0.0247 0.0159 0.01058z" stroke-width=".26458" aria-label="Bedienungsanleitung"/>
  <rect id="rect5" x="92.319" y="51.855" width="3.3714" height=".052119" ry=".011664" stroke-width=".072151"/>
  <use transform="translate(22.922)" xlink:href="#rect5"/>
 </g>
</svg>
