<?xml version="1.0" standalone="no"?>
<!DOCTYPE svg PUBLIC "-//W3C//DTD SVG 20010904//EN"
 "http://www.w3.org/TR/2001/REC-SVG-20010904/DTD/svg10.dtd">
<svg version="1.0" xmlns="http://www.w3.org/2000/svg"
 width="700.000000pt" height="700.000000pt" viewBox="0 0 700.000000 700.000000"
 preserveAspectRatio="xMidYMid meet">
<metadata>
Created by potrace 1.14, written by Peter Selinger 2001-2017
</metadata>
<g transform="translate(0.000000,700.000000) scale(0.100000,-0.100000)"
fill="#000000" stroke="none">
<path d="M1580 5770 l0 -1230 550 0 550 0 0 1230 0 1230 -550 0 -550 0 0
-1230z"/>
<path d="M2950 5770 l0 -1230 550 0 550 0 0 1230 0 1230 -550 0 -550 0 0
-1230z"/>
<path d="M4320 5770 l0 -1230 548 2 547 3 3 1228 2 1227 -550 0 -550 0 0
-1230z"/>
<path d="M1580 3501 l0 -721 233 0 c327 1 449 26 593 122 128 86 210 206 255
373 29 107 32 344 6 450 -47 188 -162 337 -319 414 -141 69 -168 74 -485 79
l-283 4 0 -721z m578 399 c114 -50 178 -168 189 -345 7 -115 -10 -222 -48
-301 -54 -113 -152 -171 -306 -181 l-83 -6 0 433 0 432 98 -4 c73 -3 110 -10
150 -28z"/>
<path d="M2950 3500 l0 -722 268 4 c231 4 277 8 345 26 233 64 400 229 463
462 26 93 26 377 1 470 -61 227 -224 391 -452 456 -48 13 -118 17 -342 21
l-283 5 0 -722z m527 415 c117 -35 196 -125 222 -252 25 -128 8 -331 -35 -416
-56 -107 -183 -177 -326 -177 l-58 0 0 430 0 430 73 0 c40 0 96 -7 124 -15z"/>
<path d="M4310 3501 l0 -721 178 2 177 3 3 246 2 246 158 11 c86 6 184 19 217
28 95 25 184 74 247 135 95 93 135 206 125 357 -4 70 -11 96 -41 157 -43 87
-92 133 -191 181 -122 59 -173 66 -542 71 l-333 5 0 -721z m627 414 c66 -20
113 -70 114 -123 3 -97 -14 -150 -56 -178 -40 -26 -131 -44 -232 -44 l-93 0 0
180 0 180 108 0 c68 0 128 -6 159 -15z"/>
<path d="M1580 1230 l0 -1230 550 0 550 0 0 1230 0 1230 -550 0 -550 0 0
-1230z"/>
<path d="M2950 1230 l0 -1230 550 0 550 0 0 1230 0 1230 -550 0 -550 0 0
-1230z"/>
<path d="M4320 1230 l0 -1230 550 0 550 0 -2 1227 -3 1228 -547 3 -548 2 0
-1230z"/>
</g>
</svg>
