<?xml version="1.0" standalone="no"?>
<!DOCTYPE svg PUBLIC "-//W3C//DTD SVG 20010904//EN"
 "http://www.w3.org/TR/2001/REC-SVG-20010904/DTD/svg10.dtd">
<svg version="1.0" xmlns="http://www.w3.org/2000/svg"
 width="700.000000pt" height="700.000000pt" viewBox="0 0 700.000000 700.000000"
 preserveAspectRatio="xMidYMid meet">
<metadata>
Created by potrace 1.14, written by Peter Selinger 2001-2017
</metadata>
<g transform="translate(0.000000,700.000000) scale(0.100000,-0.100000)"
fill="#000000" stroke="none">
<path d="M1310 5795 l0 -1205 660 0 660 0 0 1205 0 1205 -660 0 -660 0 0
-1205z"/>
<path d="M2840 5795 l0 -1205 660 0 660 0 0 1205 0 1205 -660 0 -660 0 0
-1205z"/>
<path d="M4370 5795 l0 -1205 660 0 660 0 0 1205 0 1205 -660 0 -660 0 0
-1205z"/>
<path d="M1310 3501 l0 -841 233 0 c374 0 522 22 681 100 230 111 360 309 396
600 52 424 -97 752 -407 896 -145 68 -200 76 -570 81 l-333 5 0 -841z m648
524 c82 -20 115 -37 178 -97 91 -86 134 -218 134 -418 0 -231 -62 -387 -187
-469 -73 -48 -156 -69 -303 -77 l-130 -7 0 542 0 541 123 0 c72 0 148 -6 185
-15z"/>
<path d="M2840 3500 l0 -843 308 6 c341 6 420 17 564 76 215 90 351 250 415
489 24 88 26 114 26 282 0 158 -3 197 -21 265 -60 220 -183 379 -362 468 -166
81 -214 89 -597 94 l-333 5 0 -842z m651 524 c120 -27 216 -109 267 -228 42
-96 56 -340 27 -474 -27 -129 -84 -223 -172 -281 -73 -49 -158 -70 -304 -78
l-129 -6 0 541 0 542 121 0 c73 0 147 -6 190 -16z"/>
<path d="M4470 3501 l0 -841 173 2 172 3 3 296 2 296 168 6 c135 4 180 9 237
27 189 60 309 192 350 386 52 248 -38 487 -222 587 -28 15 -87 37 -130 49 -70
19 -111 22 -415 26 l-338 4 0 -841z m645 512 c49 -26 90 -68 105 -108 6 -16
12 -63 12 -102 0 -166 -82 -234 -305 -249 l-107 -7 0 248 0 247 128 -4 c104
-3 134 -8 167 -25z"/>
<path d="M1310 1205 l0 -1205 660 0 660 0 0 1205 0 1205 -660 0 -660 0 0
-1205z"/>
<path d="M2840 1205 l0 -1205 660 0 660 0 0 1205 0 1205 -660 0 -660 0 0
-1205z"/>
<path d="M4370 1205 l0 -1205 660 0 660 0 0 1205 0 1205 -660 0 -660 0 0
-1205z"/>
</g>
</svg>
